G04 DipTrace 3.2.0.1*
G04 Bottom.gbr*
%MOMM*%
G04 #@! TF.FileFunction,Copper,L2,Bot*
G04 #@! TF.Part,Single*
G04 #@! TA.AperFunction,Conductor*
%ADD14C,0.33*%
G04 #@! TA.AperFunction,CopperBalancing*
%ADD15C,0.635*%
G04 #@! TA.AperFunction,ComponentPad*
%ADD16C,1.62*%
%ADD17R,1.62X1.62*%
%ADD18C,1.524*%
%ADD19R,1.524X1.524*%
%FSLAX35Y35*%
G04*
G71*
G90*
G75*
G01*
G04 Bottom*
%LPD*%
X1937497Y2270133D2*
D14*
Y2001003D1*
X1809710Y1873217D1*
Y1523930D1*
X1698573Y1412793D1*
X1937497Y2270133D2*
Y3571556D1*
X2063199Y3697259D1*
Y4079557D1*
X1937497Y4205260D1*
Y4334100D1*
X2191497Y2270133D2*
Y2000977D1*
X2063737Y1873217D1*
Y1523957D1*
X1952573Y1412793D1*
X2191497Y2270133D2*
Y3554188D1*
X2317199Y3679891D1*
Y4059227D1*
X2191497Y4184930D1*
Y4334100D1*
X2445497Y2270133D2*
Y1985073D1*
X2317763Y1857340D1*
Y1523983D1*
X2206573Y1412793D1*
X2445497Y2270133D2*
Y3617028D1*
X2571199Y3742730D1*
Y4079557D1*
X2445497Y4205260D1*
Y4334100D1*
X2699497Y2270133D2*
Y2000923D1*
X2571790Y1873217D1*
Y1524010D1*
X2460573Y1412793D1*
X2699497Y2270133D2*
Y3488168D1*
X2825199Y3613871D1*
Y3986758D1*
X2699497Y4112461D1*
Y4334100D1*
X2953497Y2270133D2*
Y1969143D1*
X2825817Y1841463D1*
Y1524037D1*
X2714573Y1412793D1*
X2953497Y2270133D2*
Y3508717D1*
X3079199Y3634419D1*
Y4036458D1*
X2953497Y4162161D1*
Y4334100D1*
X3207497Y2270133D2*
Y2000870D1*
X3079843Y1873217D1*
Y1524063D1*
X2968573Y1412793D1*
X3207497Y2270133D2*
Y3571556D1*
X3333199Y3697259D1*
Y4079557D1*
X3207497Y4205260D1*
Y4334100D1*
X3461497Y2270133D2*
Y2000843D1*
X3333870Y1873217D1*
Y1524090D1*
X3222573Y1412793D1*
X3461497Y2270133D2*
Y3508717D1*
X3587199Y3634419D1*
Y4030738D1*
X3461497Y4156441D1*
Y4334100D1*
X3715497Y2270133D2*
Y1984940D1*
X3572020Y1841463D1*
Y1508240D1*
X3476573Y1412793D1*
X3715497Y2270133D2*
Y3571556D1*
X3841199Y3697259D1*
Y4079557D1*
X3715497Y4205260D1*
Y4334100D1*
X3969497Y2270133D2*
Y1984913D1*
X3841923Y1857340D1*
Y1524143D1*
X3730573Y1412793D1*
X3969497Y2270133D2*
Y3551457D1*
X4095199Y3677160D1*
Y4076837D1*
X3969497Y4202539D1*
Y4334100D1*
X4223497Y2270133D2*
Y1969010D1*
X4095950Y1841463D1*
Y1524170D1*
X3984573Y1412793D1*
X4223497Y2270133D2*
Y3614297D1*
X4349199Y3740000D1*
Y4004858D1*
X4223497Y4130561D1*
Y4334100D1*
X4477497Y2270133D2*
Y2000737D1*
X4349977Y1873217D1*
Y1524197D1*
X4238573Y1412793D1*
X4477497Y2270133D2*
Y3485438D1*
X4603199Y3611140D1*
Y4040459D1*
X4477497Y4166161D1*
Y4334100D1*
X4731497Y2270133D2*
Y1984833D1*
X4604003Y1857340D1*
Y1524223D1*
X4492573Y1412793D1*
X4731497Y2270133D2*
Y3508717D1*
X4857199Y3634419D1*
Y4079557D1*
X4731497Y4205260D1*
Y4334100D1*
X4985497Y2270133D2*
Y1984807D1*
X4858030Y1857340D1*
Y1524250D1*
X4746573Y1412793D1*
X4985497Y2270133D2*
Y3571556D1*
X5111199Y3697259D1*
Y4079557D1*
X4985497Y4205260D1*
Y4334100D1*
X5239497Y2270133D2*
Y1968903D1*
X5112057Y1841463D1*
Y1524277D1*
X5000573Y1412793D1*
X5239497Y2270133D2*
Y3546487D1*
X5365199Y3672189D1*
Y3992138D1*
X5239497Y4117841D1*
Y4334100D1*
X5493497Y2270133D2*
Y1953000D1*
X5366083Y1825587D1*
Y1524303D1*
X5254573Y1412793D1*
X5493497Y2270133D2*
Y3531737D1*
X5619199Y3657440D1*
Y4079557D1*
X5493497Y4205260D1*
Y4334100D1*
X5747497Y2270133D2*
Y1952973D1*
X5620110Y1825587D1*
Y1524330D1*
X5508573Y1412793D1*
X5747497Y2270133D2*
Y3510596D1*
X5873199Y3636299D1*
Y4060068D1*
X5747497Y4185770D1*
Y4334100D1*
X6001497Y2270133D2*
Y1984700D1*
X5874137Y1857340D1*
Y1524357D1*
X5762573Y1412793D1*
X6001497Y2270133D2*
Y3571556D1*
X6127199Y3697259D1*
Y4079557D1*
X6001497Y4205260D1*
Y4334100D1*
X6255497Y2270133D2*
Y1968797D1*
X6128163Y1841463D1*
Y1524383D1*
X6016573Y1412793D1*
X6255497Y2270133D2*
Y2923628D1*
X6381199Y3049331D1*
Y4016717D1*
X6255497Y4142420D1*
Y4334100D1*
X6509497Y2270133D2*
Y1968770D1*
X6382190Y1841463D1*
Y1524410D1*
X6270573Y1412793D1*
X6509497Y2270133D2*
Y3109487D1*
X6635199Y3235190D1*
Y4052638D1*
X6509497Y4178341D1*
Y4334100D1*
X6763497Y2270133D2*
Y1968743D1*
X6636217Y1841463D1*
Y1524437D1*
X6524573Y1412793D1*
X6763497Y2270133D2*
Y3539367D1*
X6889199Y3665070D1*
Y4000759D1*
X6763497Y4126461D1*
Y4334100D1*
X7017497Y2270133D2*
Y1984593D1*
X6890243Y1857340D1*
Y1524463D1*
X6778573Y1412793D1*
X7017497Y2270133D2*
Y2612546D1*
X7143199Y2738249D1*
Y4066758D1*
X7017497Y4192461D1*
Y4334100D1*
X7271497Y2270133D2*
Y1984567D1*
X7144270Y1857340D1*
Y1524490D1*
X7032573Y1412793D1*
X7271497Y2270133D2*
Y2957877D1*
X7397199Y3083580D1*
Y4079557D1*
X7271497Y4205260D1*
Y4334100D1*
X7525497Y2270133D2*
Y1968663D1*
X7398297Y1841463D1*
Y1524517D1*
X7286573Y1412793D1*
X7525497Y2270133D2*
Y3571556D1*
X7651199Y3697259D1*
Y4016717D1*
X7525497Y4142420D1*
Y4334100D1*
X7779497Y2270133D2*
Y1984513D1*
X7652323Y1857340D1*
Y1524543D1*
X7540573Y1412793D1*
X8033497Y2270133D2*
Y1984487D1*
X7922227Y1873217D1*
Y1540447D1*
X7794573Y1412793D1*
X8033497Y2270133D2*
Y2512597D1*
X8159199Y2638300D1*
Y4061327D1*
X8033497Y4187030D1*
Y4334100D1*
X8287497Y2270133D2*
Y1984460D1*
X8160377Y1857340D1*
Y1524597D1*
X8048573Y1412793D1*
X8287497Y2270133D2*
Y2419847D1*
X8413199Y2545549D1*
Y4079557D1*
X8287497Y4205260D1*
Y4334100D1*
X8541497Y2270133D2*
Y1984433D1*
X8414403Y1857340D1*
Y1524623D1*
X8302573Y1412793D1*
X8541497Y2270133D2*
Y3277706D1*
X8667199Y3403409D1*
Y4016717D1*
X8541497Y4142420D1*
Y4334100D1*
X8795497Y2270133D2*
Y1968530D1*
X8668430Y1841463D1*
Y1524650D1*
X8556573Y1412793D1*
X8795497Y2270133D2*
Y2466248D1*
X8921199Y2591950D1*
Y4028678D1*
X8795497Y4154381D1*
Y4334100D1*
X9049497Y2270133D2*
Y1968503D1*
X8922457Y1841463D1*
Y1524677D1*
X8810573Y1412793D1*
X9049497Y2270133D2*
Y3199977D1*
X9175199Y3325680D1*
Y4045938D1*
X9049497Y4171640D1*
Y4334100D1*
X9303497Y2270133D2*
Y1984353D1*
X9176483Y1857340D1*
Y1524703D1*
X9064573Y1412793D1*
X9303497Y2270133D2*
Y3391288D1*
X9429199Y3516990D1*
Y4079557D1*
X9303497Y4205260D1*
Y4334100D1*
X9557497Y2270133D2*
Y1968450D1*
X9430510Y1841463D1*
Y1524730D1*
X9318573Y1412793D1*
X9557497Y2270133D2*
Y3571556D1*
X9683199Y3697259D1*
Y4016717D1*
X9557497Y4142420D1*
Y4334100D1*
X7779497Y1762133D2*
X7845497Y1828133D1*
Y2020648D1*
X7905199Y2080351D1*
Y3235528D1*
X7779497Y3361230D1*
Y3826100D1*
X1104146Y4506593D2*
D15*
X10263177D1*
X1104146Y4443427D2*
X1787617D1*
X2290773D2*
X2346250D1*
X2544797D2*
X2600182D1*
X2798820D2*
X2854206D1*
X3052752D2*
X3108229D1*
X3306776D2*
X3362253D1*
X3560799D2*
X3616185D1*
X3814823D2*
X3870209D1*
X4068755D2*
X4124232D1*
X4322778D2*
X4378255D1*
X4576802D2*
X4632188D1*
X4830825D2*
X4886211D1*
X5084757D2*
X5140235D1*
X5338781D2*
X5394167D1*
X5592804D2*
X5648190D1*
X5846828D2*
X5902214D1*
X6100760D2*
X6156237D1*
X6354784D2*
X6410169D1*
X6608807D2*
X6664193D1*
X6862739D2*
X6918216D1*
X7116763D2*
X7172240D1*
X7370786D2*
X7426172D1*
X7624810D2*
X7680196D1*
X7878742D2*
X7934219D1*
X8132765D2*
X8188242D1*
X8386789D2*
X8442175D1*
X8640812D2*
X8696198D1*
X8894744D2*
X8950222D1*
X9148768D2*
X9204245D1*
X9402791D2*
X9458177D1*
X9656815D2*
X10263177D1*
X1104146Y4380260D2*
X1787617D1*
X9699744D2*
X10263177D1*
X1104146Y4317093D2*
X1787617D1*
X9706307D2*
X10263177D1*
X1104146Y4253927D2*
X1787617D1*
X9682882D2*
X10263177D1*
X1104146Y4190760D2*
X1787617D1*
X2310552D2*
X2356641D1*
X2584810D2*
X2609388D1*
X2789614D2*
X2863321D1*
X3049744D2*
X3118620D1*
X3346880D2*
X3371295D1*
X3552049D2*
X3626576D1*
X3854836D2*
X3880143D1*
X4106125D2*
X4133347D1*
X4313664D2*
X4387370D1*
X4577713D2*
X4642578D1*
X4870838D2*
X4896602D1*
X5124862D2*
X5149331D1*
X5329666D2*
X5404649D1*
X5632817D2*
X5657326D1*
X5867336D2*
X5912604D1*
X6140864D2*
X6165352D1*
X6345669D2*
X6419375D1*
X6621932D2*
X6673399D1*
X6853625D2*
X6927331D1*
X7144015D2*
X7182630D1*
X7410799D2*
X7435334D1*
X7615604D2*
X7943334D1*
X8154640D2*
X8198633D1*
X8426802D2*
X8451380D1*
X8631606D2*
X8705313D1*
X8885630D2*
X8959336D1*
X9155239D2*
X9214636D1*
X9442804D2*
X9467399D1*
X9647609D2*
X10263177D1*
X1104146Y4127593D2*
X1890339D1*
X2373716D2*
X2398294D1*
X2809211D2*
X2870794D1*
X3112909D2*
X3160274D1*
X3615213D2*
X3668321D1*
X4351307D2*
X4396758D1*
X4640877D2*
X4684323D1*
X5354549D2*
X5446302D1*
X5930500D2*
X5954349D1*
X6395161D2*
X6436511D1*
X6887166D2*
X6957500D1*
X7665187D2*
X7968125D1*
X8217804D2*
X8240287D1*
X8681190D2*
X8709779D1*
X8947153D2*
X8971848D1*
X9218403D2*
X9256289D1*
X9697192D2*
X10263177D1*
X1104146Y4064427D2*
X1953503D1*
X2153325D2*
X2187110D1*
X2407166D2*
X2461459D1*
X2872375D2*
X2926393D1*
X3164497D2*
X3223438D1*
X3670265D2*
X3731485D1*
X3931307D2*
X3982774D1*
X4414471D2*
X4454362D1*
X4689823D2*
X4747487D1*
X4947310D2*
X5001511D1*
X5417713D2*
X5509466D1*
X5709380D2*
X5743985D1*
X5963221D2*
X6017513D1*
X6456411D2*
X6498581D1*
X6950422D2*
X7020664D1*
X7233338D2*
X7287448D1*
X7726437D2*
X8031289D1*
X8249250D2*
X8303451D1*
X9003299D2*
X9031888D1*
X9263247D2*
X9319453D1*
X9758442D2*
X10263177D1*
X1104146Y4001260D2*
X1973099D1*
X2153325D2*
X2227031D1*
X2407349D2*
X2481055D1*
X2661372D2*
X2685860D1*
X2914119D2*
X2989102D1*
X3169328D2*
X3243034D1*
X3423351D2*
X3491862D1*
X3677375D2*
X3751081D1*
X3931307D2*
X4005104D1*
X4185330D2*
X4227956D1*
X4439354D2*
X4513060D1*
X4693377D2*
X4767084D1*
X4947310D2*
X5021016D1*
X5201333D2*
X5231198D1*
X5454810D2*
X5529063D1*
X5709380D2*
X5783086D1*
X5963312D2*
X6037018D1*
X6217336D2*
X6271810D1*
X6471359D2*
X6545065D1*
X6725382D2*
X6763815D1*
X6979315D2*
X7053021D1*
X7233338D2*
X7307044D1*
X7487362D2*
X7541836D1*
X7741385D2*
X8069024D1*
X8249341D2*
X8323047D1*
X8503364D2*
X8557839D1*
X8757297D2*
X8823802D1*
X9011320D2*
X9085026D1*
X9265343D2*
X9339050D1*
X9519367D2*
X9573841D1*
X9773299D2*
X10263177D1*
X1104146Y3938093D2*
X1841485D1*
X7875552D2*
X7937409D1*
X9773299D2*
X10263177D1*
X1104146Y3874927D2*
X1796185D1*
X9773299D2*
X10263177D1*
X1104146Y3811760D2*
X1788347D1*
X9773299D2*
X10263177D1*
X1104146Y3748593D2*
X1810404D1*
X9773299D2*
X10263177D1*
X1104146Y3685427D2*
X1902826D1*
X2638677D2*
X2664896D1*
X4419119D2*
X4442878D1*
X7869627D2*
X7998841D1*
X9772479D2*
X10263177D1*
X1104146Y3622260D2*
X1864453D1*
X2113039D2*
X2134744D1*
X2575604D2*
X2708737D1*
X2915304D2*
X2942162D1*
X3383065D2*
X3450209D1*
X3891021D2*
X3915417D1*
X4356320D2*
X4489453D1*
X4693377D2*
X4720235D1*
X5161047D2*
X5190456D1*
X5438859D2*
X5459154D1*
X5701632D2*
X5734286D1*
X6177049D2*
X6291042D1*
X6471359D2*
X6545065D1*
X6967557D2*
X7053021D1*
X7233338D2*
X7307044D1*
X7869627D2*
X8069024D1*
X8249341D2*
X8323047D1*
X8503364D2*
X8577071D1*
X8757297D2*
X8831094D1*
X9011320D2*
X9085026D1*
X9265343D2*
X9339050D1*
X9733013D2*
X10263177D1*
X1104146Y3559093D2*
X1847318D1*
X2049875D2*
X2101524D1*
X2321216D2*
X2355365D1*
X2535682D2*
X2645573D1*
X3319901D2*
X3388229D1*
X3827856D2*
X3879688D1*
X4102023D2*
X4133347D1*
X4313664D2*
X4426289D1*
X5097882D2*
X5150352D1*
X5376971D2*
X5407981D1*
X5645669D2*
X5672800D1*
X6113885D2*
X6291042D1*
X6471359D2*
X6545065D1*
X6908039D2*
X7053021D1*
X7233338D2*
X7307044D1*
X7637843D2*
X7689401D1*
X7869627D2*
X8069024D1*
X8249341D2*
X8323047D1*
X8503364D2*
X8577071D1*
X8757297D2*
X8831094D1*
X9011320D2*
X9085026D1*
X9265343D2*
X9339050D1*
X9669849D2*
X10263177D1*
X1104146Y3495927D2*
X1847318D1*
X2027635D2*
X2101341D1*
X2281659D2*
X2355365D1*
X2535682D2*
X2609753D1*
X2832088D2*
X2863405D1*
X3065513D2*
X3117344D1*
X3297661D2*
X3371367D1*
X3573560D2*
X3625391D1*
X3805617D2*
X3879323D1*
X4059640D2*
X4133347D1*
X4313664D2*
X4388008D1*
X4612804D2*
X4641393D1*
X4843586D2*
X4895326D1*
X5075643D2*
X5149349D1*
X5329666D2*
X5403373D1*
X5583599D2*
X5657396D1*
X5857674D2*
X5911328D1*
X6091646D2*
X6291042D1*
X6471359D2*
X6545065D1*
X6853625D2*
X7053021D1*
X7233338D2*
X7307044D1*
X7615604D2*
X7689401D1*
X7869627D2*
X8069024D1*
X8249341D2*
X8323047D1*
X8503364D2*
X8577071D1*
X8757297D2*
X8831094D1*
X9011320D2*
X9085026D1*
X9647609D2*
X10263177D1*
X1104146Y3432760D2*
X1847318D1*
X2027635D2*
X2101341D1*
X2281659D2*
X2355365D1*
X2535682D2*
X2609388D1*
X2789614D2*
X2863321D1*
X3043638D2*
X3117344D1*
X3297661D2*
X3371367D1*
X3551593D2*
X3625391D1*
X3805617D2*
X3879323D1*
X4059640D2*
X4133347D1*
X4313664D2*
X4387370D1*
X4567596D2*
X4641393D1*
X4821619D2*
X4895326D1*
X5075643D2*
X5149349D1*
X5329666D2*
X5403373D1*
X5583599D2*
X5657396D1*
X5837622D2*
X5911328D1*
X6091646D2*
X6291042D1*
X6471359D2*
X6545065D1*
X6853625D2*
X7053021D1*
X7233338D2*
X7307044D1*
X7615604D2*
X7689401D1*
X7869627D2*
X8069024D1*
X8249341D2*
X8323047D1*
X8503364D2*
X8571693D1*
X8757297D2*
X8831094D1*
X9011320D2*
X9085026D1*
X9647609D2*
X10263177D1*
X1104146Y3369593D2*
X1847318D1*
X2027635D2*
X2101341D1*
X2281659D2*
X2355365D1*
X2535682D2*
X2609388D1*
X2789614D2*
X2863321D1*
X3043638D2*
X3117344D1*
X3297661D2*
X3371367D1*
X3551593D2*
X3625391D1*
X3805617D2*
X3879323D1*
X4059640D2*
X4133347D1*
X4313664D2*
X4387370D1*
X4567596D2*
X4641393D1*
X4821619D2*
X4895326D1*
X5075643D2*
X5149349D1*
X5329666D2*
X5403373D1*
X5583599D2*
X5657396D1*
X5837622D2*
X5911328D1*
X6091646D2*
X6291042D1*
X6471359D2*
X6545065D1*
X6853625D2*
X7053021D1*
X7233338D2*
X7307044D1*
X7615604D2*
X7689401D1*
X7895968D2*
X8069024D1*
X8249341D2*
X8323047D1*
X8750187D2*
X8831094D1*
X9011320D2*
X9085026D1*
X9406619D2*
X9467383D1*
X9647609D2*
X10263177D1*
X1104146Y3306427D2*
X1847318D1*
X2027635D2*
X2101341D1*
X2281659D2*
X2355365D1*
X2535682D2*
X2609388D1*
X2789614D2*
X2863321D1*
X3043638D2*
X3117344D1*
X3297661D2*
X3371367D1*
X3551593D2*
X3625391D1*
X3805617D2*
X3879323D1*
X4059640D2*
X4133347D1*
X4313664D2*
X4387370D1*
X4567596D2*
X4641393D1*
X4821619D2*
X4895326D1*
X5075643D2*
X5149349D1*
X5329666D2*
X5403373D1*
X5583599D2*
X5657396D1*
X5837622D2*
X5911328D1*
X6091646D2*
X6291042D1*
X6471359D2*
X6545065D1*
X6853625D2*
X7053021D1*
X7233338D2*
X7307044D1*
X7615604D2*
X7709727D1*
X7959132D2*
X8069024D1*
X8249341D2*
X8323047D1*
X8695044D2*
X8831094D1*
X9011320D2*
X9031068D1*
X9393677D2*
X9467383D1*
X9647609D2*
X10263177D1*
X1104146Y3243260D2*
X1847318D1*
X2027635D2*
X2101341D1*
X2281659D2*
X2355365D1*
X2535682D2*
X2609388D1*
X2789614D2*
X2863321D1*
X3043638D2*
X3117344D1*
X3297661D2*
X3371367D1*
X3551593D2*
X3625391D1*
X3805617D2*
X3879323D1*
X4059640D2*
X4133347D1*
X4313664D2*
X4387370D1*
X4567596D2*
X4641393D1*
X4821619D2*
X4895326D1*
X5075643D2*
X5149349D1*
X5329666D2*
X5403373D1*
X5583599D2*
X5657396D1*
X5837622D2*
X5911328D1*
X6091646D2*
X6291042D1*
X6471359D2*
X6518451D1*
X6853625D2*
X7053021D1*
X7233338D2*
X7307044D1*
X7615604D2*
X7772617D1*
X7994953D2*
X8069024D1*
X8249341D2*
X8323047D1*
X8631880D2*
X8831094D1*
X9393677D2*
X9467383D1*
X9647609D2*
X10263177D1*
X1104146Y3180093D2*
X1847318D1*
X2027635D2*
X2101341D1*
X2281659D2*
X2355365D1*
X2535682D2*
X2609388D1*
X2789614D2*
X2863321D1*
X3043638D2*
X3117344D1*
X3297661D2*
X3371367D1*
X3551593D2*
X3625391D1*
X3805617D2*
X3879323D1*
X4059640D2*
X4133347D1*
X4313664D2*
X4387370D1*
X4567596D2*
X4641393D1*
X4821619D2*
X4895326D1*
X5075643D2*
X5149349D1*
X5329666D2*
X5403373D1*
X5583599D2*
X5657396D1*
X5837622D2*
X5911328D1*
X6091646D2*
X6291042D1*
X6853625D2*
X7053021D1*
X7233338D2*
X7307044D1*
X7615604D2*
X7815091D1*
X7995317D2*
X8069024D1*
X8249341D2*
X8323047D1*
X8631606D2*
X8831094D1*
X9154419D2*
X9213360D1*
X9393677D2*
X9467383D1*
X9647609D2*
X10263177D1*
X1104146Y3116927D2*
X1847318D1*
X2027635D2*
X2101341D1*
X2281659D2*
X2355365D1*
X2535682D2*
X2609388D1*
X2789614D2*
X2863321D1*
X3043638D2*
X3117344D1*
X3297661D2*
X3371367D1*
X3551593D2*
X3625391D1*
X3805617D2*
X3879323D1*
X4059640D2*
X4133347D1*
X4313664D2*
X4387370D1*
X4567596D2*
X4641393D1*
X4821619D2*
X4895326D1*
X5075643D2*
X5149349D1*
X5329666D2*
X5403373D1*
X5583599D2*
X5657396D1*
X5837622D2*
X5911328D1*
X6091646D2*
X6291042D1*
X6641802D2*
X6673399D1*
X6853625D2*
X7053021D1*
X7233338D2*
X7305677D1*
X7615604D2*
X7815091D1*
X7995317D2*
X8069024D1*
X8249341D2*
X8323047D1*
X8631606D2*
X8831094D1*
X9139653D2*
X9213360D1*
X9393677D2*
X9467383D1*
X9647609D2*
X10263177D1*
X1104146Y3053760D2*
X1847318D1*
X2027635D2*
X2101341D1*
X2281659D2*
X2355365D1*
X2535682D2*
X2609388D1*
X2789614D2*
X2863321D1*
X3043638D2*
X3117344D1*
X3297661D2*
X3371367D1*
X3551593D2*
X3625391D1*
X3805617D2*
X3879323D1*
X4059640D2*
X4133347D1*
X4313664D2*
X4387370D1*
X4567596D2*
X4641393D1*
X4821619D2*
X4895326D1*
X5075643D2*
X5149349D1*
X5329666D2*
X5403373D1*
X5583599D2*
X5657396D1*
X5837622D2*
X5911328D1*
X6091646D2*
X6260781D1*
X6599601D2*
X6673399D1*
X6853625D2*
X7053021D1*
X7615604D2*
X7815091D1*
X7995317D2*
X8069024D1*
X8249341D2*
X8323047D1*
X8631606D2*
X8831094D1*
X9139653D2*
X9213360D1*
X9393677D2*
X9467383D1*
X9647609D2*
X10263177D1*
X1104146Y2990593D2*
X1847318D1*
X2027635D2*
X2101341D1*
X2281659D2*
X2355365D1*
X2535682D2*
X2609388D1*
X2789614D2*
X2863321D1*
X3043638D2*
X3117344D1*
X3297661D2*
X3371367D1*
X3551593D2*
X3625391D1*
X3805617D2*
X3879323D1*
X4059640D2*
X4133347D1*
X4313664D2*
X4387370D1*
X4567596D2*
X4641393D1*
X4821619D2*
X4895326D1*
X5075643D2*
X5149349D1*
X5329666D2*
X5403373D1*
X5583599D2*
X5657396D1*
X5837622D2*
X5911328D1*
X6091646D2*
X6197617D1*
X6599601D2*
X6673399D1*
X6853625D2*
X7053021D1*
X7615604D2*
X7815091D1*
X7995317D2*
X8069024D1*
X8249341D2*
X8323047D1*
X8631606D2*
X8831094D1*
X9139653D2*
X9213360D1*
X9393677D2*
X9467383D1*
X9647609D2*
X10263177D1*
X1104146Y2927427D2*
X1847318D1*
X2027635D2*
X2101341D1*
X2281659D2*
X2355365D1*
X2535682D2*
X2609388D1*
X2789614D2*
X2863321D1*
X3043638D2*
X3117344D1*
X3297661D2*
X3371367D1*
X3551593D2*
X3625391D1*
X3805617D2*
X3879323D1*
X4059640D2*
X4133347D1*
X4313664D2*
X4387370D1*
X4567596D2*
X4641393D1*
X4821619D2*
X4895326D1*
X5075643D2*
X5149349D1*
X5329666D2*
X5403373D1*
X5583599D2*
X5657396D1*
X5837622D2*
X5911328D1*
X6091646D2*
X6165443D1*
X6384132D2*
X6419375D1*
X6599601D2*
X6673399D1*
X6853625D2*
X7053021D1*
X7365864D2*
X7435378D1*
X7615604D2*
X7815091D1*
X7995317D2*
X8069024D1*
X8249341D2*
X8323047D1*
X8631606D2*
X8831094D1*
X9139653D2*
X9213360D1*
X9393677D2*
X9467383D1*
X9647609D2*
X10263177D1*
X1104146Y2864260D2*
X1847318D1*
X2027635D2*
X2101341D1*
X2281659D2*
X2355365D1*
X2535682D2*
X2609388D1*
X2789614D2*
X2863321D1*
X3043638D2*
X3117344D1*
X3297661D2*
X3371367D1*
X3551593D2*
X3625391D1*
X3805617D2*
X3879323D1*
X4059640D2*
X4133347D1*
X4313664D2*
X4387370D1*
X4567596D2*
X4641393D1*
X4821619D2*
X4895326D1*
X5075643D2*
X5149349D1*
X5329666D2*
X5403373D1*
X5583599D2*
X5657396D1*
X5837622D2*
X5911328D1*
X6091646D2*
X6165352D1*
X6345669D2*
X6419375D1*
X6599601D2*
X6673399D1*
X6853625D2*
X7053021D1*
X7361672D2*
X7435378D1*
X7615604D2*
X7815091D1*
X7995317D2*
X8069024D1*
X8249341D2*
X8323047D1*
X8631606D2*
X8831094D1*
X9139653D2*
X9213360D1*
X9393677D2*
X9467383D1*
X9647609D2*
X10263177D1*
X1104146Y2801093D2*
X1847318D1*
X2027635D2*
X2101341D1*
X2281659D2*
X2355365D1*
X2535682D2*
X2609388D1*
X2789614D2*
X2863321D1*
X3043638D2*
X3117344D1*
X3297661D2*
X3371367D1*
X3551593D2*
X3625391D1*
X3805617D2*
X3879323D1*
X4059640D2*
X4133347D1*
X4313664D2*
X4387370D1*
X4567596D2*
X4641393D1*
X4821619D2*
X4895326D1*
X5075643D2*
X5149349D1*
X5329666D2*
X5403373D1*
X5583599D2*
X5657396D1*
X5837622D2*
X5911328D1*
X6091646D2*
X6165352D1*
X6345669D2*
X6419375D1*
X6599601D2*
X6673399D1*
X6853625D2*
X7053021D1*
X7361672D2*
X7435378D1*
X7615604D2*
X7815091D1*
X7995317D2*
X8069024D1*
X8249341D2*
X8323047D1*
X8631606D2*
X8831094D1*
X9139653D2*
X9213360D1*
X9393677D2*
X9467383D1*
X9647609D2*
X10263177D1*
X1104146Y2737927D2*
X1847318D1*
X2027635D2*
X2101341D1*
X2281659D2*
X2355365D1*
X2535682D2*
X2609388D1*
X2789614D2*
X2863321D1*
X3043638D2*
X3117344D1*
X3297661D2*
X3371367D1*
X3551593D2*
X3625391D1*
X3805617D2*
X3879323D1*
X4059640D2*
X4133347D1*
X4313664D2*
X4387370D1*
X4567596D2*
X4641393D1*
X4821619D2*
X4895326D1*
X5075643D2*
X5149349D1*
X5329666D2*
X5403373D1*
X5583599D2*
X5657396D1*
X5837622D2*
X5911328D1*
X6091646D2*
X6165352D1*
X6345669D2*
X6419375D1*
X6599601D2*
X6673399D1*
X6853625D2*
X7018021D1*
X7361672D2*
X7435378D1*
X7615604D2*
X7815091D1*
X7995317D2*
X8069024D1*
X8249341D2*
X8323047D1*
X8631606D2*
X8831094D1*
X9139653D2*
X9213360D1*
X9393677D2*
X9467383D1*
X9647609D2*
X10263177D1*
X1104146Y2674760D2*
X1847318D1*
X2027635D2*
X2101341D1*
X2281659D2*
X2355365D1*
X2535682D2*
X2609388D1*
X2789614D2*
X2863321D1*
X3043638D2*
X3117344D1*
X3297661D2*
X3371367D1*
X3551593D2*
X3625391D1*
X3805617D2*
X3879323D1*
X4059640D2*
X4133347D1*
X4313664D2*
X4387370D1*
X4567596D2*
X4641393D1*
X4821619D2*
X4895326D1*
X5075643D2*
X5149349D1*
X5329666D2*
X5403373D1*
X5583599D2*
X5657396D1*
X5837622D2*
X5911328D1*
X6091646D2*
X6165352D1*
X6345669D2*
X6419375D1*
X6599601D2*
X6673399D1*
X6853625D2*
X6954857D1*
X7361672D2*
X7435378D1*
X7615604D2*
X7815091D1*
X7995317D2*
X8069024D1*
X8249341D2*
X8323047D1*
X8631606D2*
X8831094D1*
X9139653D2*
X9213360D1*
X9393677D2*
X9467383D1*
X9647609D2*
X10263177D1*
X1104146Y2611593D2*
X1847318D1*
X2027635D2*
X2101341D1*
X2281659D2*
X2355365D1*
X2535682D2*
X2609388D1*
X2789614D2*
X2863321D1*
X3043638D2*
X3117344D1*
X3297661D2*
X3371367D1*
X3551593D2*
X3625391D1*
X3805617D2*
X3879323D1*
X4059640D2*
X4133347D1*
X4313664D2*
X4387370D1*
X4567596D2*
X4641393D1*
X4821619D2*
X4895326D1*
X5075643D2*
X5149349D1*
X5329666D2*
X5403373D1*
X5583599D2*
X5657396D1*
X5837622D2*
X5911328D1*
X6091646D2*
X6165352D1*
X6345669D2*
X6419375D1*
X6599601D2*
X6673399D1*
X6853625D2*
X6927331D1*
X7141372D2*
X7181354D1*
X7361672D2*
X7435378D1*
X7615604D2*
X7815091D1*
X8244966D2*
X8323047D1*
X8631606D2*
X8815964D1*
X9139653D2*
X9213360D1*
X9393677D2*
X9467383D1*
X9647609D2*
X10263177D1*
X1104146Y2548427D2*
X1847318D1*
X2027635D2*
X2101341D1*
X2281659D2*
X2355365D1*
X2535682D2*
X2609388D1*
X2789614D2*
X2863321D1*
X3043638D2*
X3117344D1*
X3297661D2*
X3371367D1*
X3551593D2*
X3625391D1*
X3805617D2*
X3879323D1*
X4059640D2*
X4133347D1*
X4313664D2*
X4387370D1*
X4567596D2*
X4641393D1*
X4821619D2*
X4895326D1*
X5075643D2*
X5149349D1*
X5329666D2*
X5403373D1*
X5583599D2*
X5657396D1*
X5837622D2*
X5911328D1*
X6091646D2*
X6165352D1*
X6345669D2*
X6419375D1*
X6599601D2*
X6673399D1*
X6853625D2*
X6927331D1*
X7107648D2*
X7181354D1*
X7361672D2*
X7435378D1*
X7615604D2*
X7815091D1*
X8194198D2*
X8291237D1*
X8631606D2*
X8752800D1*
X9139653D2*
X9213360D1*
X9393677D2*
X9467383D1*
X9647609D2*
X10263177D1*
X1104146Y2485260D2*
X1847318D1*
X2027635D2*
X2101341D1*
X2281659D2*
X2355365D1*
X2535682D2*
X2609388D1*
X2789614D2*
X2863321D1*
X3043638D2*
X3117344D1*
X3297661D2*
X3371367D1*
X3551593D2*
X3625391D1*
X3805617D2*
X3879323D1*
X4059640D2*
X4133347D1*
X4313664D2*
X4387370D1*
X4567596D2*
X4641393D1*
X4821619D2*
X4895326D1*
X5075643D2*
X5149349D1*
X5329666D2*
X5403373D1*
X5583599D2*
X5657396D1*
X5837622D2*
X5911328D1*
X6091646D2*
X6165352D1*
X6345669D2*
X6419375D1*
X6599601D2*
X6673399D1*
X6853625D2*
X6927331D1*
X7107648D2*
X7181354D1*
X7361672D2*
X7435378D1*
X7615604D2*
X7815091D1*
X8131034D2*
X8228073D1*
X8631606D2*
X8707500D1*
X8939315D2*
X8959336D1*
X9139653D2*
X9213360D1*
X9393677D2*
X9467383D1*
X9647609D2*
X10263177D1*
X1104146Y2422093D2*
X1847318D1*
X2027635D2*
X2101341D1*
X2281659D2*
X2355365D1*
X2535682D2*
X2609388D1*
X2789614D2*
X2863321D1*
X3043638D2*
X3117344D1*
X3297661D2*
X3371367D1*
X3551593D2*
X3625391D1*
X3805617D2*
X3879323D1*
X4059640D2*
X4133347D1*
X4313664D2*
X4387370D1*
X4567596D2*
X4641393D1*
X4821619D2*
X4895326D1*
X5075643D2*
X5149349D1*
X5329666D2*
X5403373D1*
X5583599D2*
X5657396D1*
X5837622D2*
X5911328D1*
X6091646D2*
X6165352D1*
X6345669D2*
X6419375D1*
X6599601D2*
X6673399D1*
X6853625D2*
X6927331D1*
X7107648D2*
X7181354D1*
X7361672D2*
X7435378D1*
X7615604D2*
X7815091D1*
X8123651D2*
X8197357D1*
X8414588D2*
X8451380D1*
X8631606D2*
X8705313D1*
X8885630D2*
X8959336D1*
X9139653D2*
X9213360D1*
X9393677D2*
X9467383D1*
X9647609D2*
X10263177D1*
X1104146Y2358927D2*
X1787617D1*
X9676593D2*
X10263177D1*
X1104146Y2295760D2*
X1787617D1*
X9705031D2*
X10263177D1*
X1104146Y2232593D2*
X1787617D1*
X9702297D2*
X10263177D1*
X1104146Y2169427D2*
X1787617D1*
X2300070D2*
X2336953D1*
X2554093D2*
X2590977D1*
X2808026D2*
X2844909D1*
X3062049D2*
X3098932D1*
X3316073D2*
X3352956D1*
X3570096D2*
X3606888D1*
X3824028D2*
X3860912D1*
X4078052D2*
X4114935D1*
X4332075D2*
X4368959D1*
X4586099D2*
X4622891D1*
X4840031D2*
X4876914D1*
X5094054D2*
X5130938D1*
X5348078D2*
X5384961D1*
X5602101D2*
X5638893D1*
X5856034D2*
X5892917D1*
X6110057D2*
X6146940D1*
X6364080D2*
X6400964D1*
X6618104D2*
X6654896D1*
X6872036D2*
X6908919D1*
X7126060D2*
X7162943D1*
X7380083D2*
X7416966D1*
X7634015D2*
X7670899D1*
X8142062D2*
X8178946D1*
X8396086D2*
X8432969D1*
X8650018D2*
X8686901D1*
X8904041D2*
X8940925D1*
X9158065D2*
X9194948D1*
X9412088D2*
X9448972D1*
X9666021D2*
X10263177D1*
X1104146Y2106260D2*
X1847318D1*
X2027635D2*
X2101341D1*
X2281659D2*
X2355365D1*
X2535682D2*
X2609388D1*
X2789614D2*
X2863321D1*
X3043638D2*
X3117344D1*
X3297661D2*
X3371367D1*
X3551593D2*
X3625391D1*
X3805617D2*
X3879323D1*
X4059640D2*
X4133347D1*
X4313664D2*
X4387370D1*
X4567596D2*
X4641393D1*
X4821619D2*
X4895326D1*
X5075643D2*
X5149349D1*
X5329666D2*
X5403373D1*
X5583599D2*
X5657396D1*
X5837622D2*
X5911328D1*
X6091646D2*
X6165352D1*
X6345669D2*
X6419375D1*
X6599601D2*
X6673399D1*
X6853625D2*
X6927331D1*
X7107648D2*
X7181354D1*
X7361672D2*
X7435378D1*
X7615604D2*
X7689401D1*
X8123651D2*
X8197357D1*
X8377674D2*
X8451380D1*
X8631606D2*
X8705313D1*
X8885630D2*
X8959336D1*
X9139653D2*
X9213360D1*
X9393677D2*
X9467383D1*
X9647609D2*
X10263177D1*
X1104146Y2043093D2*
X1847318D1*
X2027635D2*
X2101341D1*
X2281659D2*
X2355365D1*
X2535682D2*
X2609388D1*
X2789614D2*
X2863321D1*
X3043638D2*
X3117344D1*
X3297661D2*
X3371367D1*
X3551593D2*
X3625391D1*
X3805617D2*
X3879323D1*
X4059640D2*
X4133347D1*
X4313664D2*
X4387370D1*
X4567596D2*
X4641393D1*
X4821619D2*
X4895326D1*
X5075643D2*
X5149349D1*
X5329666D2*
X5403373D1*
X5583599D2*
X5657396D1*
X5837622D2*
X5911328D1*
X6091646D2*
X6165352D1*
X6345669D2*
X6419375D1*
X6599601D2*
X6673399D1*
X6853625D2*
X6927331D1*
X7107648D2*
X7181354D1*
X7361672D2*
X7435378D1*
X7615604D2*
X7689401D1*
X8123651D2*
X8197357D1*
X8377674D2*
X8451380D1*
X8631606D2*
X8705313D1*
X8885630D2*
X8959336D1*
X9139653D2*
X9213360D1*
X9393677D2*
X9467383D1*
X9647609D2*
X10263177D1*
X1104146Y1979927D2*
X1791537D1*
X2024901D2*
X2045615D1*
X2278924D2*
X2315534D1*
X2786971D2*
X2839440D1*
X3295018D2*
X3315768D1*
X3548950D2*
X3585651D1*
X3805526D2*
X3839675D1*
X4059458D2*
X4109557D1*
X4565044D2*
X4601745D1*
X4821528D2*
X4855768D1*
X5075461D2*
X5125651D1*
X5329666D2*
X5395534D1*
X5583599D2*
X5649557D1*
X5837622D2*
X5871862D1*
X6091463D2*
X6141745D1*
X6345669D2*
X6395768D1*
X6599601D2*
X6649792D1*
X6853625D2*
X6887956D1*
X7107466D2*
X7141979D1*
X7361489D2*
X7411953D1*
X7615604D2*
X7650026D1*
X8123468D2*
X8158073D1*
X8377492D2*
X8412188D1*
X8631515D2*
X8682071D1*
X8885630D2*
X8936094D1*
X9139653D2*
X9174258D1*
X9393494D2*
X9444141D1*
X9647609D2*
X10263177D1*
X1104146Y1916760D2*
X1731745D1*
X2232166D2*
X2252261D1*
X2740213D2*
X2776276D1*
X3502284D2*
X3522487D1*
X4026190D2*
X4046436D1*
X4518377D2*
X4538554D1*
X5042284D2*
X5062487D1*
X5311437D2*
X5332459D1*
X6058377D2*
X6078554D1*
X7328494D2*
X7348789D1*
X8598703D2*
X8618947D1*
X9360773D2*
X9380977D1*
X9629836D2*
X10263177D1*
X1104146Y1853593D2*
X1719531D1*
X9674406D2*
X10263177D1*
X1104146Y1790427D2*
X1719531D1*
X9704484D2*
X10263177D1*
X1104146Y1727260D2*
X1719531D1*
X9703026D2*
X10263177D1*
X1104146Y1664093D2*
X1719531D1*
X9668664D2*
X10263177D1*
X1104146Y1600927D2*
X1719531D1*
X1899849D2*
X1973555D1*
X2153872D2*
X2227578D1*
X2407896D2*
X2481693D1*
X2661919D2*
X2735716D1*
X2915942D2*
X2989740D1*
X3169966D2*
X3243763D1*
X3423989D2*
X3481836D1*
X3662153D2*
X3751810D1*
X3932036D2*
X4005834D1*
X4186060D2*
X4259857D1*
X4440083D2*
X4513880D1*
X4694106D2*
X4767904D1*
X4948130D2*
X5021927D1*
X5202153D2*
X5275951D1*
X5456268D2*
X5529974D1*
X5710291D2*
X5783998D1*
X5964315D2*
X6038021D1*
X6218338D2*
X6292044D1*
X6472362D2*
X6546068D1*
X6726385D2*
X6800091D1*
X6980409D2*
X7054115D1*
X7234432D2*
X7308138D1*
X7488455D2*
X7562162D1*
X7742479D2*
X7832044D1*
X8012362D2*
X8070209D1*
X8250526D2*
X8324232D1*
X8504549D2*
X8578255D1*
X8758573D2*
X8832279D1*
X9012596D2*
X9086302D1*
X9266619D2*
X9340326D1*
X9520643D2*
X10263177D1*
X1104146Y1537760D2*
X1612435D1*
X9520643D2*
X10263177D1*
X1104146Y1474593D2*
X1557383D1*
X9503963D2*
X10263177D1*
X1104146Y1411427D2*
X1543985D1*
X9473247D2*
X10263177D1*
X1104146Y1348260D2*
X1558750D1*
X9458390D2*
X10263177D1*
X1104146Y1285093D2*
X1543893D1*
X2036659D2*
X2122487D1*
X2290591D2*
X2376511D1*
X2544614D2*
X2630534D1*
X2798638D2*
X2884557D1*
X3052661D2*
X3138490D1*
X3306593D2*
X3392513D1*
X3560617D2*
X3646537D1*
X3814640D2*
X3900560D1*
X4068664D2*
X4154492D1*
X4322596D2*
X4408516D1*
X4576619D2*
X4662539D1*
X4830643D2*
X4916563D1*
X5084666D2*
X5170495D1*
X5338599D2*
X5424518D1*
X5592622D2*
X5678542D1*
X5846646D2*
X5932474D1*
X6100669D2*
X6186498D1*
X6354601D2*
X6440521D1*
X6608625D2*
X6694544D1*
X6862648D2*
X6948477D1*
X7116672D2*
X7202500D1*
X7370604D2*
X7456524D1*
X7624627D2*
X7710547D1*
X7878651D2*
X7964479D1*
X8132674D2*
X8218503D1*
X8386606D2*
X8472526D1*
X8640630D2*
X8726550D1*
X8894653D2*
X8980482D1*
X9148586D2*
X9234505D1*
X9402609D2*
X10263177D1*
X1104146Y1221927D2*
X1543893D1*
X9459119D2*
X10263177D1*
X1104146Y1158760D2*
X1543893D1*
X9473247D2*
X10263177D1*
X1594618Y1307103D2*
X1585813Y1316487D1*
X1572135Y1335312D1*
X1561571Y1356045D1*
X1554381Y1378176D1*
X1550740Y1401159D1*
Y1424428D1*
X1554381Y1447411D1*
X1561571Y1469541D1*
X1572135Y1490275D1*
X1585813Y1509100D1*
X1602267Y1525554D1*
X1621092Y1539231D1*
X1641825Y1549795D1*
X1663956Y1556986D1*
X1686939Y1560626D1*
X1710208D1*
X1725741Y1558468D1*
X1725920Y1873217D1*
X1726951Y1886324D1*
X1730021Y1899109D1*
X1735052Y1911257D1*
X1741922Y1922467D1*
X1750480Y1932483D1*
X1853646Y2035649D1*
X1853707Y2126693D1*
X1794007Y2126643D1*
Y2413623D1*
X1853707D1*
X1853965Y3578131D1*
X1856022Y3591117D1*
X1860085Y3603621D1*
X1866054Y3615337D1*
X1873782Y3625974D1*
X1930259Y3682816D1*
X1915050Y3684377D1*
X1893156Y3689633D1*
X1872354Y3698249D1*
X1853155Y3710014D1*
X1836034Y3724637D1*
X1821411Y3741759D1*
X1809646Y3760957D1*
X1801030Y3781759D1*
X1795773Y3803653D1*
X1794007Y3826100D1*
X1795773Y3848547D1*
X1801030Y3870441D1*
X1809646Y3891243D1*
X1821411Y3910441D1*
X1836034Y3927563D1*
X1853155Y3942186D1*
X1872354Y3953951D1*
X1893156Y3962567D1*
X1915050Y3967823D1*
X1937497Y3969590D1*
X1959943Y3967823D1*
X1979423Y3963248D1*
X1979409Y4044798D1*
X1873782Y4150842D1*
X1866054Y4161479D1*
X1860085Y4173195D1*
X1856017Y4185724D1*
X1847653Y4190610D1*
X1794007D1*
Y4477590D1*
X2080987D1*
Y4425546D1*
X2090034Y4435563D1*
X2107155Y4450186D1*
X2126354Y4461951D1*
X2147156Y4470567D1*
X2169050Y4475823D1*
X2191497Y4477590D1*
X2213943Y4475823D1*
X2235838Y4470567D1*
X2256640Y4461951D1*
X2275838Y4450186D1*
X2292959Y4435563D1*
X2307583Y4418441D1*
X2318466Y4400817D1*
X2329411Y4418441D1*
X2344034Y4435563D1*
X2361155Y4450186D1*
X2380354Y4461951D1*
X2401156Y4470567D1*
X2423050Y4475823D1*
X2445497Y4477590D1*
X2467943Y4475823D1*
X2489838Y4470567D1*
X2510640Y4461951D1*
X2529838Y4450186D1*
X2546959Y4435563D1*
X2561583Y4418441D1*
X2572466Y4400817D1*
X2583411Y4418441D1*
X2598034Y4435563D1*
X2615155Y4450186D1*
X2634354Y4461951D1*
X2655156Y4470567D1*
X2677050Y4475823D1*
X2699497Y4477590D1*
X2721943Y4475823D1*
X2743838Y4470567D1*
X2764640Y4461951D1*
X2783838Y4450186D1*
X2800959Y4435563D1*
X2815583Y4418441D1*
X2826466Y4400817D1*
X2837411Y4418441D1*
X2852034Y4435563D1*
X2869155Y4450186D1*
X2888354Y4461951D1*
X2909156Y4470567D1*
X2931050Y4475823D1*
X2953497Y4477590D1*
X2975943Y4475823D1*
X2997838Y4470567D1*
X3018640Y4461951D1*
X3037838Y4450186D1*
X3054959Y4435563D1*
X3069583Y4418441D1*
X3080466Y4400817D1*
X3091411Y4418441D1*
X3106034Y4435563D1*
X3123155Y4450186D1*
X3142354Y4461951D1*
X3163156Y4470567D1*
X3185050Y4475823D1*
X3207497Y4477590D1*
X3229943Y4475823D1*
X3251838Y4470567D1*
X3272640Y4461951D1*
X3291838Y4450186D1*
X3308959Y4435563D1*
X3323583Y4418441D1*
X3334466Y4400817D1*
X3345411Y4418441D1*
X3360034Y4435563D1*
X3377155Y4450186D1*
X3396354Y4461951D1*
X3417156Y4470567D1*
X3439050Y4475823D1*
X3461497Y4477590D1*
X3483943Y4475823D1*
X3505838Y4470567D1*
X3526640Y4461951D1*
X3545838Y4450186D1*
X3562959Y4435563D1*
X3577583Y4418441D1*
X3588466Y4400817D1*
X3599411Y4418441D1*
X3614034Y4435563D1*
X3631155Y4450186D1*
X3650354Y4461951D1*
X3671156Y4470567D1*
X3693050Y4475823D1*
X3715497Y4477590D1*
X3737943Y4475823D1*
X3759838Y4470567D1*
X3780640Y4461951D1*
X3799838Y4450186D1*
X3816959Y4435563D1*
X3831583Y4418441D1*
X3842466Y4400817D1*
X3853411Y4418441D1*
X3868034Y4435563D1*
X3885155Y4450186D1*
X3904354Y4461951D1*
X3925156Y4470567D1*
X3947050Y4475823D1*
X3969497Y4477590D1*
X3991943Y4475823D1*
X4013838Y4470567D1*
X4034640Y4461951D1*
X4053838Y4450186D1*
X4070959Y4435563D1*
X4085583Y4418441D1*
X4096466Y4400817D1*
X4107411Y4418441D1*
X4122034Y4435563D1*
X4139155Y4450186D1*
X4158354Y4461951D1*
X4179156Y4470567D1*
X4201050Y4475823D1*
X4223497Y4477590D1*
X4245943Y4475823D1*
X4267838Y4470567D1*
X4288640Y4461951D1*
X4307838Y4450186D1*
X4324959Y4435563D1*
X4339583Y4418441D1*
X4350466Y4400817D1*
X4361411Y4418441D1*
X4376034Y4435563D1*
X4393155Y4450186D1*
X4412354Y4461951D1*
X4433156Y4470567D1*
X4455050Y4475823D1*
X4477497Y4477590D1*
X4499943Y4475823D1*
X4521838Y4470567D1*
X4542640Y4461951D1*
X4561838Y4450186D1*
X4578959Y4435563D1*
X4593583Y4418441D1*
X4604466Y4400817D1*
X4615411Y4418441D1*
X4630034Y4435563D1*
X4647155Y4450186D1*
X4666354Y4461951D1*
X4687156Y4470567D1*
X4709050Y4475823D1*
X4731497Y4477590D1*
X4753943Y4475823D1*
X4775838Y4470567D1*
X4796640Y4461951D1*
X4815838Y4450186D1*
X4832959Y4435563D1*
X4847583Y4418441D1*
X4858466Y4400817D1*
X4869411Y4418441D1*
X4884034Y4435563D1*
X4901155Y4450186D1*
X4920354Y4461951D1*
X4941156Y4470567D1*
X4963050Y4475823D1*
X4985497Y4477590D1*
X5007943Y4475823D1*
X5029838Y4470567D1*
X5050640Y4461951D1*
X5069838Y4450186D1*
X5086959Y4435563D1*
X5101583Y4418441D1*
X5112466Y4400817D1*
X5123411Y4418441D1*
X5138034Y4435563D1*
X5155155Y4450186D1*
X5174354Y4461951D1*
X5195156Y4470567D1*
X5217050Y4475823D1*
X5239497Y4477590D1*
X5261943Y4475823D1*
X5283838Y4470567D1*
X5304640Y4461951D1*
X5323838Y4450186D1*
X5340959Y4435563D1*
X5355583Y4418441D1*
X5366466Y4400817D1*
X5377411Y4418441D1*
X5392034Y4435563D1*
X5409155Y4450186D1*
X5428354Y4461951D1*
X5449156Y4470567D1*
X5471050Y4475823D1*
X5493497Y4477590D1*
X5515943Y4475823D1*
X5537838Y4470567D1*
X5558640Y4461951D1*
X5577838Y4450186D1*
X5594959Y4435563D1*
X5609583Y4418441D1*
X5620466Y4400817D1*
X5631411Y4418441D1*
X5646034Y4435563D1*
X5663155Y4450186D1*
X5682354Y4461951D1*
X5703156Y4470567D1*
X5725050Y4475823D1*
X5747497Y4477590D1*
X5769943Y4475823D1*
X5791838Y4470567D1*
X5812640Y4461951D1*
X5831838Y4450186D1*
X5848959Y4435563D1*
X5863583Y4418441D1*
X5874466Y4400817D1*
X5885411Y4418441D1*
X5900034Y4435563D1*
X5917155Y4450186D1*
X5936354Y4461951D1*
X5957156Y4470567D1*
X5979050Y4475823D1*
X6001497Y4477590D1*
X6023943Y4475823D1*
X6045838Y4470567D1*
X6066640Y4461951D1*
X6085838Y4450186D1*
X6102959Y4435563D1*
X6117583Y4418441D1*
X6128466Y4400817D1*
X6139411Y4418441D1*
X6154034Y4435563D1*
X6171155Y4450186D1*
X6190354Y4461951D1*
X6211156Y4470567D1*
X6233050Y4475823D1*
X6255497Y4477590D1*
X6277943Y4475823D1*
X6299838Y4470567D1*
X6320640Y4461951D1*
X6339838Y4450186D1*
X6356959Y4435563D1*
X6371583Y4418441D1*
X6382466Y4400817D1*
X6393411Y4418441D1*
X6408034Y4435563D1*
X6425155Y4450186D1*
X6444354Y4461951D1*
X6465156Y4470567D1*
X6487050Y4475823D1*
X6509497Y4477590D1*
X6531943Y4475823D1*
X6553838Y4470567D1*
X6574640Y4461951D1*
X6593838Y4450186D1*
X6610959Y4435563D1*
X6625583Y4418441D1*
X6636466Y4400817D1*
X6647411Y4418441D1*
X6662034Y4435563D1*
X6679155Y4450186D1*
X6698354Y4461951D1*
X6719156Y4470567D1*
X6741050Y4475823D1*
X6763497Y4477590D1*
X6785943Y4475823D1*
X6807838Y4470567D1*
X6828640Y4461951D1*
X6847838Y4450186D1*
X6864959Y4435563D1*
X6879583Y4418441D1*
X6890466Y4400817D1*
X6901411Y4418441D1*
X6916034Y4435563D1*
X6933155Y4450186D1*
X6952354Y4461951D1*
X6973156Y4470567D1*
X6995050Y4475823D1*
X7017497Y4477590D1*
X7039943Y4475823D1*
X7061838Y4470567D1*
X7082640Y4461951D1*
X7101838Y4450186D1*
X7118959Y4435563D1*
X7133583Y4418441D1*
X7144466Y4400817D1*
X7155411Y4418441D1*
X7170034Y4435563D1*
X7187155Y4450186D1*
X7206354Y4461951D1*
X7227156Y4470567D1*
X7249050Y4475823D1*
X7271497Y4477590D1*
X7293943Y4475823D1*
X7315838Y4470567D1*
X7336640Y4461951D1*
X7355838Y4450186D1*
X7372959Y4435563D1*
X7387583Y4418441D1*
X7398466Y4400817D1*
X7409411Y4418441D1*
X7424034Y4435563D1*
X7441155Y4450186D1*
X7460354Y4461951D1*
X7481156Y4470567D1*
X7503050Y4475823D1*
X7525497Y4477590D1*
X7547943Y4475823D1*
X7569838Y4470567D1*
X7590640Y4461951D1*
X7609838Y4450186D1*
X7626959Y4435563D1*
X7641583Y4418441D1*
X7652466Y4400817D1*
X7663411Y4418441D1*
X7678034Y4435563D1*
X7695155Y4450186D1*
X7714354Y4461951D1*
X7735156Y4470567D1*
X7757050Y4475823D1*
X7779497Y4477590D1*
X7801943Y4475823D1*
X7823838Y4470567D1*
X7844640Y4461951D1*
X7863838Y4450186D1*
X7880959Y4435563D1*
X7895583Y4418441D1*
X7906466Y4400817D1*
X7917411Y4418441D1*
X7932034Y4435563D1*
X7949155Y4450186D1*
X7968354Y4461951D1*
X7989156Y4470567D1*
X8011050Y4475823D1*
X8033497Y4477590D1*
X8055943Y4475823D1*
X8077838Y4470567D1*
X8098640Y4461951D1*
X8117838Y4450186D1*
X8134959Y4435563D1*
X8149583Y4418441D1*
X8160466Y4400817D1*
X8171411Y4418441D1*
X8186034Y4435563D1*
X8203155Y4450186D1*
X8222354Y4461951D1*
X8243156Y4470567D1*
X8265050Y4475823D1*
X8287497Y4477590D1*
X8309943Y4475823D1*
X8331838Y4470567D1*
X8352640Y4461951D1*
X8371838Y4450186D1*
X8388959Y4435563D1*
X8403583Y4418441D1*
X8414466Y4400817D1*
X8425411Y4418441D1*
X8440034Y4435563D1*
X8457155Y4450186D1*
X8476354Y4461951D1*
X8497156Y4470567D1*
X8519050Y4475823D1*
X8541497Y4477590D1*
X8563943Y4475823D1*
X8585838Y4470567D1*
X8606640Y4461951D1*
X8625838Y4450186D1*
X8642959Y4435563D1*
X8657583Y4418441D1*
X8668466Y4400817D1*
X8679411Y4418441D1*
X8694034Y4435563D1*
X8711155Y4450186D1*
X8730354Y4461951D1*
X8751156Y4470567D1*
X8773050Y4475823D1*
X8795497Y4477590D1*
X8817943Y4475823D1*
X8839838Y4470567D1*
X8860640Y4461951D1*
X8879838Y4450186D1*
X8896959Y4435563D1*
X8911583Y4418441D1*
X8922466Y4400817D1*
X8933411Y4418441D1*
X8948034Y4435563D1*
X8965155Y4450186D1*
X8984354Y4461951D1*
X9005156Y4470567D1*
X9027050Y4475823D1*
X9049497Y4477590D1*
X9071943Y4475823D1*
X9093838Y4470567D1*
X9114640Y4461951D1*
X9133838Y4450186D1*
X9150959Y4435563D1*
X9165583Y4418441D1*
X9176466Y4400817D1*
X9187411Y4418441D1*
X9202034Y4435563D1*
X9219155Y4450186D1*
X9238354Y4461951D1*
X9259156Y4470567D1*
X9281050Y4475823D1*
X9303497Y4477590D1*
X9325943Y4475823D1*
X9347838Y4470567D1*
X9368640Y4461951D1*
X9387838Y4450186D1*
X9404959Y4435563D1*
X9419583Y4418441D1*
X9430466Y4400817D1*
X9441411Y4418441D1*
X9456034Y4435563D1*
X9473155Y4450186D1*
X9492354Y4461951D1*
X9513156Y4470567D1*
X9535050Y4475823D1*
X9557497Y4477590D1*
X9579943Y4475823D1*
X9601838Y4470567D1*
X9622640Y4461951D1*
X9641838Y4450186D1*
X9658959Y4435563D1*
X9673583Y4418441D1*
X9685347Y4399243D1*
X9693964Y4378441D1*
X9699220Y4356547D1*
X9700987Y4334100D1*
X9699220Y4311653D1*
X9693964Y4289759D1*
X9685347Y4268957D1*
X9673583Y4249759D1*
X9658959Y4232637D1*
X9641289Y4217647D1*
X9641287Y4177056D1*
X9746914Y4071135D1*
X9754642Y4060498D1*
X9760611Y4048782D1*
X9764674Y4036278D1*
X9766731Y4023292D1*
X9766989Y3853384D1*
X9766731Y3690685D1*
X9764674Y3677699D1*
X9760611Y3665194D1*
X9754642Y3653479D1*
X9746914Y3642842D1*
X9641326Y3536889D1*
X9641287Y2386569D1*
X9658959Y2371596D1*
X9673583Y2354475D1*
X9685347Y2335276D1*
X9693964Y2314474D1*
X9699220Y2292580D1*
X9700987Y2270133D1*
X9699220Y2247687D1*
X9693964Y2225792D1*
X9685347Y2204990D1*
X9673583Y2185792D1*
X9658959Y2168671D1*
X9641289Y2153681D1*
X9641029Y1961876D1*
X9638972Y1948890D1*
X9634909Y1936385D1*
X9628940Y1924670D1*
X9621211Y1914033D1*
X9605080Y1897536D1*
X9622640Y1889984D1*
X9641838Y1878219D1*
X9658959Y1863596D1*
X9673583Y1846475D1*
X9685347Y1827276D1*
X9693964Y1806474D1*
X9699220Y1784580D1*
X9700987Y1762133D1*
X9699220Y1739687D1*
X9693964Y1717792D1*
X9685347Y1696990D1*
X9673583Y1677792D1*
X9658959Y1660671D1*
X9641838Y1646047D1*
X9622640Y1634283D1*
X9601838Y1625666D1*
X9579943Y1620410D1*
X9557497Y1618643D1*
X9535050Y1620410D1*
X9514299Y1625344D1*
X9514042Y1518156D1*
X9511985Y1505170D1*
X9507922Y1492665D1*
X9501953Y1480950D1*
X9494225Y1470312D1*
X9464301Y1440024D1*
X9466406Y1424428D1*
Y1401159D1*
X9462766Y1378176D1*
X9455575Y1356045D1*
X9445011Y1335312D1*
X9431334Y1316487D1*
X9414880Y1300033D1*
X9396055Y1286355D1*
X9395063Y1285800D1*
X9405736Y1278762D1*
X9423430Y1263650D1*
X9438542Y1245956D1*
X9450701Y1226116D1*
X9459606Y1204617D1*
X9465038Y1181991D1*
X9466863Y1158793D1*
X9465038Y1135596D1*
X9459606Y1112969D1*
X9453614Y1097791D1*
X10269450Y1097750D1*
X10269483Y4569737D1*
X1097783Y4569760D1*
X1097750Y1097773D1*
X1550258Y1097750D1*
X1550283Y1307083D1*
X1594489D1*
X2079567Y1336304D2*
X2072542Y1325631D1*
X2057430Y1307936D1*
X2039736Y1292824D1*
X2029063Y1285800D1*
X2039736Y1278762D1*
X2057430Y1263650D1*
X2072542Y1245956D1*
X2079567Y1235283D1*
X2086604Y1245956D1*
X2101716Y1263650D1*
X2119411Y1278762D1*
X2130084Y1285787D1*
X2119411Y1292824D1*
X2101716Y1307936D1*
X2086604Y1325631D1*
X2079580Y1336304D1*
X1893471Y1548710D2*
X1906749Y1553826D1*
X1929376Y1559258D1*
X1952573Y1561083D1*
X1975771Y1559258D1*
X1979741Y1558468D1*
X1979946Y1625037D1*
X1959943Y1620410D1*
X1937497Y1618643D1*
X1915050Y1620410D1*
X1893537Y1625559D1*
X1893500Y1548829D1*
X2333567Y1336304D2*
X2326542Y1325631D1*
X2311430Y1307936D1*
X2293736Y1292824D1*
X2283063Y1285800D1*
X2293736Y1278762D1*
X2311430Y1263650D1*
X2326542Y1245956D1*
X2333567Y1235283D1*
X2340604Y1245956D1*
X2355716Y1263650D1*
X2373411Y1278762D1*
X2384084Y1285787D1*
X2373411Y1292824D1*
X2355716Y1307936D1*
X2340604Y1325631D1*
X2333580Y1336304D1*
X2147553Y1548748D2*
X2160749Y1553826D1*
X2183376Y1559258D1*
X2206573Y1561083D1*
X2229771Y1559258D1*
X2233741Y1558468D1*
X2233973Y1625064D1*
X2213943Y1620410D1*
X2191497Y1618643D1*
X2169050Y1620410D1*
X2147537Y1625559D1*
X2147527Y1548829D1*
X2587567Y1336304D2*
X2580542Y1325631D1*
X2565430Y1307936D1*
X2547736Y1292824D1*
X2537063Y1285800D1*
X2547736Y1278762D1*
X2565430Y1263650D1*
X2580542Y1245956D1*
X2587567Y1235283D1*
X2594604Y1245956D1*
X2609716Y1263650D1*
X2627411Y1278762D1*
X2638084Y1285787D1*
X2627411Y1292824D1*
X2609716Y1307936D1*
X2594604Y1325631D1*
X2587580Y1336304D1*
X2401553Y1548748D2*
X2414749Y1553826D1*
X2437376Y1559258D1*
X2460573Y1561083D1*
X2483771Y1559258D1*
X2487741Y1558468D1*
X2488000Y1625091D1*
X2467943Y1620410D1*
X2445497Y1618643D1*
X2423050Y1620410D1*
X2401537Y1625559D1*
X2401553Y1548811D1*
X2841567Y1336304D2*
X2834542Y1325631D1*
X2819430Y1307936D1*
X2801736Y1292824D1*
X2791063Y1285800D1*
X2801736Y1278762D1*
X2819430Y1263650D1*
X2834542Y1245956D1*
X2841567Y1235283D1*
X2848604Y1245956D1*
X2863716Y1263650D1*
X2881411Y1278762D1*
X2892084Y1285787D1*
X2881411Y1292824D1*
X2863716Y1307936D1*
X2848604Y1325631D1*
X2841580Y1336304D1*
X2655553Y1548748D2*
X2668749Y1553826D1*
X2691376Y1559258D1*
X2714573Y1561083D1*
X2737771Y1559258D1*
X2741741Y1558468D1*
X2742027Y1625117D1*
X2721943Y1620410D1*
X2699497Y1618643D1*
X2677050Y1620410D1*
X2655622Y1625535D1*
X2655580Y1548829D1*
X3095567Y1336304D2*
X3088542Y1325631D1*
X3073430Y1307936D1*
X3055736Y1292824D1*
X3045063Y1285800D1*
X3055736Y1278762D1*
X3073430Y1263650D1*
X3088542Y1245956D1*
X3095567Y1235283D1*
X3102604Y1245956D1*
X3117716Y1263650D1*
X3135411Y1278762D1*
X3146084Y1285787D1*
X3135411Y1292824D1*
X3117716Y1307936D1*
X3102604Y1325631D1*
X3095580Y1336304D1*
X2909636Y1548786D2*
X2922749Y1553826D1*
X2945376Y1559258D1*
X2968573Y1561083D1*
X2991771Y1559258D1*
X2995741Y1558468D1*
X2996053Y1625144D1*
X2975943Y1620410D1*
X2953497Y1618643D1*
X2931050Y1620410D1*
X2909622Y1625535D1*
X2909607Y1548794D1*
X3349567Y1336304D2*
X3342542Y1325631D1*
X3327430Y1307936D1*
X3309736Y1292824D1*
X3299063Y1285800D1*
X3309736Y1278762D1*
X3327430Y1263650D1*
X3342542Y1245956D1*
X3349567Y1235283D1*
X3356604Y1245956D1*
X3371716Y1263650D1*
X3389411Y1278762D1*
X3400084Y1285787D1*
X3389411Y1292824D1*
X3371716Y1307936D1*
X3356604Y1325631D1*
X3349580Y1336304D1*
X3163636Y1548786D2*
X3176749Y1553826D1*
X3199376Y1559258D1*
X3222573Y1561083D1*
X3245771Y1559258D1*
X3249741Y1558468D1*
X3250080Y1625171D1*
X3229943Y1620410D1*
X3207497Y1618643D1*
X3185050Y1620410D1*
X3163622Y1625535D1*
X3163634Y1548829D1*
X3603567Y1336304D2*
X3596542Y1325631D1*
X3581430Y1307936D1*
X3563736Y1292824D1*
X3553063Y1285800D1*
X3563736Y1278762D1*
X3581430Y1263650D1*
X3596542Y1245956D1*
X3603567Y1235283D1*
X3610604Y1245956D1*
X3625716Y1263650D1*
X3643411Y1278762D1*
X3654084Y1285787D1*
X3643411Y1292824D1*
X3625716Y1307936D1*
X3610604Y1325631D1*
X3603580Y1336304D1*
X3417636Y1548786D2*
X3430749Y1553826D1*
X3453376Y1559258D1*
X3476573Y1561083D1*
X3488253Y1560621D1*
X3488230Y1621170D1*
X3472755Y1619086D1*
X3450239D1*
X3428000Y1622608D1*
X3417622Y1625535D1*
X3417660Y1548829D1*
X3857567Y1336304D2*
X3850542Y1325631D1*
X3835430Y1307936D1*
X3817736Y1292824D1*
X3807063Y1285800D1*
X3817736Y1278762D1*
X3835430Y1263650D1*
X3850542Y1245956D1*
X3857567Y1235283D1*
X3864604Y1245956D1*
X3879716Y1263650D1*
X3897411Y1278762D1*
X3908084Y1285787D1*
X3897411Y1292824D1*
X3879716Y1307936D1*
X3864604Y1325631D1*
X3857580Y1336304D1*
X3655830Y1540765D2*
X3673825Y1549795D1*
X3695956Y1556986D1*
X3718939Y1560626D1*
X3742208D1*
X3757741Y1558468D1*
X3758133Y1625042D1*
X3737943Y1620410D1*
X3715497Y1618643D1*
X3693050Y1620410D1*
X3671156Y1625666D1*
X3655810Y1631463D1*
Y1540773D1*
X4111567Y1336304D2*
X4104542Y1325631D1*
X4089430Y1307936D1*
X4071736Y1292824D1*
X4061063Y1285800D1*
X4071736Y1278762D1*
X4089430Y1263650D1*
X4104542Y1245956D1*
X4111567Y1235283D1*
X4118604Y1245956D1*
X4133716Y1263650D1*
X4151411Y1278762D1*
X4162084Y1285787D1*
X4151411Y1292824D1*
X4133716Y1307936D1*
X4118604Y1325631D1*
X4111580Y1336304D1*
X3925719Y1548824D2*
X3938749Y1553826D1*
X3961376Y1559258D1*
X3984573Y1561083D1*
X4007771Y1559258D1*
X4011741Y1558468D1*
X4012160Y1625068D1*
X3991943Y1620410D1*
X3969497Y1618643D1*
X3947050Y1620410D1*
X3925706Y1625511D1*
X3925714Y1548811D1*
X4365567Y1336304D2*
X4358542Y1325631D1*
X4343430Y1307936D1*
X4325736Y1292824D1*
X4315063Y1285800D1*
X4325736Y1278762D1*
X4343430Y1263650D1*
X4358542Y1245956D1*
X4365567Y1235283D1*
X4372604Y1245956D1*
X4387716Y1263650D1*
X4405411Y1278762D1*
X4416084Y1285787D1*
X4405411Y1292824D1*
X4387716Y1307936D1*
X4372604Y1325631D1*
X4365580Y1336304D1*
X4179719Y1548824D2*
X4192749Y1553826D1*
X4215376Y1559258D1*
X4238573Y1561083D1*
X4261771Y1559258D1*
X4265741Y1558468D1*
X4266186Y1625095D1*
X4245943Y1620410D1*
X4223497Y1618643D1*
X4201050Y1620410D1*
X4179706Y1625511D1*
X4179740Y1548976D1*
X4619567Y1336304D2*
X4612542Y1325631D1*
X4597430Y1307936D1*
X4579736Y1292824D1*
X4569063Y1285800D1*
X4579736Y1278762D1*
X4597430Y1263650D1*
X4612542Y1245956D1*
X4619567Y1235283D1*
X4626604Y1245956D1*
X4641716Y1263650D1*
X4659411Y1278762D1*
X4670084Y1285787D1*
X4659411Y1292824D1*
X4641716Y1307936D1*
X4626604Y1325631D1*
X4619580Y1336304D1*
X4433801Y1548862D2*
X4446749Y1553826D1*
X4469376Y1559258D1*
X4492573Y1561083D1*
X4515771Y1559258D1*
X4519741Y1558468D1*
X4520213Y1625122D1*
X4499943Y1620410D1*
X4477497Y1618643D1*
X4455050Y1620410D1*
X4433791Y1625487D1*
X4433767Y1549011D1*
X4873567Y1336304D2*
X4866542Y1325631D1*
X4851430Y1307936D1*
X4833736Y1292824D1*
X4823063Y1285800D1*
X4833736Y1278762D1*
X4851430Y1263650D1*
X4866542Y1245956D1*
X4873567Y1235283D1*
X4880604Y1245956D1*
X4895716Y1263650D1*
X4913411Y1278762D1*
X4924084Y1285787D1*
X4913411Y1292824D1*
X4895716Y1307936D1*
X4880604Y1325631D1*
X4873580Y1336304D1*
X4687801Y1548862D2*
X4700749Y1553826D1*
X4723376Y1559258D1*
X4746573Y1561083D1*
X4769771Y1559258D1*
X4773741Y1558468D1*
X4774240Y1625148D1*
X4753943Y1620410D1*
X4731497Y1618643D1*
X4709050Y1620410D1*
X4687791Y1625487D1*
X4687793Y1548994D1*
X5127567Y1336304D2*
X5120542Y1325631D1*
X5105430Y1307936D1*
X5087736Y1292824D1*
X5077063Y1285800D1*
X5087736Y1278762D1*
X5105430Y1263650D1*
X5120542Y1245956D1*
X5127567Y1235283D1*
X5134604Y1245956D1*
X5149716Y1263650D1*
X5167411Y1278762D1*
X5178084Y1285787D1*
X5167411Y1292824D1*
X5149716Y1307936D1*
X5134604Y1325631D1*
X5127580Y1336304D1*
X4941801Y1548862D2*
X4954749Y1553826D1*
X4977376Y1559258D1*
X5000573Y1561083D1*
X5023771Y1559258D1*
X5027741Y1558468D1*
X5028266Y1617610D1*
Y1625175D1*
X5007943Y1620410D1*
X4985497Y1618643D1*
X4963050Y1620410D1*
X4941791Y1625487D1*
X4941820Y1548994D1*
X5381567Y1336304D2*
X5374542Y1325631D1*
X5359430Y1307936D1*
X5341736Y1292824D1*
X5331063Y1285800D1*
X5341736Y1278762D1*
X5359430Y1263650D1*
X5374542Y1245956D1*
X5381567Y1235283D1*
X5388604Y1245956D1*
X5403716Y1263650D1*
X5421411Y1278762D1*
X5432084Y1285787D1*
X5421411Y1292824D1*
X5403716Y1307936D1*
X5388604Y1325631D1*
X5381580Y1336304D1*
X5195884Y1548900D2*
X5208749Y1553826D1*
X5231376Y1559258D1*
X5254573Y1561083D1*
X5277771Y1559258D1*
X5281741Y1558468D1*
X5282293Y1617637D1*
Y1625202D1*
X5261943Y1620410D1*
X5239497Y1618643D1*
X5217050Y1620410D1*
X5195876Y1625463D1*
X5195847Y1548976D1*
X5635567Y1336304D2*
X5628542Y1325631D1*
X5613430Y1307936D1*
X5595736Y1292824D1*
X5585063Y1285800D1*
X5595736Y1278762D1*
X5613430Y1263650D1*
X5628542Y1245956D1*
X5635567Y1235283D1*
X5642604Y1245956D1*
X5657716Y1263650D1*
X5675411Y1278762D1*
X5686084Y1285787D1*
X5675411Y1292824D1*
X5657716Y1307936D1*
X5642604Y1325631D1*
X5635580Y1336304D1*
X5449884Y1548900D2*
X5462749Y1553826D1*
X5485376Y1559258D1*
X5508573Y1561083D1*
X5531771Y1559258D1*
X5535741Y1558468D1*
X5536320Y1594330D1*
Y1625228D1*
X5515943Y1620410D1*
X5493497Y1618643D1*
X5471050Y1620410D1*
X5449876Y1625463D1*
X5449873Y1548959D1*
X5889567Y1336304D2*
X5882542Y1325631D1*
X5867430Y1307936D1*
X5849736Y1292824D1*
X5839063Y1285800D1*
X5849736Y1278762D1*
X5867430Y1263650D1*
X5882542Y1245956D1*
X5889567Y1235283D1*
X5896604Y1245956D1*
X5911716Y1263650D1*
X5929411Y1278762D1*
X5940084Y1285787D1*
X5929411Y1292824D1*
X5911716Y1307936D1*
X5896604Y1325631D1*
X5889580Y1336304D1*
X5703884Y1548900D2*
X5716749Y1553826D1*
X5739376Y1559258D1*
X5762573Y1561083D1*
X5785771Y1559258D1*
X5789741Y1558468D1*
X5790347Y1594357D1*
Y1625255D1*
X5769943Y1620410D1*
X5747497Y1618643D1*
X5725050Y1620410D1*
X5703876Y1625463D1*
X5703900Y1548959D1*
X6143567Y1336304D2*
X6136542Y1325631D1*
X6121430Y1307936D1*
X6103736Y1292824D1*
X6093063Y1285800D1*
X6103736Y1278762D1*
X6121430Y1263650D1*
X6136542Y1245956D1*
X6143567Y1235283D1*
X6150604Y1245956D1*
X6165716Y1263650D1*
X6183411Y1278762D1*
X6194084Y1285787D1*
X6183411Y1292824D1*
X6165716Y1307936D1*
X6150604Y1325631D1*
X6143580Y1336304D1*
X5957966Y1548939D2*
X5970749Y1553826D1*
X5993376Y1559258D1*
X6016573Y1561083D1*
X6039771Y1559258D1*
X6043741Y1558468D1*
X6044373Y1594383D1*
Y1625282D1*
X6023943Y1620410D1*
X6001497Y1618643D1*
X5979050Y1620410D1*
X5957961Y1625439D1*
X5957927Y1548994D1*
X6397567Y1336304D2*
X6390542Y1325631D1*
X6375430Y1307936D1*
X6357736Y1292824D1*
X6347063Y1285800D1*
X6357736Y1278762D1*
X6375430Y1263650D1*
X6390542Y1245956D1*
X6397567Y1235283D1*
X6404604Y1245956D1*
X6419716Y1263650D1*
X6437411Y1278762D1*
X6448084Y1285787D1*
X6437411Y1292824D1*
X6419716Y1307936D1*
X6404604Y1325631D1*
X6397580Y1336304D1*
X6211966Y1548939D2*
X6224749Y1553826D1*
X6247376Y1559258D1*
X6270573Y1561083D1*
X6293771Y1559258D1*
X6297741Y1558468D1*
X6298400Y1594410D1*
Y1625126D1*
X6277943Y1620410D1*
X6255497Y1618643D1*
X6233050Y1620410D1*
X6211961Y1625439D1*
X6211954Y1548976D1*
X6651567Y1336304D2*
X6644542Y1325631D1*
X6629430Y1307936D1*
X6611736Y1292824D1*
X6601063Y1285800D1*
X6611736Y1278762D1*
X6629430Y1263650D1*
X6644542Y1245956D1*
X6651567Y1235283D1*
X6658604Y1245956D1*
X6673716Y1263650D1*
X6691411Y1278762D1*
X6702084Y1285787D1*
X6691411Y1292824D1*
X6673716Y1307936D1*
X6658604Y1325631D1*
X6651580Y1336304D1*
X6465966Y1548939D2*
X6478749Y1553826D1*
X6501376Y1559258D1*
X6524573Y1561083D1*
X6547771Y1559258D1*
X6551741Y1558468D1*
X6552426Y1594437D1*
Y1625153D1*
X6531943Y1620410D1*
X6509497Y1618643D1*
X6487050Y1620410D1*
X6465961Y1625439D1*
X6465980Y1548976D1*
X6905567Y1336304D2*
X6898542Y1325631D1*
X6883430Y1307936D1*
X6865736Y1292824D1*
X6855063Y1285800D1*
X6865736Y1278762D1*
X6883430Y1263650D1*
X6898542Y1245956D1*
X6905567Y1235283D1*
X6912604Y1245956D1*
X6927716Y1263650D1*
X6945411Y1278762D1*
X6956084Y1285787D1*
X6945411Y1292824D1*
X6927716Y1307936D1*
X6912604Y1325631D1*
X6905580Y1336304D1*
X6719966Y1548939D2*
X6732749Y1553826D1*
X6755376Y1559258D1*
X6778573Y1561083D1*
X6801771Y1559258D1*
X6805741Y1558468D1*
X6806453Y1594463D1*
Y1625179D1*
X6785943Y1620410D1*
X6763497Y1618643D1*
X6741050Y1620410D1*
X6720045Y1625415D1*
X6720007Y1548976D1*
X7159567Y1336304D2*
X7152542Y1325631D1*
X7137430Y1307936D1*
X7119736Y1292824D1*
X7109063Y1285800D1*
X7119736Y1278762D1*
X7137430Y1263650D1*
X7152542Y1245956D1*
X7159567Y1235283D1*
X7166604Y1245956D1*
X7181716Y1263650D1*
X7199411Y1278762D1*
X7210084Y1285787D1*
X7199411Y1292824D1*
X7181716Y1307936D1*
X7166604Y1325631D1*
X7159580Y1336304D1*
X6974049Y1548977D2*
X6986749Y1553826D1*
X7009376Y1559258D1*
X7032573Y1561083D1*
X7055771Y1559258D1*
X7059741Y1558468D1*
X7060480Y1594490D1*
Y1625206D1*
X7039943Y1620410D1*
X7017497Y1618643D1*
X6995050Y1620410D1*
X6974045Y1625415D1*
X6974034Y1548994D1*
X7413567Y1336304D2*
X7406542Y1325631D1*
X7391430Y1307936D1*
X7373736Y1292824D1*
X7363063Y1285800D1*
X7373736Y1278762D1*
X7391430Y1263650D1*
X7406542Y1245956D1*
X7413567Y1235283D1*
X7420604Y1245956D1*
X7435716Y1263650D1*
X7453411Y1278762D1*
X7464084Y1285787D1*
X7453411Y1292824D1*
X7435716Y1307936D1*
X7420604Y1325631D1*
X7413580Y1336304D1*
X7228049Y1548977D2*
X7240749Y1553826D1*
X7263376Y1559258D1*
X7286573Y1561083D1*
X7309771Y1559258D1*
X7313741Y1558468D1*
X7314506Y1594517D1*
Y1625233D1*
X7293943Y1620410D1*
X7271497Y1618643D1*
X7249050Y1620410D1*
X7228045Y1625415D1*
X7228060Y1548994D1*
X7667567Y1336304D2*
X7660542Y1325631D1*
X7645430Y1307936D1*
X7627736Y1292824D1*
X7617063Y1285800D1*
X7627736Y1278762D1*
X7645430Y1263650D1*
X7660542Y1245956D1*
X7667567Y1235283D1*
X7674604Y1245956D1*
X7689716Y1263650D1*
X7707411Y1278762D1*
X7718084Y1285787D1*
X7707411Y1292824D1*
X7689716Y1307936D1*
X7674604Y1325631D1*
X7667580Y1336304D1*
X7482049Y1548977D2*
X7494749Y1553826D1*
X7517376Y1559258D1*
X7540573Y1561083D1*
X7563771Y1559258D1*
X7567741Y1558468D1*
X7568533Y1594543D1*
Y1625259D1*
X7547943Y1620410D1*
X7525497Y1618643D1*
X7503050Y1620410D1*
X7482045Y1625415D1*
X7482087Y1548976D1*
X7921567Y1336304D2*
X7914542Y1325631D1*
X7899430Y1307936D1*
X7881736Y1292824D1*
X7871063Y1285800D1*
X7881736Y1278762D1*
X7899430Y1263650D1*
X7914542Y1245956D1*
X7921567Y1235283D1*
X7928604Y1245956D1*
X7943716Y1263650D1*
X7961411Y1278762D1*
X7972084Y1285787D1*
X7961411Y1292824D1*
X7943716Y1307936D1*
X7928604Y1325631D1*
X7921580Y1336304D1*
X7736132Y1549015D2*
X7748749Y1553826D1*
X7771376Y1559258D1*
X7794573Y1561083D1*
X7817771Y1559258D1*
X7821741Y1558468D1*
X7838380Y1575097D1*
X7838437Y1631319D1*
X7823838Y1625666D1*
X7801943Y1620410D1*
X7779497Y1618643D1*
X7757050Y1620410D1*
X7736130Y1625391D1*
X7736113Y1548994D1*
X8175567Y1336304D2*
X8168542Y1325631D1*
X8153430Y1307936D1*
X8135736Y1292824D1*
X8125063Y1285800D1*
X8135736Y1278762D1*
X8153430Y1263650D1*
X8168542Y1245956D1*
X8175567Y1235283D1*
X8182604Y1245956D1*
X8197716Y1263650D1*
X8215411Y1278762D1*
X8226084Y1285787D1*
X8215411Y1292824D1*
X8197716Y1307936D1*
X8182604Y1325631D1*
X8175580Y1336304D1*
X8006032Y1554751D2*
X8025376Y1559258D1*
X8048573Y1561083D1*
X8071771Y1559258D1*
X8075741Y1558468D1*
X8076586Y1594597D1*
Y1625313D1*
X8055943Y1620410D1*
X8033497Y1618643D1*
X8011050Y1620410D1*
X8006000Y1621415D1*
X8006017Y1554844D1*
X8429567Y1336304D2*
X8422542Y1325631D1*
X8407430Y1307936D1*
X8389736Y1292824D1*
X8379063Y1285800D1*
X8389736Y1278762D1*
X8407430Y1263650D1*
X8422542Y1245956D1*
X8429567Y1235283D1*
X8436604Y1245956D1*
X8451716Y1263650D1*
X8469411Y1278762D1*
X8480084Y1285787D1*
X8469411Y1292824D1*
X8451716Y1307936D1*
X8436604Y1325631D1*
X8429580Y1336304D1*
X8244132Y1549015D2*
X8256749Y1553826D1*
X8279376Y1559258D1*
X8302573Y1561083D1*
X8325771Y1559258D1*
X8329741Y1558468D1*
X8330613Y1594623D1*
Y1625339D1*
X8309943Y1620410D1*
X8287497Y1618643D1*
X8265050Y1620410D1*
X8244130Y1625391D1*
X8244167Y1549176D1*
X8683567Y1336304D2*
X8676542Y1325631D1*
X8661430Y1307936D1*
X8643736Y1292824D1*
X8633063Y1285800D1*
X8643736Y1278762D1*
X8661430Y1263650D1*
X8676542Y1245956D1*
X8683567Y1235283D1*
X8690604Y1245956D1*
X8705716Y1263650D1*
X8723411Y1278762D1*
X8734084Y1285787D1*
X8723411Y1292824D1*
X8705716Y1307936D1*
X8690604Y1325631D1*
X8683580Y1336304D1*
X8498214Y1549053D2*
X8510749Y1553826D1*
X8533376Y1559258D1*
X8556573Y1561083D1*
X8579771Y1559258D1*
X8583741Y1558468D1*
X8584640Y1594650D1*
Y1625366D1*
X8563943Y1620410D1*
X8541497Y1618643D1*
X8519050Y1620410D1*
X8498215Y1625368D1*
X8498193Y1549176D1*
X8937567Y1336304D2*
X8930542Y1325631D1*
X8915430Y1307936D1*
X8897736Y1292824D1*
X8887063Y1285800D1*
X8897736Y1278762D1*
X8915430Y1263650D1*
X8930542Y1245956D1*
X8937567Y1235283D1*
X8944604Y1245956D1*
X8959716Y1263650D1*
X8977411Y1278762D1*
X8988084Y1285787D1*
X8977411Y1292824D1*
X8959716Y1307936D1*
X8944604Y1325631D1*
X8937580Y1336304D1*
X8752214Y1549053D2*
X8764749Y1553826D1*
X8787376Y1559258D1*
X8810573Y1561083D1*
X8833771Y1559258D1*
X8837741Y1558468D1*
X8838667Y1571343D1*
Y1625211D1*
X8817943Y1620410D1*
X8795497Y1618643D1*
X8773050Y1620410D1*
X8752215Y1625368D1*
X8752220Y1549159D1*
X9191567Y1336304D2*
X9184542Y1325631D1*
X9169430Y1307936D1*
X9151736Y1292824D1*
X9141063Y1285800D1*
X9151736Y1278762D1*
X9169430Y1263650D1*
X9184542Y1245956D1*
X9191567Y1235283D1*
X9198604Y1245956D1*
X9213716Y1263650D1*
X9231411Y1278762D1*
X9242084Y1285787D1*
X9231411Y1292824D1*
X9213716Y1307936D1*
X9198604Y1325631D1*
X9191580Y1336304D1*
X9006214Y1549053D2*
X9018749Y1553826D1*
X9041376Y1559258D1*
X9064573Y1561083D1*
X9087771Y1559258D1*
X9091741Y1558468D1*
X9092693Y1571370D1*
Y1625237D1*
X9071943Y1620410D1*
X9049497Y1618643D1*
X9027050Y1620410D1*
X9006215Y1625368D1*
X9006247Y1549159D1*
X9260297Y1549091D2*
X9272749Y1553826D1*
X9295376Y1559258D1*
X9318573Y1561083D1*
X9341771Y1559258D1*
X9345741Y1558468D1*
X9346720Y1571397D1*
Y1625264D1*
X9325943Y1620410D1*
X9303497Y1618643D1*
X9281050Y1620410D1*
X9260299Y1625344D1*
X9260274Y1549176D1*
X9430466Y2203416D2*
X9419583Y2185792D1*
X9404959Y2168671D1*
X9387289Y2153681D1*
X9387029Y1977779D1*
X9384972Y1964793D1*
X9380909Y1952288D1*
X9374940Y1940573D1*
X9367211Y1929936D1*
X9338834Y1901194D1*
X9358408Y1894701D1*
X9363804Y1892213D1*
X9371280Y1900730D1*
X9473672Y2003123D1*
X9473706Y2153567D1*
X9456034Y2168671D1*
X9441411Y2185792D1*
X9430528Y2203416D1*
X9219704Y2153681D2*
X9202034Y2168671D1*
X9187411Y2185792D1*
X9176528Y2203416D1*
X9165583Y2185792D1*
X9150959Y2168671D1*
X9133289Y2153681D1*
X9133029Y1961929D1*
X9130972Y1948943D1*
X9126909Y1936438D1*
X9120940Y1924723D1*
X9113211Y1914086D1*
X9108727Y1909237D1*
X9108696Y1906591D1*
X9117254Y1916606D1*
X9219646Y2018999D1*
X9219707Y2153611D1*
X9176528Y2336851D2*
X9187411Y2354475D1*
X9202034Y2371596D1*
X9219704Y2386586D1*
X9219707Y3251683D1*
X9133326Y3165310D1*
X9133287Y2386683D1*
X9150959Y2371596D1*
X9165583Y2354475D1*
X9176466Y2336851D1*
X9387289Y2386586D2*
X9404959Y2371596D1*
X9419583Y2354475D1*
X9430466Y2336851D1*
X9441411Y2354475D1*
X9456034Y2371596D1*
X9473704Y2386586D1*
X9473707Y3443089D1*
X9387326Y3356620D1*
X9387287Y2386587D1*
X8965704Y2153681D2*
X8948034Y2168671D1*
X8933411Y2185792D1*
X8922528Y2203416D1*
X8911583Y2185792D1*
X8896959Y2168671D1*
X8879289Y2153681D1*
X8879029Y1961956D1*
X8876972Y1948970D1*
X8872909Y1936465D1*
X8866940Y1924750D1*
X8859211Y1914113D1*
X8842951Y1897487D1*
X8855804Y1892213D1*
X8863227Y1900729D1*
X8965748Y2003252D1*
X8965706Y2153621D1*
X8922528Y2336851D2*
X8933411Y2354475D1*
X8948034Y2371596D1*
X8965704Y2386586D1*
X8965707Y2517959D1*
X8879326Y2431580D1*
X8879838Y2386219D1*
X8896959Y2371596D1*
X8911583Y2354475D1*
X8922466Y2336851D1*
X8160466Y2203416D2*
X8149583Y2185792D1*
X8134959Y2168671D1*
X8117289Y2153681D1*
X8117028Y1977913D1*
X8114972Y1964926D1*
X8110909Y1952422D1*
X8104939Y1940706D1*
X8097211Y1930069D1*
X8068705Y1901198D1*
X8085889Y1895630D1*
X8092589Y1906591D1*
X8101147Y1916606D1*
X8203668Y2019128D1*
X8203706Y2153718D1*
X8186034Y2168671D1*
X8171411Y2185792D1*
X8160528Y2203416D1*
X8117289Y2386586D2*
X8134959Y2371596D1*
X8149583Y2354475D1*
X8160466Y2336851D1*
X8171411Y2354475D1*
X8186034Y2371596D1*
X8203704Y2386586D1*
X8203965Y2426421D1*
X8206022Y2439407D1*
X8210085Y2451912D1*
X8216054Y2463627D1*
X8223782Y2474264D1*
X8329370Y2580217D1*
X8329409Y3688792D1*
X8309943Y3684377D1*
X8287497Y3682610D1*
X8265050Y3684377D1*
X8242949Y3689709D1*
X8242731Y2631726D1*
X8240674Y2618740D1*
X8236611Y2606235D1*
X8230642Y2594520D1*
X8222914Y2583883D1*
X8117326Y2477930D1*
X8117287Y2386543D1*
X7695704Y2153681D2*
X7678034Y2168671D1*
X7663411Y2185792D1*
X7652528Y2203416D1*
X7641583Y2185792D1*
X7626959Y2168671D1*
X7609289Y2153681D1*
X7609029Y1962089D1*
X7606972Y1949103D1*
X7602909Y1936598D1*
X7596940Y1924883D1*
X7589211Y1914246D1*
X7572951Y1897620D1*
X7580881Y1901120D1*
X7588609Y1911757D1*
X7695743Y2019257D1*
X7695707Y2153589D1*
X7652528Y2336851D2*
X7663411Y2354475D1*
X7678034Y2371596D1*
X7695155Y2386219D1*
X7714354Y2397984D1*
X7735156Y2406600D1*
X7757050Y2411857D1*
X7779497Y2413623D1*
X7801943Y2411857D1*
X7821423Y2407281D1*
X7821409Y3200807D1*
X7715782Y3306813D1*
X7708054Y3317450D1*
X7702085Y3329165D1*
X7698022Y3341670D1*
X7695965Y3354656D1*
X7695707Y3524564D1*
Y3623275D1*
X7609326Y3536889D1*
X7609287Y2386569D1*
X7626959Y2371596D1*
X7641583Y2354475D1*
X7652466Y2336851D1*
X7441704Y2153681D2*
X7424034Y2168671D1*
X7409411Y2185792D1*
X7398528Y2203416D1*
X7387583Y2185792D1*
X7372959Y2168671D1*
X7355289Y2153681D1*
X7355028Y1977993D1*
X7352972Y1965006D1*
X7348909Y1952502D1*
X7342939Y1940786D1*
X7335211Y1930149D1*
X7306705Y1901278D1*
X7326408Y1894701D1*
X7331644Y1892287D1*
X7339067Y1900729D1*
X7441717Y2003381D1*
X7441706Y2153598D1*
X7398528Y2336851D2*
X7409411Y2354475D1*
X7424034Y2371596D1*
X7441704Y2386586D1*
X7441706Y3009599D1*
X7355326Y2923210D1*
X7355287Y2386666D1*
X7372959Y2371596D1*
X7387583Y2354475D1*
X7398466Y2336851D1*
X6890466Y2203416D2*
X6879583Y2185792D1*
X6864959Y2168671D1*
X6847289Y2153681D1*
X6847029Y1962169D1*
X6844972Y1949183D1*
X6840909Y1936678D1*
X6834940Y1924963D1*
X6827211Y1914326D1*
X6810822Y1897572D1*
X6818800Y1901120D1*
X6826529Y1911757D1*
X6933663Y2019257D1*
X6933706Y2153669D1*
X6916034Y2168671D1*
X6901411Y2185792D1*
X6890528Y2203416D1*
X6679704Y2153681D2*
X6662034Y2168671D1*
X6647411Y2185792D1*
X6636528Y2203416D1*
X6625583Y2185792D1*
X6610959Y2168671D1*
X6593289Y2153681D1*
X6593029Y1962196D1*
X6590972Y1949210D1*
X6586909Y1936705D1*
X6580940Y1924990D1*
X6573211Y1914352D1*
X6556822Y1897598D1*
X6569644Y1892287D1*
X6576987Y1900729D1*
X6679766Y2003509D1*
X6679707Y2153678D1*
X6636528Y2336851D2*
X6647411Y2354475D1*
X6662034Y2371596D1*
X6679704Y2386586D1*
X6679707Y3161266D1*
X6593326Y3074820D1*
X6593287Y2386610D1*
X6610959Y2371596D1*
X6625583Y2354475D1*
X6636466Y2336851D1*
X6847289Y2386586D2*
X6864959Y2371596D1*
X6879583Y2354475D1*
X6890466Y2336851D1*
X6901411Y2354475D1*
X6916034Y2371596D1*
X6933704Y2386586D1*
X6933965Y2619121D1*
X6936022Y2632107D1*
X6940085Y2644612D1*
X6946054Y2656327D1*
X6953782Y2666964D1*
X7059370Y2772917D1*
X7059409Y3688809D1*
X7039943Y3684377D1*
X7017497Y3682610D1*
X6995050Y3684377D1*
X6972949Y3689709D1*
X6972731Y3658496D1*
X6970674Y3645509D1*
X6966611Y3633005D1*
X6960642Y3621289D1*
X6952914Y3610652D1*
X6847326Y3504699D1*
X6847287Y2386646D1*
X6425704Y2153681D2*
X6408034Y2168671D1*
X6393411Y2185792D1*
X6382528Y2203416D1*
X6371583Y2185792D1*
X6356959Y2168671D1*
X6339289Y2153681D1*
X6339029Y1962223D1*
X6336972Y1949236D1*
X6332909Y1936732D1*
X6326940Y1925016D1*
X6319211Y1914379D1*
X6302822Y1897625D1*
X6315564Y1892324D1*
X6322941Y1900712D1*
X6425739Y2003510D1*
X6425706Y2153705D1*
X6382528Y2336851D2*
X6393411Y2354475D1*
X6408034Y2371596D1*
X6425704Y2386586D1*
X6425707Y2975329D1*
X6339326Y2888960D1*
X6339287Y2386688D1*
X6356959Y2371596D1*
X6371583Y2354475D1*
X6382466Y2336851D1*
X5552045Y1893024D2*
X5563363Y1887339D1*
X5663659Y1987633D1*
X5663706Y2153585D1*
X5646034Y2168671D1*
X5631411Y2185792D1*
X5620528Y2203416D1*
X5609583Y2185792D1*
X5594959Y2168671D1*
X5577289Y2153681D1*
X5577028Y1946426D1*
X5574972Y1933440D1*
X5570909Y1920935D1*
X5564939Y1909220D1*
X5557211Y1898583D1*
X5552165Y1893171D1*
X5286687Y1897549D2*
X5304640Y1889984D1*
X5309363Y1887339D1*
X5409761Y1987762D1*
X5409707Y2153612D1*
X5392034Y2168671D1*
X5377411Y2185792D1*
X5366528Y2203416D1*
X5355583Y2185792D1*
X5340959Y2168671D1*
X5323289Y2153681D1*
X5323029Y1962329D1*
X5320972Y1949343D1*
X5316909Y1936838D1*
X5310940Y1925123D1*
X5303211Y1914486D1*
X5286693Y1897602D1*
X5020476Y1901241D2*
X5040408Y1894701D1*
X5045484Y1892361D1*
X5052827Y1900730D1*
X5155734Y2003638D1*
X5155706Y2153656D1*
X5138034Y2168671D1*
X5123411Y2185792D1*
X5112528Y2203416D1*
X5101583Y2185792D1*
X5086959Y2168671D1*
X5069289Y2153681D1*
X5069029Y1978233D1*
X5066972Y1965246D1*
X5062909Y1952742D1*
X5056940Y1941026D1*
X5049211Y1930389D1*
X5020448Y1901260D1*
X4766392Y1901264D2*
X4783559Y1895752D1*
X4790242Y1906591D1*
X4798800Y1916606D1*
X4901708Y2019515D1*
X4901155Y2154047D1*
X4884034Y2168671D1*
X4869411Y2185792D1*
X4858528Y2203416D1*
X4847583Y2185792D1*
X4832959Y2168671D1*
X4815289Y2153681D1*
X4815029Y1978259D1*
X4812972Y1965273D1*
X4808909Y1952768D1*
X4802940Y1941053D1*
X4795211Y1930416D1*
X4766448Y1901287D1*
X4499200Y1903945D2*
X4521838Y1898600D1*
X4529559Y1895752D1*
X4536215Y1906591D1*
X4544755Y1916589D1*
X4647681Y2019515D1*
X4647706Y2153727D1*
X4630034Y2168671D1*
X4615411Y2185792D1*
X4604528Y2203416D1*
X4593583Y2185792D1*
X4578959Y2168671D1*
X4561289Y2153681D1*
X4561029Y1994163D1*
X4558972Y1981176D1*
X4554909Y1968672D1*
X4548940Y1956956D1*
X4541211Y1946319D1*
X4499171Y1903914D1*
X1958938Y1903976D2*
X1981838Y1898600D1*
X1983696Y1897915D1*
X1989079Y1911257D1*
X1995949Y1922467D1*
X2004507Y1932483D1*
X2107672Y2035650D1*
X2107706Y2153646D1*
X2090034Y2168671D1*
X2080996Y2178707D1*
X2080987Y2126643D1*
X2021286D1*
X2021028Y1994429D1*
X2018972Y1981443D1*
X2014909Y1968938D1*
X2008939Y1957223D1*
X2001211Y1946586D1*
X1959042Y1904052D1*
X2213026Y1903965D2*
X2235838Y1898600D1*
X2243311Y1895843D1*
X2249976Y1906591D1*
X2258534Y1916606D1*
X2361699Y2019773D1*
X2361155Y2154047D1*
X2344034Y2168671D1*
X2329411Y2185792D1*
X2318528Y2203416D1*
X2307583Y2185792D1*
X2292959Y2168671D1*
X2275289Y2153681D1*
X2275029Y1994403D1*
X2272972Y1981416D1*
X2268909Y1968912D1*
X2262940Y1957196D1*
X2255211Y1946559D1*
X2213042Y1904025D1*
X2480222Y1901312D2*
X2491696Y1897915D1*
X2497132Y1911257D1*
X2504002Y1922467D1*
X2512560Y1932483D1*
X2615726Y2035649D1*
X2615155Y2154047D1*
X2598034Y2168671D1*
X2583411Y2185792D1*
X2572528Y2203416D1*
X2561583Y2185792D1*
X2546959Y2168671D1*
X2529289Y2153681D1*
X2529028Y1978499D1*
X2526972Y1965513D1*
X2522909Y1953008D1*
X2516939Y1941293D1*
X2509211Y1930656D1*
X2480319Y1901398D1*
X2721026Y1903965D2*
X2743838Y1898600D1*
X2759324Y1892434D1*
X2766568Y1900712D1*
X2869752Y2003896D1*
X2869706Y2153714D1*
X2852034Y2168671D1*
X2837411Y2185792D1*
X2826528Y2203416D1*
X2815583Y2185792D1*
X2800959Y2168671D1*
X2783289Y2153681D1*
X2783029Y1994349D1*
X2780972Y1981363D1*
X2776909Y1968858D1*
X2770940Y1957143D1*
X2763211Y1946506D1*
X2721042Y1903972D1*
X3229113Y1903955D2*
X3251838Y1898600D1*
X3253778Y1897884D1*
X3259212Y1911257D1*
X3266082Y1922467D1*
X3274640Y1932483D1*
X3377677Y2035521D1*
X3377706Y2153695D1*
X3360034Y2168671D1*
X3345411Y2185792D1*
X3334528Y2203416D1*
X3323583Y2185792D1*
X3308959Y2168671D1*
X3291289Y2153681D1*
X3291029Y1994296D1*
X3288972Y1981310D1*
X3284909Y1968805D1*
X3278940Y1957090D1*
X3271211Y1946453D1*
X3229171Y1904047D1*
X3483113Y1903955D2*
X3505838Y1898600D1*
X3509512Y1897245D1*
X3631681Y2019622D1*
X3631707Y2153651D1*
X3614034Y2168671D1*
X3599411Y2185792D1*
X3588528Y2203416D1*
X3577583Y2185792D1*
X3562959Y2168671D1*
X3545289Y2153681D1*
X3545029Y1994269D1*
X3542972Y1981283D1*
X3538909Y1968778D1*
X3532940Y1957063D1*
X3525211Y1946426D1*
X3483171Y1904020D1*
X3750307Y1901288D2*
X3767476Y1895782D1*
X3774136Y1906591D1*
X3782694Y1916606D1*
X3885730Y2019644D1*
X3885706Y2153624D1*
X3868034Y2168671D1*
X3853411Y2185792D1*
X3842528Y2203416D1*
X3831583Y2185792D1*
X3816959Y2168671D1*
X3799289Y2153681D1*
X3799028Y1978366D1*
X3796972Y1965380D1*
X3792909Y1952875D1*
X3786939Y1941160D1*
X3779211Y1930523D1*
X3750319Y1901265D1*
X4004392Y1901264D2*
X4024408Y1894701D1*
X4029404Y1892398D1*
X4036720Y1900729D1*
X4139757Y2003767D1*
X4139707Y2153580D1*
X4122034Y2168671D1*
X4107411Y2185792D1*
X4096528Y2203416D1*
X4085583Y2185792D1*
X4070959Y2168671D1*
X4053289Y2153681D1*
X4053029Y1978339D1*
X4050972Y1965353D1*
X4046909Y1952848D1*
X4040940Y1941133D1*
X4033211Y1930496D1*
X4004448Y1901367D1*
X5366528Y2336851D2*
X5377411Y2354475D1*
X5392034Y2371596D1*
X5409704Y2386586D1*
X5409965Y3538311D1*
X5412022Y3551297D1*
X5416085Y3563802D1*
X5422054Y3575517D1*
X5429782Y3586154D1*
X5530858Y3687596D1*
X5515943Y3684377D1*
X5493497Y3682610D1*
X5471050Y3684377D1*
X5448949Y3689709D1*
X5448731Y3665615D1*
X5446674Y3652629D1*
X5442611Y3640124D1*
X5436642Y3628409D1*
X5428914Y3617772D1*
X5323326Y3511819D1*
X5323287Y2386656D1*
X5340959Y2371596D1*
X5355583Y2354475D1*
X5366466Y2336851D1*
X5577289Y2386586D2*
X5594959Y2371596D1*
X5609583Y2354475D1*
X5620466Y2336851D1*
X5631411Y2354475D1*
X5646034Y2371596D1*
X5663704Y2386586D1*
X5663965Y3517171D1*
X5666022Y3530157D1*
X5670085Y3542662D1*
X5676054Y3554377D1*
X5683782Y3565014D1*
X5789370Y3670967D1*
X5789409Y3688890D1*
X5769943Y3684377D1*
X5747497Y3682610D1*
X5725050Y3684377D1*
X5702949Y3689709D1*
X5702731Y3650865D1*
X5700674Y3637879D1*
X5696611Y3625374D1*
X5690642Y3613659D1*
X5682914Y3603022D1*
X5577326Y3497069D1*
X5577287Y2386672D1*
X5112528Y2336851D2*
X5123411Y2354475D1*
X5138034Y2371596D1*
X5155704Y2386586D1*
X5155965Y3553061D1*
X5158022Y3566047D1*
X5162085Y3578552D1*
X5168054Y3590267D1*
X5175782Y3600904D1*
X5258426Y3683913D1*
X5239497Y3682610D1*
X5217050Y3684377D1*
X5194619Y3689831D1*
X5192674Y3677699D1*
X5188611Y3665194D1*
X5182642Y3653479D1*
X5174914Y3642842D1*
X5069326Y3536889D1*
X5069287Y2386569D1*
X5086959Y2371596D1*
X5101583Y2354475D1*
X5112466Y2336851D1*
X4858528D2*
X4869411Y2354475D1*
X4884034Y2371596D1*
X4901704Y2386586D1*
X4901707Y3560462D1*
X4815326Y3474049D1*
X4815287Y2386620D1*
X4832959Y2371596D1*
X4847583Y2354475D1*
X4858466Y2336851D1*
X4604528D2*
X4615411Y2354475D1*
X4630034Y2371596D1*
X4647704Y2386586D1*
X4647965Y3515291D1*
X4650022Y3528277D1*
X4654096Y3540805D1*
X4645949Y3535393D1*
X4561326Y3450770D1*
X4561287Y2386675D1*
X4578959Y2371596D1*
X4593583Y2354475D1*
X4604466Y2336851D1*
X4393704Y2153681D2*
X4376034Y2168671D1*
X4361411Y2185792D1*
X4350528Y2203416D1*
X4339583Y2185792D1*
X4324959Y2168671D1*
X4307289Y2153681D1*
X4307028Y1962436D1*
X4304965Y1949425D1*
X4307227Y1948964D1*
X4393654Y2035392D1*
X4393706Y2153588D1*
X4350528Y2336851D2*
X4361411Y2354475D1*
X4376034Y2371596D1*
X4393704Y2386586D1*
X4393965Y3492012D1*
X4396022Y3504998D1*
X4400085Y3517503D1*
X4406054Y3529218D1*
X4413782Y3539855D1*
X4519370Y3645808D1*
X4519409Y3688888D1*
X4499943Y3684377D1*
X4477497Y3682610D1*
X4455050Y3684377D1*
X4433156Y3689633D1*
X4419748Y3694841D1*
X4412914Y3685582D1*
X4307326Y3579629D1*
X4307287Y2386654D1*
X4324959Y2371596D1*
X4339583Y2354475D1*
X4350466Y2336851D1*
X4096528D2*
X4107411Y2354475D1*
X4122034Y2371596D1*
X4139704Y2386586D1*
X4139707Y3603176D1*
X4053326Y3516790D1*
X4053287Y2386705D1*
X4070959Y2371596D1*
X4085583Y2354475D1*
X4096466Y2336851D1*
X3842528D2*
X3853411Y2354475D1*
X3868034Y2371596D1*
X3885704Y2386586D1*
X3885965Y3558032D1*
X3888022Y3571018D1*
X3892085Y3583523D1*
X3898054Y3595238D1*
X3905782Y3605875D1*
X3982754Y3683212D1*
X3969497Y3682610D1*
X3947050Y3684377D1*
X3924619Y3689831D1*
X3922674Y3677699D1*
X3918611Y3665194D1*
X3912642Y3653479D1*
X3904914Y3642842D1*
X3799326Y3536889D1*
X3799287Y2386569D1*
X3816959Y2371596D1*
X3831583Y2354475D1*
X3842466Y2336851D1*
X3588528D2*
X3599411Y2354475D1*
X3614034Y2371596D1*
X3631704Y2386586D1*
X3631707Y3560462D1*
X3545326Y3474049D1*
X3545287Y2386620D1*
X3562959Y2371596D1*
X3577583Y2354475D1*
X3588466Y2336851D1*
X3334528D2*
X3345411Y2354475D1*
X3360034Y2371596D1*
X3377704Y2386586D1*
X3377965Y3515291D1*
X3380022Y3528277D1*
X3384085Y3540782D1*
X3390054Y3552497D1*
X3397782Y3563134D1*
X3503370Y3669087D1*
X3503409Y3688834D1*
X3483943Y3684377D1*
X3461497Y3682610D1*
X3439050Y3684377D1*
X3416619Y3689831D1*
X3414674Y3677699D1*
X3410611Y3665194D1*
X3404642Y3653479D1*
X3396914Y3642842D1*
X3291326Y3536889D1*
X3291287Y2386569D1*
X3308959Y2371596D1*
X3323583Y2354475D1*
X3334466Y2336851D1*
X3123704Y2153681D2*
X3106034Y2168671D1*
X3091411Y2185792D1*
X3080528Y2203416D1*
X3069583Y2185792D1*
X3054959Y2168671D1*
X3037289Y2153681D1*
X3037029Y1962569D1*
X3034965Y1949558D1*
X3037094Y1948964D1*
X3123650Y2035521D1*
X3123707Y2153722D1*
X3080528Y2336851D2*
X3091411Y2354475D1*
X3106034Y2371596D1*
X3123704Y2386586D1*
X3123707Y3560462D1*
X3037326Y3474049D1*
X3037287Y2386620D1*
X3054959Y2371596D1*
X3069583Y2354475D1*
X3080466Y2336851D1*
X2826528D2*
X2837411Y2354475D1*
X2852034Y2371596D1*
X2869704Y2386586D1*
X2869965Y3515291D1*
X2872022Y3528277D1*
X2876085Y3540782D1*
X2878852Y3546779D1*
X2867949Y3538123D1*
X2783326Y3453501D1*
X2783287Y2386671D1*
X2800959Y2371596D1*
X2815583Y2354475D1*
X2826466Y2336851D1*
X2572528D2*
X2583411Y2354475D1*
X2598034Y2371596D1*
X2615704Y2386586D1*
X2615965Y3494742D1*
X2618022Y3507729D1*
X2622085Y3520233D1*
X2628054Y3531948D1*
X2635782Y3542586D1*
X2741370Y3648539D1*
X2741409Y3688884D1*
X2721943Y3684377D1*
X2699497Y3682610D1*
X2677050Y3684377D1*
X2655156Y3689633D1*
X2640389Y3695467D1*
X2630429Y3683464D1*
X2529326Y3582360D1*
X2529287Y2386650D1*
X2546959Y2371596D1*
X2561583Y2354475D1*
X2572466Y2336851D1*
X2318528D2*
X2329411Y2354475D1*
X2344034Y2371596D1*
X2361704Y2386586D1*
X2361707Y3605875D1*
X2275326Y3519520D1*
X2275287Y2386701D1*
X2292959Y2371596D1*
X2307583Y2354475D1*
X2318466Y2336851D1*
X2080996Y2361560D2*
X2090034Y2371596D1*
X2107704Y2386586D1*
X2107965Y3560762D1*
X2110022Y3573748D1*
X2114085Y3586253D1*
X2120054Y3597968D1*
X2127782Y3608605D1*
X2201789Y3682978D1*
X2180239Y3683052D1*
X2158000Y3686575D1*
X2146619Y3689831D1*
X2144674Y3677699D1*
X2140611Y3665194D1*
X2134642Y3653479D1*
X2126914Y3642842D1*
X2021326Y3536889D1*
X2021287Y2413549D1*
X2080987Y2413623D1*
Y2361579D1*
X5874466Y2203416D2*
X5863583Y2185792D1*
X5848959Y2168671D1*
X5831289Y2153681D1*
X5831029Y1946399D1*
X5828965Y1933388D1*
X5831387Y1933088D1*
X5917686Y2019386D1*
X5917707Y2153593D1*
X5900034Y2168671D1*
X5885411Y2185792D1*
X5874528Y2203416D1*
X5831289Y2386586D2*
X5848959Y2371596D1*
X5863583Y2354475D1*
X5874466Y2336851D1*
X5885411Y2354475D1*
X5900034Y2371596D1*
X5917704Y2386586D1*
X5917707Y3562300D1*
X5831326Y3475929D1*
X5831287Y2386677D1*
X6128466Y2203416D2*
X6117583Y2185792D1*
X6102959Y2168671D1*
X6085289Y2153681D1*
X6085028Y1978126D1*
X6082972Y1965140D1*
X6078909Y1952635D1*
X6072939Y1940920D1*
X6065211Y1930283D1*
X6036576Y1901283D1*
X6056408Y1894701D1*
X6061564Y1892324D1*
X6068934Y1900729D1*
X6171712Y2003509D1*
X6171155Y2154047D1*
X6154034Y2168671D1*
X6139411Y2185792D1*
X6128528Y2203416D1*
X6085289Y2386586D2*
X6102959Y2371596D1*
X6117583Y2354475D1*
X6128466Y2336851D1*
X6139411Y2354475D1*
X6154034Y2371596D1*
X6171704Y2386586D1*
X6171965Y2930202D1*
X6174022Y2943188D1*
X6178085Y2955693D1*
X6184054Y2967408D1*
X6191782Y2978045D1*
X6297370Y3083998D1*
X6297409Y3688901D1*
X6277943Y3684377D1*
X6255497Y3682610D1*
X6233050Y3684377D1*
X6210619Y3689831D1*
X6208674Y3677699D1*
X6204611Y3665194D1*
X6198642Y3653479D1*
X6190914Y3642842D1*
X6085326Y3536889D1*
X6085287Y2386569D1*
X7052646Y1901193D2*
X7069724Y1895691D1*
X7076482Y1906591D1*
X7085040Y1916606D1*
X7187690Y2019257D1*
X7187155Y2154047D1*
X7170034Y2168671D1*
X7155411Y2185792D1*
X7144528Y2203416D1*
X7133583Y2185792D1*
X7118959Y2168671D1*
X7101289Y2153681D1*
X7101029Y1978019D1*
X7098972Y1965033D1*
X7094909Y1952528D1*
X7088940Y1940813D1*
X7081211Y1930176D1*
X7052706Y1901305D1*
X7101289Y2386586D2*
X7118959Y2371596D1*
X7133583Y2354475D1*
X7144466Y2336851D1*
X7155411Y2354475D1*
X7170034Y2371596D1*
X7187704Y2386586D1*
X7187707Y2664339D1*
X7101326Y2577879D1*
X7101287Y2386596D1*
X8322730Y1901169D2*
X8339889Y1895630D1*
X8346616Y1906591D1*
X8355174Y1916606D1*
X8457695Y2019128D1*
X8457155Y2154047D1*
X8440034Y2168671D1*
X8425411Y2185792D1*
X8414528Y2203416D1*
X8403583Y2185792D1*
X8388959Y2168671D1*
X8371289Y2153681D1*
X8371029Y1977886D1*
X8368972Y1964900D1*
X8364909Y1952395D1*
X8358940Y1940680D1*
X8351211Y1930043D1*
X8322706Y1901172D1*
X8372149Y2385974D2*
X8388959Y2371596D1*
X8403583Y2354475D1*
X8414466Y2336851D1*
X8425411Y2354475D1*
X8440034Y2371596D1*
X8457704Y2386586D1*
X8457707Y2471474D1*
X8372100Y2385952D1*
X8576730Y1901169D2*
X8596408Y1894701D1*
X8601804Y1892213D1*
X8609200Y1900729D1*
X8711721Y2003252D1*
X8711155Y2154047D1*
X8694034Y2168671D1*
X8679411Y2185792D1*
X8668528Y2203416D1*
X8657583Y2185792D1*
X8642959Y2168671D1*
X8625289Y2153681D1*
X8625028Y1977859D1*
X8622972Y1964873D1*
X8618909Y1952368D1*
X8612939Y1940653D1*
X8605211Y1930016D1*
X8576834Y1901274D1*
X8625289Y2386586D2*
X8642959Y2371596D1*
X8657583Y2354475D1*
X8668466Y2336851D1*
X8679411Y2354475D1*
X8694034Y2371596D1*
X8711704Y2386586D1*
X8711965Y2472822D1*
X8714022Y2485808D1*
X8718085Y2498313D1*
X8724054Y2510028D1*
X8731782Y2520665D1*
X8837370Y2626618D1*
X8837409Y3688890D1*
X8817943Y3684377D1*
X8795497Y3682610D1*
X8773050Y3684377D1*
X8750949Y3689709D1*
X8750731Y3396835D1*
X8748674Y3383849D1*
X8744611Y3371344D1*
X8738642Y3359629D1*
X8730914Y3348992D1*
X8625326Y3243039D1*
X8625287Y2386574D1*
X9430466Y4267383D2*
X9419583Y4249759D1*
X9404959Y4232637D1*
X9399562Y4227648D1*
X9473663Y4153590D1*
X9473707Y4217615D1*
X9456034Y4232637D1*
X9441411Y4249759D1*
X9430528Y4267383D1*
X9219704Y4217647D2*
X9202034Y4232637D1*
X9187411Y4249759D1*
X9176528Y4267383D1*
X9165583Y4249759D1*
X9150959Y4232637D1*
X9133289Y4217647D1*
X9133287Y4206405D1*
X9238914Y4100355D1*
X9246642Y4089718D1*
X9252611Y4078003D1*
X9256674Y4065498D1*
X9258731Y4052512D1*
X9258989Y3962539D1*
X9281050Y3967823D1*
X9303497Y3969590D1*
X9325943Y3967823D1*
X9345423Y3963248D1*
X9345409Y4044816D1*
X9239782Y4150842D1*
X9232054Y4161479D1*
X9226085Y4173195D1*
X9222022Y4185699D1*
X9219965Y4198686D1*
X9219707Y4217564D1*
X9345423Y3688952D2*
X9325943Y3684377D1*
X9303497Y3682610D1*
X9281050Y3684377D1*
X9258949Y3689709D1*
X9258989Y3465247D1*
X9345370Y3551658D1*
X9345409Y3688800D1*
X8965704Y4217647D2*
X8948034Y4232637D1*
X8933411Y4249759D1*
X8922528Y4267383D1*
X8911583Y4249759D1*
X8896959Y4232637D1*
X8879289Y4217647D1*
X8879287Y4189087D1*
X8984914Y4083096D1*
X8992642Y4072459D1*
X8998611Y4060743D1*
X9002674Y4048239D1*
X9004731Y4035252D1*
X9005156Y3962567D1*
X9027050Y3967823D1*
X9049497Y3969590D1*
X9071943Y3967823D1*
X9091423Y3963248D1*
X9091409Y4011188D1*
X8985782Y4117223D1*
X8978054Y4127860D1*
X8972085Y4139575D1*
X8968022Y4152080D1*
X8965965Y4165066D1*
X8965707Y4217669D1*
X9091423Y3688952D2*
X9071943Y3684377D1*
X9049497Y3682610D1*
X9027050Y3684377D1*
X9004949Y3689709D1*
X9004989Y3273900D1*
X9091370Y3360348D1*
X9091409Y3688896D1*
X8160466Y4267383D2*
X8149583Y4249759D1*
X8134959Y4232637D1*
X8119601Y4219404D1*
X8222914Y4115745D1*
X8230642Y4105108D1*
X8236611Y4093393D1*
X8240674Y4080888D1*
X8242731Y4067902D1*
X8242989Y3962434D1*
X8265050Y3967823D1*
X8287497Y3969590D1*
X8309943Y3967823D1*
X8329423Y3963248D1*
X8329409Y4044807D1*
X8223782Y4150843D1*
X8216054Y4161480D1*
X8210085Y4173195D1*
X8206022Y4185699D1*
X8203965Y4198686D1*
X8203707Y4217564D1*
X8186034Y4232637D1*
X8171411Y4249759D1*
X8160528Y4267383D1*
X7949704Y4217647D2*
X7932034Y4232637D1*
X7917411Y4249759D1*
X7906528Y4267383D1*
X7895583Y4249759D1*
X7880959Y4232637D1*
X7863838Y4218014D1*
X7844640Y4206249D1*
X7823838Y4197633D1*
X7801943Y4192377D1*
X7779497Y4190610D1*
X7757050Y4192377D1*
X7735156Y4197633D1*
X7714354Y4206249D1*
X7695155Y4218014D1*
X7678034Y4232637D1*
X7663411Y4249759D1*
X7652528Y4267383D1*
X7641583Y4249759D1*
X7626959Y4232637D1*
X7609289Y4217647D1*
X7609287Y4177056D1*
X7714914Y4071135D1*
X7722642Y4060498D1*
X7728611Y4048783D1*
X7732674Y4036278D1*
X7734731Y4023292D1*
X7735156Y3962567D1*
X7757050Y3967823D1*
X7779497Y3969590D1*
X7801943Y3967823D1*
X7823838Y3962567D1*
X7844640Y3953951D1*
X7863838Y3942186D1*
X7880959Y3927563D1*
X7895583Y3910441D1*
X7906466Y3892817D1*
X7917411Y3910441D1*
X7932034Y3927563D1*
X7949155Y3942186D1*
X7968354Y3953951D1*
X7989156Y3962567D1*
X8011050Y3967823D1*
X8033497Y3969590D1*
X8055943Y3967823D1*
X8075423Y3963248D1*
X8075409Y4026542D1*
X7969782Y4132613D1*
X7962054Y4143250D1*
X7956085Y4154965D1*
X7952022Y4167470D1*
X7949965Y4180456D1*
X7949707Y4217564D1*
X8075423Y3688952D2*
X8055943Y3684377D1*
X8033497Y3682610D1*
X8011050Y3684377D1*
X7989156Y3689633D1*
X7968354Y3698249D1*
X7949155Y3710014D1*
X7932034Y3724637D1*
X7917411Y3741759D1*
X7906528Y3759383D1*
X7895583Y3741759D1*
X7880959Y3724637D1*
X7863289Y3709647D1*
X7863287Y3395983D1*
X7968914Y3289945D1*
X7976642Y3279308D1*
X7982611Y3267593D1*
X7986674Y3255088D1*
X7988731Y3242102D1*
X7988989Y3072194D1*
Y2586661D1*
X8075370Y2672968D1*
X8075409Y3688938D1*
X7441704Y4217647D2*
X7424034Y4232637D1*
X7409411Y4249759D1*
X7398528Y4267383D1*
X7387583Y4249759D1*
X7372959Y4232637D1*
X7367562Y4227648D1*
X7441663Y4153590D1*
X7441707Y4217615D1*
X7480949Y3962491D2*
X7503050Y3967823D1*
X7525497Y3969590D1*
X7547943Y3967823D1*
X7567423Y3963248D1*
X7567409Y3982090D1*
X7481033Y4068387D1*
X7480989Y3962435D1*
X6790994Y3685381D2*
X6774755Y3683052D1*
X6752239D1*
X6730000Y3686575D1*
X6718949Y3689709D1*
X6718989Y3613406D1*
X6790933Y3685301D1*
X6718949Y3962491D2*
X6741050Y3967823D1*
X6763497Y3969590D1*
X6785943Y3967823D1*
X6805423Y3963248D1*
X6796952Y3974508D1*
X6719033Y4052428D1*
X6718989Y3962495D1*
X6890466Y4267383D2*
X6879583Y4249759D1*
X6864959Y4232637D1*
X6847289Y4217647D1*
X6847287Y4161196D1*
X6952914Y4055176D1*
X6960642Y4044539D1*
X6966611Y4032824D1*
X6970674Y4020319D1*
X6972731Y4007333D1*
X6973156Y3962567D1*
X6995050Y3967823D1*
X7017497Y3969590D1*
X7039943Y3967823D1*
X7059423Y3963248D1*
X7059409Y4032064D1*
X6953782Y4138043D1*
X6946054Y4148681D1*
X6940085Y4160396D1*
X6936022Y4172900D1*
X6933965Y4185887D1*
X6933707Y4217526D1*
X6916034Y4232637D1*
X6901411Y4249759D1*
X6890528Y4267383D1*
X6679704Y4217647D2*
X6662034Y4232637D1*
X6647411Y4249759D1*
X6636528Y4267383D1*
X6625583Y4249759D1*
X6610959Y4232637D1*
X6593289Y4217647D1*
X6593287Y4212967D1*
X6679663Y4126671D1*
X6679707Y4217698D1*
X6425704Y4217647D2*
X6408034Y4232637D1*
X6393411Y4249759D1*
X6382528Y4267383D1*
X6371583Y4249759D1*
X6356959Y4232637D1*
X6339289Y4217647D1*
X6339287Y4177056D1*
X6444914Y4071135D1*
X6452642Y4060498D1*
X6458611Y4048783D1*
X6462674Y4036278D1*
X6464731Y4023292D1*
X6465156Y3962567D1*
X6487050Y3967823D1*
X6509497Y3969590D1*
X6531943Y3967823D1*
X6551423Y3963248D1*
X6551409Y4017859D1*
X6445782Y4123924D1*
X6438054Y4134561D1*
X6432085Y4146276D1*
X6428022Y4158780D1*
X6425965Y4171767D1*
X6425707Y4217625D1*
X6551423Y3688952D2*
X6531943Y3684377D1*
X6509497Y3682610D1*
X6487050Y3684377D1*
X6464949Y3689709D1*
X6464989Y3183553D1*
X6551370Y3269857D1*
X6551409Y3688823D1*
X5448949Y3962491D2*
X5471050Y3967823D1*
X5493497Y3969590D1*
X5515943Y3967823D1*
X5535423Y3963248D1*
X5535409Y4044900D1*
X5429782Y4150842D1*
X5422054Y4161479D1*
X5416085Y4173195D1*
X5412022Y4185699D1*
X5409965Y4198686D1*
X5409707Y4217564D1*
X5392034Y4232637D1*
X5377411Y4249759D1*
X5366528Y4267383D1*
X5355583Y4249759D1*
X5340959Y4232637D1*
X5323289Y4217647D1*
X5323287Y4152629D1*
X5428914Y4046555D1*
X5436642Y4035918D1*
X5442611Y4024203D1*
X5446674Y4011698D1*
X5448731Y3998712D1*
X5448989Y3962515D1*
X5194949Y3962491D2*
X5217050Y3967823D1*
X5239497Y3969590D1*
X5261943Y3967823D1*
X5272953Y3965888D1*
X5195033Y4043808D1*
X5194989Y3962435D1*
X4940949Y3962491D2*
X4963050Y3967823D1*
X4985497Y3969590D1*
X5007943Y3967823D1*
X5027423Y3963248D1*
X5027409Y4044798D1*
X4921782Y4150842D1*
X4914054Y4161479D1*
X4908085Y4173195D1*
X4904022Y4185699D1*
X4901965Y4198686D1*
X4901707Y4217564D1*
X4884034Y4232637D1*
X4869411Y4249759D1*
X4858528Y4267383D1*
X4847583Y4249759D1*
X4832959Y4232637D1*
X4827562Y4227648D1*
X4920914Y4133974D1*
X4928642Y4123337D1*
X4934611Y4111622D1*
X4938674Y4099117D1*
X4940731Y4086131D1*
X4940989Y3962435D1*
X4773423Y3688952D2*
X4753943Y3684377D1*
X4731497Y3682610D1*
X4709050Y3684377D1*
X4686949Y3689709D1*
X4686731Y3604566D1*
X4684674Y3591580D1*
X4680601Y3579052D1*
X4688747Y3584464D1*
X4773370Y3669087D1*
X4773409Y3688834D1*
X4686949Y3962491D2*
X4709050Y3967823D1*
X4731497Y3969590D1*
X4753943Y3967823D1*
X4773423Y3963248D1*
X4773409Y4044849D1*
X4667782Y4150842D1*
X4660054Y4161480D1*
X4654085Y4173195D1*
X4650022Y4185699D1*
X4647965Y4198686D1*
X4647707Y4217564D1*
X4630034Y4232637D1*
X4615411Y4249759D1*
X4604528Y4267383D1*
X4593583Y4249759D1*
X4578959Y4232637D1*
X4561289Y4217647D1*
X4561287Y4200936D1*
X4666914Y4094876D1*
X4674642Y4084239D1*
X4680611Y4072524D1*
X4684674Y4060019D1*
X4686731Y4047033D1*
X4686989Y3962529D1*
X4432949Y3962491D2*
X4455050Y3967823D1*
X4477497Y3969590D1*
X4499943Y3967823D1*
X4519423Y3963248D1*
X4519409Y4005711D1*
X4413782Y4111744D1*
X4406054Y4122381D1*
X4400085Y4134096D1*
X4396022Y4146601D1*
X4393965Y4159587D1*
X4393706Y4217659D1*
X4376034Y4232637D1*
X4361411Y4249759D1*
X4350528Y4267383D1*
X4339583Y4249759D1*
X4324959Y4232637D1*
X4307289Y4217647D1*
X4307287Y4165207D1*
X4412914Y4059275D1*
X4420642Y4048638D1*
X4426611Y4036923D1*
X4430674Y4024419D1*
X4432731Y4011432D1*
X4432989Y3962475D1*
X2146949Y3962491D2*
X2169050Y3967823D1*
X2191497Y3969590D1*
X2213943Y3967823D1*
X2233423Y3963248D1*
X2233409Y4024513D1*
X2134760Y4123169D1*
X2140611Y4111622D1*
X2144674Y4099117D1*
X2146731Y4086131D1*
X2146989Y3962435D1*
X2400949Y3962491D2*
X2423050Y3967823D1*
X2445497Y3969590D1*
X2467943Y3967823D1*
X2487423Y3963248D1*
X2487409Y4044879D1*
X2381782Y4150842D1*
X2374054Y4161480D1*
X2368085Y4173195D1*
X2364022Y4185699D1*
X2361965Y4198686D1*
X2361707Y4217564D1*
X2344034Y4232637D1*
X2329411Y4249759D1*
X2318528Y4267383D1*
X2307583Y4249759D1*
X2292959Y4232637D1*
X2276426Y4218477D1*
X2380914Y4113644D1*
X2388642Y4103007D1*
X2394611Y4091292D1*
X2398674Y4078787D1*
X2400731Y4065801D1*
X2400990Y3962521D1*
X2654949Y3962491D2*
X2677050Y3967823D1*
X2699497Y3969590D1*
X2721943Y3967823D1*
X2726562Y3966905D1*
X2655033Y4038428D1*
X2654989Y3962435D1*
X2995423Y3688952D2*
X2975943Y3684377D1*
X2953497Y3682610D1*
X2931050Y3684377D1*
X2908949Y3689709D1*
X2908731Y3607297D1*
X2906674Y3594310D1*
X2902611Y3581806D1*
X2899844Y3575809D1*
X2910747Y3584464D1*
X2995370Y3669087D1*
X2995409Y3688834D1*
X2908949Y3962491D2*
X2931050Y3967823D1*
X2953497Y3969590D1*
X2975943Y3967823D1*
X2995423Y3963248D1*
X2995409Y4001828D1*
X2889782Y4107744D1*
X2882054Y4118381D1*
X2876085Y4130096D1*
X2872022Y4142601D1*
X2869965Y4155587D1*
X2869707Y4217669D1*
X2852034Y4232637D1*
X2837411Y4249759D1*
X2826528Y4267383D1*
X2815583Y4249759D1*
X2800959Y4232637D1*
X2783289Y4217647D1*
X2783287Y4147160D1*
X2888914Y4041176D1*
X2896642Y4030538D1*
X2902611Y4018823D1*
X2906674Y4006319D1*
X2908731Y3993332D1*
X2908989Y3962422D1*
X3162949Y3962491D2*
X3185050Y3967823D1*
X3207497Y3969590D1*
X3229943Y3967823D1*
X3249423Y3963248D1*
X3249409Y4044798D1*
X3143782Y4150842D1*
X3136054Y4161479D1*
X3130085Y4173195D1*
X3126022Y4185699D1*
X3123965Y4198686D1*
X3123707Y4217564D1*
X3106034Y4232637D1*
X3091411Y4249759D1*
X3080528Y4267383D1*
X3069583Y4249759D1*
X3054959Y4232637D1*
X3037289Y4217647D1*
X3037287Y4196926D1*
X3142914Y4090876D1*
X3150642Y4080238D1*
X3156611Y4068523D1*
X3160674Y4056019D1*
X3162731Y4043032D1*
X3162989Y3962539D1*
X3416949Y3962491D2*
X3439050Y3967823D1*
X3461497Y3969590D1*
X3483943Y3967823D1*
X3503423Y3963248D1*
X3503409Y3995995D1*
X3416904Y4082537D1*
X3416989Y3962435D1*
X3670949Y3962491D2*
X3693050Y3967823D1*
X3715497Y3969590D1*
X3737943Y3967823D1*
X3757423Y3963248D1*
X3757409Y4044798D1*
X3651782Y4150842D1*
X3644054Y4161479D1*
X3638085Y4173195D1*
X3634022Y4185699D1*
X3631965Y4198686D1*
X3631707Y4217564D1*
X3614034Y4232637D1*
X3599411Y4249759D1*
X3588528Y4267383D1*
X3577583Y4249759D1*
X3562959Y4232637D1*
X3545289Y4217647D1*
X3545287Y4191092D1*
X3650914Y4085155D1*
X3658642Y4074518D1*
X3664611Y4062803D1*
X3668674Y4050299D1*
X3670731Y4037312D1*
X3670989Y3962470D1*
X3924949Y3962491D2*
X3947050Y3967823D1*
X3969497Y3969590D1*
X3991943Y3967823D1*
X4011423Y3963248D1*
X4011409Y4042199D1*
X3905782Y4148122D1*
X3898054Y4158759D1*
X3892085Y4170474D1*
X3888022Y4182979D1*
X3885965Y4195965D1*
X3885155Y4218014D1*
X3868034Y4232637D1*
X3853411Y4249759D1*
X3842528Y4267383D1*
X3831583Y4249759D1*
X3816959Y4232637D1*
X3811562Y4227648D1*
X3904914Y4133974D1*
X3912642Y4123337D1*
X3918611Y4111622D1*
X3922674Y4099117D1*
X3924731Y4086131D1*
X3924989Y3962435D1*
X4178949Y3962491D2*
X4201050Y3967823D1*
X4223497Y3969590D1*
X4245943Y3967823D1*
X4265423Y3963248D1*
X4256953Y3978608D1*
X4179033Y4056528D1*
X4178990Y3962449D1*
X5620466Y4267383D2*
X5609583Y4249759D1*
X5594959Y4232637D1*
X5589562Y4227648D1*
X5677451Y4139802D1*
X5670085Y4153705D1*
X5666022Y4166210D1*
X5663965Y4179196D1*
X5663707Y4217580D1*
X5646034Y4232637D1*
X5631411Y4249759D1*
X5620528Y4267383D1*
X5155704Y4217647D2*
X5138034Y4232637D1*
X5123411Y4249759D1*
X5112528Y4267383D1*
X5101583Y4249759D1*
X5086959Y4232637D1*
X5081562Y4227648D1*
X5155663Y4153590D1*
X5155707Y4217645D1*
X4139704Y4217647D2*
X4122034Y4232637D1*
X4107411Y4249759D1*
X4096528Y4267383D1*
X4085583Y4249759D1*
X4070959Y4232637D1*
X4064140Y4226334D1*
X4139663Y4150870D1*
X4139707Y4217605D1*
X3377704Y4217647D2*
X3360034Y4232637D1*
X3345411Y4249759D1*
X3334528Y4267383D1*
X3323583Y4249759D1*
X3308959Y4232637D1*
X3303562Y4227648D1*
X3377792Y4153461D1*
X3377707Y4217600D1*
X2615704Y4217647D2*
X2598034Y4232637D1*
X2583411Y4249759D1*
X2572528Y4267383D1*
X2561583Y4249759D1*
X2546959Y4232637D1*
X2541562Y4227648D1*
X2615663Y4153590D1*
X2615706Y4217552D1*
X2107704Y4217647D2*
X2090034Y4232637D1*
X2080996Y4242673D1*
X2080987Y4190610D1*
X2070687D1*
X2119936Y4141318D1*
X2114085Y4152864D1*
X2110022Y4165369D1*
X2107965Y4178355D1*
X2107707Y4217651D1*
X5702949Y3962491D2*
X5725050Y3967823D1*
X5747497Y3969590D1*
X5769943Y3967823D1*
X5789423Y3963248D1*
X5789409Y4025401D1*
X5689245Y4125525D1*
X5696611Y4111622D1*
X5700674Y4099117D1*
X5702731Y4086131D1*
X5702989Y3962435D1*
X5874466Y4267383D2*
X5863583Y4249759D1*
X5848959Y4232637D1*
X5832909Y4218859D1*
X5936914Y4114485D1*
X5944642Y4103848D1*
X5950611Y4092133D1*
X5954674Y4079628D1*
X5956731Y4066642D1*
X5956990Y3962450D1*
X5979050Y3967823D1*
X6001497Y3969590D1*
X6023943Y3967823D1*
X6043423Y3963248D1*
X6043409Y4044798D1*
X5937782Y4150842D1*
X5930054Y4161480D1*
X5924085Y4173195D1*
X5920022Y4185699D1*
X5917965Y4198686D1*
X5917707Y4217564D1*
X5900034Y4232637D1*
X5885411Y4249759D1*
X5874528Y4267383D1*
X6128466D2*
X6117583Y4249759D1*
X6102959Y4232637D1*
X6097562Y4227648D1*
X6171663Y4153590D1*
X6171706Y4217615D1*
X6154034Y4232637D1*
X6139411Y4249759D1*
X6128528Y4267383D1*
X6210949Y3962491D2*
X6233050Y3967823D1*
X6255497Y3969590D1*
X6277943Y3967823D1*
X6297423Y3963248D1*
X6288952Y3990467D1*
X6211033Y4068387D1*
X6210989Y3962435D1*
X7144466Y4267383D2*
X7133583Y4249759D1*
X7118959Y4232637D1*
X7106642Y4221801D1*
X7206914Y4121175D1*
X7214642Y4110538D1*
X7220611Y4098823D1*
X7224674Y4086318D1*
X7226731Y4073332D1*
X7226989Y3962578D1*
X7249050Y3967823D1*
X7271497Y3969590D1*
X7293943Y3967823D1*
X7313423Y3963248D1*
X7313409Y4044895D1*
X7207782Y4150842D1*
X7200054Y4161479D1*
X7194085Y4173195D1*
X7190022Y4185699D1*
X7187965Y4198686D1*
X7187707Y4217564D1*
X7170034Y4232637D1*
X7155411Y4249759D1*
X7144528Y4267383D1*
X7313423Y3688952D2*
X7293943Y3684377D1*
X7271497Y3682610D1*
X7249050Y3684377D1*
X7226949Y3689709D1*
X7226989Y3031797D1*
X7313370Y3118247D1*
X7313409Y3688879D1*
X8414466Y4267383D2*
X8403583Y4249759D1*
X8388959Y4232637D1*
X8383562Y4227648D1*
X8457663Y4153590D1*
X8457707Y4217615D1*
X8440034Y4232637D1*
X8425411Y4249759D1*
X8414528Y4267383D1*
X8583423Y3688952D2*
X8563943Y3684377D1*
X8541497Y3682610D1*
X8519050Y3684377D1*
X8496949Y3689709D1*
X8496990Y3351758D1*
X8583370Y3438077D1*
X8583409Y3688787D1*
X8496949Y3962491D2*
X8519050Y3967823D1*
X8541497Y3969590D1*
X8563943Y3967823D1*
X8583409Y3963409D1*
Y3982094D1*
X8497033Y4068387D1*
X8496990Y3962435D1*
X8668466Y4267383D2*
X8657583Y4249759D1*
X8642959Y4232637D1*
X8625289Y4217647D1*
X8625287Y4177056D1*
X8730914Y4071135D1*
X8738642Y4060498D1*
X8744611Y4048782D1*
X8748674Y4036278D1*
X8750731Y4023292D1*
X8751156Y3962567D1*
X8773050Y3967823D1*
X8795497Y3969590D1*
X8817943Y3967823D1*
X8837423Y3963248D1*
X8837409Y3994047D1*
X8731782Y4099964D1*
X8724054Y4110601D1*
X8718085Y4122316D1*
X8714022Y4134821D1*
X8711965Y4147807D1*
X8711706Y4217545D1*
X8694034Y4232637D1*
X8679411Y4249759D1*
X8668528Y4267383D1*
X9512949Y3962491D2*
X9535050Y3967823D1*
X9557497Y3969590D1*
X9579943Y3967823D1*
X9599423Y3963248D1*
X9599409Y3982090D1*
X9513033Y4068387D1*
X9512989Y3962435D1*
X9105028Y1901098D2*
X9108696Y1906591D1*
D16*
X1698573Y1412793D3*
X1952573D3*
X2206573D3*
X2460573D3*
X2714573D3*
X2968573D3*
X3222573D3*
X3476573D3*
X3730573D3*
X3984573D3*
X4238573D3*
X4492573D3*
X4746573D3*
X5000573D3*
X5254573D3*
X5508573D3*
X5762573D3*
X6016573D3*
X6270573D3*
X6524573D3*
X6778573D3*
X7032573D3*
X7286573D3*
X7540573D3*
X7794573D3*
X8048573D3*
X8302573D3*
X8556573D3*
X8810573D3*
X9064573D3*
X9318573D3*
Y1158793D3*
X9064573D3*
X8810573D3*
X8556573D3*
X8302573D3*
X8048573D3*
X7794573D3*
X7540573D3*
X7286573D3*
X7032573D3*
X6778573D3*
X6524573D3*
X6270573D3*
X6016573D3*
X5762573D3*
X5508573D3*
X5254573D3*
X5000573D3*
X4746573D3*
X4492573D3*
X4238573D3*
X3984573D3*
X3730573D3*
X3476573D3*
X3222573D3*
X2968573D3*
X2714573D3*
X2460573D3*
X2206573D3*
X1952573D3*
D17*
X1698573D3*
D18*
X9303497Y2270133D3*
Y1762133D3*
X9049497Y2270133D3*
Y1762133D3*
X8033497Y2270133D3*
Y1762133D3*
X7779497Y2270133D3*
Y1762133D3*
X7525497Y2270133D3*
Y1762133D3*
X6763497D3*
Y2270133D3*
X6509497D3*
Y1762133D3*
X5493497D3*
X5239497D3*
X4985497D3*
X4731497D3*
X4477497D3*
X1937497D3*
X2191497D3*
X2445497D3*
X2699497D3*
X2953497D3*
X3207497D3*
X3461497D3*
X3715497D3*
X3969497D3*
X4223497D3*
X5493497Y2270133D3*
X5239497D3*
X4985497D3*
X4731497D3*
X4477497D3*
X4223497D3*
X3969497D3*
X3715497D3*
X3461497D3*
X3207497D3*
X2953497D3*
X2699497D3*
X2445497D3*
X2191497D3*
D19*
X1937497D3*
D18*
X5747497Y1762133D3*
Y2270133D3*
X6001497D3*
Y1762133D3*
X6255497Y2270133D3*
Y1762133D3*
X7017497D3*
Y2270133D3*
X7271497D3*
Y1762133D3*
X8287497D3*
Y2270133D3*
X8541497Y1762133D3*
Y2270133D3*
X8795497Y1762133D3*
Y2270133D3*
X9557497Y1762133D3*
Y2270133D3*
X9303497Y4334100D3*
Y3826100D3*
X9049497Y4334100D3*
Y3826100D3*
X8033497Y4334100D3*
Y3826100D3*
X7779497Y4334100D3*
Y3826100D3*
X7525497Y4334100D3*
Y3826100D3*
X6763497D3*
Y4334100D3*
X6509497D3*
Y3826100D3*
X5493497D3*
X5239497D3*
X4985497D3*
X4731497D3*
X4477497D3*
X1937497D3*
X2191497D3*
X2445497D3*
X2699497D3*
X2953497D3*
X3207497D3*
X3461497D3*
X3715497D3*
X3969497D3*
X4223497D3*
X5493497Y4334100D3*
X5239497D3*
X4985497D3*
X4731497D3*
X4477497D3*
X4223497D3*
X3969497D3*
X3715497D3*
X3461497D3*
X3207497D3*
X2953497D3*
X2699497D3*
X2445497D3*
X2191497D3*
D19*
X1937497D3*
D18*
X5747497Y3826100D3*
Y4334100D3*
X6001497D3*
Y3826100D3*
X6255497Y4334100D3*
Y3826100D3*
X7017497D3*
Y4334100D3*
X7271497D3*
Y3826100D3*
X8287497D3*
Y4334100D3*
X8541497Y3826100D3*
Y4334100D3*
X8795497Y3826100D3*
Y4334100D3*
X9557497Y3826100D3*
Y4334100D3*
M02*
