M48
METRIC,0000.00
T01C0.965
T02C1.02
%
T01
X+009303Y+002270
X+009049Y+002270
X+008795Y+002270
X+008541Y+002270
X+008287Y+002270
X+008033Y+002270
X+007779Y+002270
X+007525Y+002270
X+007271Y+002270
X+007017Y+002270
X+006763Y+002270
X+006509Y+002270
X+006255Y+002270
X+006001Y+002270
X+005747Y+002270
X+005493Y+002270
X+005239Y+002270
X+004985Y+002270
X+004731Y+002270
X+004477Y+002270
X+004223Y+002270
X+003969Y+002270
X+003715Y+002270
X+003461Y+002270
X+003207Y+002270
X+002953Y+002270
X+002699Y+002270
X+002445Y+002270
X+002191Y+002270
X+001937Y+002270
X+001937Y+001762
X+002191Y+001762
X+002445Y+001762
X+002699Y+001762
X+002953Y+001762
X+003207Y+001762
X+003461Y+001762
X+003715Y+001762
X+003969Y+001762
X+004223Y+001762
X+004477Y+001762
X+004731Y+001762
X+004985Y+001762
X+005239Y+001762
X+005493Y+001762
X+005747Y+001762
X+006001Y+001762
X+006255Y+001762
X+006509Y+001762
X+006763Y+001762
X+007017Y+001762
X+007271Y+001762
X+007525Y+001762
X+007779Y+001762
X+008033Y+001762
X+008287Y+001762
X+008541Y+001762
X+008795Y+001762
X+009049Y+001762
X+009303Y+001762
X+009557Y+001762
X+009557Y+002270
X+009557Y+003826
X+009303Y+003826
X+009049Y+003826
X+008795Y+003826
X+008541Y+003826
X+008287Y+003826
X+008033Y+003826
X+007779Y+003826
X+007525Y+003826
X+007271Y+003826
X+007017Y+003826
X+006763Y+003826
X+006509Y+003826
X+006255Y+003826
X+006001Y+003826
X+005747Y+003826
X+005493Y+003826
X+005239Y+003826
X+004985Y+003826
X+004731Y+003826
X+004477Y+003826
X+004223Y+003826
X+003969Y+003826
X+003715Y+003826
X+003461Y+003826
X+003207Y+003826
X+002953Y+003826
X+002699Y+003826
X+002445Y+003826
X+002191Y+003826
X+001937Y+003826
X+001937Y+004334
X+002191Y+004334
X+002445Y+004334
X+002699Y+004334
X+002953Y+004334
X+003207Y+004334
X+003461Y+004334
X+003715Y+004334
X+003969Y+004334
X+004223Y+004334
X+004477Y+004334
X+004731Y+004334
X+004985Y+004334
X+005239Y+004334
X+005493Y+004334
X+005747Y+004334
X+006001Y+004334
X+006255Y+004334
X+006509Y+004334
X+006763Y+004334
X+007017Y+004334
X+007271Y+004334
X+007525Y+004334
X+007779Y+004334
X+008033Y+004334
X+008287Y+004334
X+008541Y+004334
X+008795Y+004334
X+009049Y+004334
X+009303Y+004334
X+009557Y+004334
T02
X+001699Y+001413
X+001953Y+001413
X+001953Y+001159
X+001699Y+001159
X+002207Y+001159
X+002207Y+001413
X+002461Y+001413
X+002461Y+001159
X+002715Y+001159
X+002969Y+001159
X+002969Y+001413
X+002715Y+001413
X+003223Y+001413
X+003477Y+001413
X+003477Y+001159
X+003223Y+001159
X+003731Y+001159
X+003731Y+001413
X+003985Y+001413
X+003985Y+001159
X+004239Y+001159
X+004239Y+001413
X+004493Y+001413
X+004747Y+001413
X+004747Y+001159
X+004493Y+001159
X+005001Y+001159
X+005001Y+001413
X+005255Y+001413
X+005255Y+001159
X+005509Y+001159
X+005509Y+001413
X+005763Y+001413
X+005763Y+001159
X+006017Y+001159
X+006017Y+001413
X+006271Y+001413
X+006525Y+001413
X+006525Y+001159
X+006271Y+001159
X+006779Y+001159
X+006779Y+001413
X+007033Y+001413
X+007033Y+001159
X+007287Y+001159
X+007287Y+001413
X+007541Y+001413
X+007795Y+001413
X+007795Y+001159
X+007541Y+001159
X+008049Y+001159
X+008049Y+001413
X+008303Y+001413
X+008303Y+001159
X+008557Y+001159
X+008557Y+001413
X+008811Y+001413
X+008811Y+001159
X+009065Y+001159
X+009065Y+001413
X+009319Y+001413
X+009319Y+001159
T00
M30
