G04 DipTrace 3.2.0.1*
G04 Top.gbr*
%MOMM*%
G04 #@! TF.FileFunction,Copper,L1,Top*
G04 #@! TF.Part,Single*
G04 #@! TA.AperFunction,Conductor*
%ADD14C,0.33*%
G04 #@! TA.AperFunction,CopperBalancing*
%ADD15C,0.635*%
G04 #@! TA.AperFunction,ComponentPad*
%ADD16C,1.62*%
%ADD17R,1.62X1.62*%
%ADD18C,1.524*%
%ADD19R,1.524X1.524*%
%FSLAX35Y35*%
G04*
G71*
G90*
G75*
G01*
G04 Top*
%LPD*%
X7779497Y2270133D2*
D14*
X7905199Y2395836D1*
Y4208397D1*
X7779497Y4334100D1*
X1937497Y1762133D2*
Y1604087D1*
X1825587Y1492177D1*
Y1285807D1*
X1698573Y1158793D1*
X1937497Y1762133D2*
Y1956983D1*
X2063199Y2082685D1*
Y3700397D1*
X1937497Y3826100D1*
X2191497Y1762133D2*
Y1619937D1*
X2079613Y1508053D1*
Y1285833D1*
X1952573Y1158793D1*
X2191497Y1762133D2*
Y1956983D1*
X2317199Y2082685D1*
Y3700397D1*
X2191497Y3826100D1*
X2445497Y1762133D2*
Y1604033D1*
X2333640Y1492177D1*
Y1285860D1*
X2206573Y1158793D1*
X2445497Y1762133D2*
Y1956983D1*
X2571199Y2082685D1*
Y3700397D1*
X2445497Y3826100D1*
X2699497Y1762133D2*
Y1619883D1*
X2587667Y1508053D1*
Y1285887D1*
X2460573Y1158793D1*
X2699497Y1762133D2*
Y1956983D1*
X2825199Y2082685D1*
Y3700397D1*
X2699497Y3826100D1*
X2953497Y1762133D2*
Y1635733D1*
X2841693Y1523930D1*
Y1285913D1*
X2714573Y1158793D1*
X2953497Y1762133D2*
Y1956983D1*
X3079199Y2082685D1*
Y3700397D1*
X2953497Y3826100D1*
X3207497Y1762133D2*
Y1603953D1*
X3095720Y1492177D1*
Y1285940D1*
X2968573Y1158793D1*
X3207497Y1762133D2*
Y1956983D1*
X3333199Y2082685D1*
Y3700397D1*
X3207497Y3826100D1*
X3461497Y1762133D2*
Y1619803D1*
X3349747Y1508053D1*
Y1285967D1*
X3222573Y1158793D1*
X3461497Y1762133D2*
Y1956983D1*
X3587199Y2082685D1*
Y3700397D1*
X3461497Y3826100D1*
X3715497Y1762133D2*
Y1619777D1*
X3603773Y1508053D1*
Y1285993D1*
X3476573Y1158793D1*
X3715497Y1762133D2*
Y1956983D1*
X3841199Y2082685D1*
Y3700397D1*
X3715497Y3826100D1*
X3969497Y1762133D2*
Y1603873D1*
X3857800Y1492177D1*
Y1286020D1*
X3730573Y1158793D1*
X3969497Y1762133D2*
Y1956983D1*
X4095199Y2082685D1*
Y3700397D1*
X3969497Y3826100D1*
X4223497Y1762133D2*
Y1619723D1*
X4111827Y1508053D1*
Y1286047D1*
X3984573Y1158793D1*
X4223497Y1762133D2*
Y1956983D1*
X4349199Y2082685D1*
Y3700397D1*
X4223497Y3826100D1*
X4477497Y1762133D2*
Y1619697D1*
X4365853Y1508053D1*
Y1286073D1*
X4238573Y1158793D1*
X4477497Y1762133D2*
Y1956983D1*
X4603199Y2082685D1*
Y3700397D1*
X4477497Y3826100D1*
X4731497Y1762133D2*
Y1635547D1*
X4619880Y1523930D1*
Y1286100D1*
X4492573Y1158793D1*
X4731497Y1762133D2*
Y1956983D1*
X4857199Y2082685D1*
Y3700397D1*
X4731497Y3826100D1*
X4985497Y1762133D2*
Y1603767D1*
X4873907Y1492177D1*
Y1286127D1*
X4746573Y1158793D1*
X4985497Y1762133D2*
Y1956983D1*
X5111199Y2082685D1*
Y3700397D1*
X4985497Y3826100D1*
X5239497Y1762133D2*
Y1635493D1*
X5127933Y1523930D1*
Y1286153D1*
X5000573Y1158793D1*
X5239497Y1762133D2*
Y1956983D1*
X5365199Y2082685D1*
Y3700397D1*
X5239497Y3826100D1*
X5493497Y1762133D2*
Y1635467D1*
X5381960Y1523930D1*
Y1286180D1*
X5254573Y1158793D1*
X5493497Y1762133D2*
Y1956983D1*
X5619199Y2082685D1*
Y3700397D1*
X5493497Y3826100D1*
X5747497Y1762133D2*
Y1635440D1*
X5635987Y1523930D1*
Y1286207D1*
X5508573Y1158793D1*
X5747497Y1762133D2*
Y1956983D1*
X5873199Y2082685D1*
Y3700397D1*
X5747497Y3826100D1*
X6001497Y1762133D2*
Y1619537D1*
X5890013Y1508053D1*
Y1286233D1*
X5762573Y1158793D1*
X6001497Y1762133D2*
Y1956983D1*
X6127199Y2082685D1*
Y3700397D1*
X6001497Y3826100D1*
X6255497Y1762133D2*
Y1619510D1*
X6144040Y1508053D1*
Y1286260D1*
X6016573Y1158793D1*
X6255497Y1762133D2*
Y1956983D1*
X6381199Y2082685D1*
Y3700397D1*
X6255497Y3826100D1*
X6509497Y1762133D2*
Y1619483D1*
X6398067Y1508053D1*
Y1286287D1*
X6270573Y1158793D1*
X6509497Y1762133D2*
Y1956983D1*
X6635199Y2082685D1*
Y3700397D1*
X6509497Y3826100D1*
X6763497Y1762133D2*
Y1603580D1*
X6652093Y1492177D1*
Y1286313D1*
X6524573Y1158793D1*
X6763497Y1762133D2*
Y1956983D1*
X6889199Y2082685D1*
Y3700397D1*
X6763497Y3826100D1*
X7017497Y1762133D2*
Y1619430D1*
X6906120Y1508053D1*
Y1286340D1*
X6778573Y1158793D1*
X7017497Y1762133D2*
Y1956983D1*
X7143199Y2082685D1*
Y3700397D1*
X7017497Y3826100D1*
X7271497Y1762133D2*
Y1603527D1*
X7160147Y1492177D1*
Y1286367D1*
X7032573Y1158793D1*
X7271497Y1762133D2*
Y1956983D1*
X7397199Y2082685D1*
Y3700397D1*
X7271497Y3826100D1*
X7525497Y1762133D2*
Y1603500D1*
X7414173Y1492177D1*
Y1286393D1*
X7286573Y1158793D1*
X7525497Y1762133D2*
Y1956983D1*
X7651199Y2082685D1*
Y3700397D1*
X7525497Y3826100D1*
X7779497Y1762133D2*
Y1587597D1*
X7668200Y1476300D1*
Y1286420D1*
X7540573Y1158793D1*
X8033497Y1762133D2*
Y1603447D1*
X7922227Y1492177D1*
Y1286447D1*
X7794573Y1158793D1*
X8033497Y1762133D2*
Y1956983D1*
X8159199Y2082685D1*
Y3700397D1*
X8033497Y3826100D1*
X8287497Y1762133D2*
Y1619297D1*
X8176253Y1508053D1*
Y1286473D1*
X8048573Y1158793D1*
X8287497Y1762133D2*
Y1956983D1*
X8413199Y2082685D1*
Y3700397D1*
X8287497Y3826100D1*
X8541497Y1762133D2*
Y1587517D1*
X8430280Y1476300D1*
Y1286500D1*
X8302573Y1158793D1*
X8541497Y1762133D2*
Y1956983D1*
X8667199Y2082685D1*
Y3700397D1*
X8541497Y3826100D1*
X8795497Y1762133D2*
Y1619243D1*
X8684307Y1508053D1*
Y1286527D1*
X8556573Y1158793D1*
X8795497Y1762133D2*
Y1956983D1*
X8921199Y2082685D1*
Y3700397D1*
X8795497Y3826100D1*
X9049497Y1762133D2*
Y1635093D1*
X8938333Y1523930D1*
Y1286553D1*
X8810573Y1158793D1*
X9049497Y1762133D2*
Y1956983D1*
X9175199Y2082685D1*
Y3700397D1*
X9049497Y3826100D1*
X9303497Y1762133D2*
Y1603313D1*
X9192360Y1492177D1*
Y1286580D1*
X9064573Y1158793D1*
X9303497Y1762133D2*
Y1956983D1*
X9429199Y2082685D1*
Y3700397D1*
X9303497Y3826100D1*
X9557497Y1762133D2*
Y1619163D1*
X9446387Y1508053D1*
Y1286607D1*
X9318573Y1158793D1*
X9557497Y1762133D2*
Y1923980D1*
X9749201Y2115685D1*
Y3634395D1*
X9557497Y3826100D1*
X1104146Y4506593D2*
D15*
X10263177D1*
X1104146Y4443427D2*
X1787617D1*
X2290773D2*
X2346250D1*
X2544797D2*
X2600182D1*
X2798820D2*
X2854206D1*
X3052752D2*
X3108229D1*
X3306776D2*
X3362253D1*
X3560799D2*
X3616185D1*
X3814823D2*
X3870209D1*
X4068755D2*
X4124232D1*
X4322778D2*
X4378255D1*
X4576802D2*
X4632188D1*
X4830825D2*
X4886211D1*
X5084757D2*
X5140235D1*
X5338781D2*
X5394167D1*
X5592804D2*
X5648190D1*
X5846828D2*
X5902214D1*
X6100760D2*
X6156237D1*
X6354784D2*
X6410169D1*
X6608807D2*
X6664193D1*
X6862739D2*
X6918216D1*
X7116763D2*
X7172240D1*
X7370786D2*
X7426172D1*
X7624810D2*
X7680196D1*
X7878742D2*
X7934219D1*
X8132765D2*
X8188242D1*
X8386789D2*
X8442175D1*
X8640812D2*
X8696198D1*
X8894744D2*
X8950222D1*
X9148768D2*
X9204245D1*
X9402791D2*
X9458177D1*
X9656815D2*
X10263177D1*
X1104146Y4380260D2*
X1787617D1*
X9699744D2*
X10263177D1*
X1104146Y4317093D2*
X1787617D1*
X9706307D2*
X10263177D1*
X1104146Y4253927D2*
X1787617D1*
X9682882D2*
X10263177D1*
X1104146Y4190760D2*
X1787617D1*
X2087336D2*
X2178542D1*
X2204398D2*
X2432565D1*
X2458370D2*
X3702591D1*
X3728377D2*
X3956615D1*
X3982440D2*
X4210547D1*
X4236444D2*
X4464571D1*
X4490420D2*
X4718594D1*
X4744352D2*
X5734597D1*
X5760453D2*
X5988620D1*
X6014428D2*
X6242552D1*
X6268380D2*
X6496576D1*
X6522376D2*
X6750599D1*
X6776433D2*
X7797956D1*
X7995317D2*
X8020567D1*
X8046436D2*
X8274557D1*
X8300417D2*
X8528581D1*
X8554354D2*
X8782604D1*
X8808419D2*
X9036628D1*
X9062435D2*
X10263177D1*
X1104146Y4127593D2*
X7815091D1*
X7995317D2*
X10263177D1*
X1104146Y4064427D2*
X7815091D1*
X7995317D2*
X10263177D1*
X1104146Y4001260D2*
X7815091D1*
X7995317D2*
X10263177D1*
X1104146Y3938093D2*
X1841485D1*
X2033560D2*
X2095417D1*
X2287583D2*
X2349440D1*
X2541515D2*
X2603464D1*
X2795539D2*
X2857487D1*
X3049562D2*
X3111419D1*
X3303586D2*
X3365443D1*
X3557518D2*
X3619466D1*
X3811541D2*
X3873399D1*
X4065565D2*
X4127422D1*
X4319588D2*
X4381446D1*
X4573521D2*
X4635469D1*
X4827544D2*
X4889401D1*
X5081567D2*
X5143425D1*
X5335591D2*
X5397448D1*
X5589523D2*
X5651472D1*
X5843547D2*
X5905404D1*
X6097570D2*
X6159427D1*
X6351593D2*
X6413451D1*
X6605526D2*
X6667474D1*
X6859549D2*
X6921406D1*
X7113573D2*
X7175430D1*
X7367596D2*
X7429453D1*
X7621528D2*
X7683477D1*
X8129575D2*
X8191432D1*
X8383507D2*
X8445456D1*
X8637531D2*
X8699479D1*
X8891554D2*
X8953412D1*
X9145578D2*
X9207435D1*
X9399510D2*
X9461459D1*
X9653534D2*
X10263177D1*
X1104146Y3874927D2*
X1796185D1*
X9698742D2*
X10263177D1*
X1104146Y3811760D2*
X1788347D1*
X9706580D2*
X10263177D1*
X1104146Y3748593D2*
X1810404D1*
X9759810D2*
X10263177D1*
X1104146Y3685427D2*
X1902826D1*
X9821971D2*
X10263177D1*
X1104146Y3622260D2*
X1973099D1*
X2153325D2*
X2227031D1*
X2407349D2*
X2481055D1*
X2661372D2*
X2735078D1*
X2915304D2*
X2989102D1*
X3169328D2*
X3243034D1*
X3423351D2*
X3497057D1*
X3677375D2*
X3751081D1*
X3931307D2*
X4005104D1*
X4185330D2*
X4259037D1*
X4439354D2*
X4513060D1*
X4693377D2*
X4767084D1*
X4947310D2*
X5021016D1*
X5201333D2*
X5275039D1*
X5455356D2*
X5529063D1*
X5709380D2*
X5783086D1*
X5963312D2*
X6037018D1*
X6217336D2*
X6291042D1*
X6471359D2*
X6545065D1*
X6725382D2*
X6799089D1*
X6979315D2*
X7053021D1*
X7233338D2*
X7307044D1*
X7487362D2*
X7561068D1*
X7741294D2*
X7815091D1*
X7995317D2*
X8069024D1*
X8249341D2*
X8323047D1*
X8503364D2*
X8577071D1*
X8757297D2*
X8831094D1*
X9011320D2*
X9085026D1*
X9265343D2*
X9339050D1*
X9519367D2*
X9636459D1*
X9839380D2*
X10263177D1*
X1104146Y3559093D2*
X1973099D1*
X2153325D2*
X2227031D1*
X2407349D2*
X2481055D1*
X2661372D2*
X2735078D1*
X2915304D2*
X2989102D1*
X3169328D2*
X3243034D1*
X3423351D2*
X3497057D1*
X3677375D2*
X3751081D1*
X3931307D2*
X4005104D1*
X4185330D2*
X4259037D1*
X4439354D2*
X4513060D1*
X4693377D2*
X4767084D1*
X4947310D2*
X5021016D1*
X5201333D2*
X5275039D1*
X5455356D2*
X5529063D1*
X5709380D2*
X5783086D1*
X5963312D2*
X6037018D1*
X6217336D2*
X6291042D1*
X6471359D2*
X6545065D1*
X6725382D2*
X6799089D1*
X6979315D2*
X7053021D1*
X7233338D2*
X7307044D1*
X7487362D2*
X7561068D1*
X7741294D2*
X7815091D1*
X7995317D2*
X8069024D1*
X8249341D2*
X8323047D1*
X8503364D2*
X8577071D1*
X8757297D2*
X8831094D1*
X9011320D2*
X9085026D1*
X9265343D2*
X9339050D1*
X9519367D2*
X9659063D1*
X9839380D2*
X10263177D1*
X1104146Y3495927D2*
X1973099D1*
X2153325D2*
X2227031D1*
X2407349D2*
X2481055D1*
X2661372D2*
X2735078D1*
X2915304D2*
X2989102D1*
X3169328D2*
X3243034D1*
X3423351D2*
X3497057D1*
X3677375D2*
X3751081D1*
X3931307D2*
X4005104D1*
X4185330D2*
X4259037D1*
X4439354D2*
X4513060D1*
X4693377D2*
X4767084D1*
X4947310D2*
X5021016D1*
X5201333D2*
X5275039D1*
X5455356D2*
X5529063D1*
X5709380D2*
X5783086D1*
X5963312D2*
X6037018D1*
X6217336D2*
X6291042D1*
X6471359D2*
X6545065D1*
X6725382D2*
X6799089D1*
X6979315D2*
X7053021D1*
X7233338D2*
X7307044D1*
X7487362D2*
X7561068D1*
X7741294D2*
X7815091D1*
X7995317D2*
X8069024D1*
X8249341D2*
X8323047D1*
X8503364D2*
X8577071D1*
X8757297D2*
X8831094D1*
X9011320D2*
X9085026D1*
X9265343D2*
X9339050D1*
X9519367D2*
X9659063D1*
X9839380D2*
X10263177D1*
X1104146Y3432760D2*
X1973099D1*
X2153325D2*
X2227031D1*
X2407349D2*
X2481055D1*
X2661372D2*
X2735078D1*
X2915304D2*
X2989102D1*
X3169328D2*
X3243034D1*
X3423351D2*
X3497057D1*
X3677375D2*
X3751081D1*
X3931307D2*
X4005104D1*
X4185330D2*
X4259037D1*
X4439354D2*
X4513060D1*
X4693377D2*
X4767084D1*
X4947310D2*
X5021016D1*
X5201333D2*
X5275039D1*
X5455356D2*
X5529063D1*
X5709380D2*
X5783086D1*
X5963312D2*
X6037018D1*
X6217336D2*
X6291042D1*
X6471359D2*
X6545065D1*
X6725382D2*
X6799089D1*
X6979315D2*
X7053021D1*
X7233338D2*
X7307044D1*
X7487362D2*
X7561068D1*
X7741294D2*
X7815091D1*
X7995317D2*
X8069024D1*
X8249341D2*
X8323047D1*
X8503364D2*
X8577071D1*
X8757297D2*
X8831094D1*
X9011320D2*
X9085026D1*
X9265343D2*
X9339050D1*
X9519367D2*
X9659063D1*
X9839380D2*
X10263177D1*
X1104146Y3369593D2*
X1973099D1*
X2153325D2*
X2227031D1*
X2407349D2*
X2481055D1*
X2661372D2*
X2735078D1*
X2915304D2*
X2989102D1*
X3169328D2*
X3243034D1*
X3423351D2*
X3497057D1*
X3677375D2*
X3751081D1*
X3931307D2*
X4005104D1*
X4185330D2*
X4259037D1*
X4439354D2*
X4513060D1*
X4693377D2*
X4767084D1*
X4947310D2*
X5021016D1*
X5201333D2*
X5275039D1*
X5455356D2*
X5529063D1*
X5709380D2*
X5783086D1*
X5963312D2*
X6037018D1*
X6217336D2*
X6291042D1*
X6471359D2*
X6545065D1*
X6725382D2*
X6799089D1*
X6979315D2*
X7053021D1*
X7233338D2*
X7307044D1*
X7487362D2*
X7561068D1*
X7741294D2*
X7815091D1*
X7995317D2*
X8069024D1*
X8249341D2*
X8323047D1*
X8503364D2*
X8577071D1*
X8757297D2*
X8831094D1*
X9011320D2*
X9085026D1*
X9265343D2*
X9339050D1*
X9519367D2*
X9659063D1*
X9839380D2*
X10263177D1*
X1104146Y3306427D2*
X1973099D1*
X2153325D2*
X2227031D1*
X2407349D2*
X2481055D1*
X2661372D2*
X2735078D1*
X2915304D2*
X2989102D1*
X3169328D2*
X3243034D1*
X3423351D2*
X3497057D1*
X3677375D2*
X3751081D1*
X3931307D2*
X4005104D1*
X4185330D2*
X4259037D1*
X4439354D2*
X4513060D1*
X4693377D2*
X4767084D1*
X4947310D2*
X5021016D1*
X5201333D2*
X5275039D1*
X5455356D2*
X5529063D1*
X5709380D2*
X5783086D1*
X5963312D2*
X6037018D1*
X6217336D2*
X6291042D1*
X6471359D2*
X6545065D1*
X6725382D2*
X6799089D1*
X6979315D2*
X7053021D1*
X7233338D2*
X7307044D1*
X7487362D2*
X7561068D1*
X7741294D2*
X7815091D1*
X7995317D2*
X8069024D1*
X8249341D2*
X8323047D1*
X8503364D2*
X8577071D1*
X8757297D2*
X8831094D1*
X9011320D2*
X9085026D1*
X9265343D2*
X9339050D1*
X9519367D2*
X9659063D1*
X9839380D2*
X10263177D1*
X1104146Y3243260D2*
X1973099D1*
X2153325D2*
X2227031D1*
X2407349D2*
X2481055D1*
X2661372D2*
X2735078D1*
X2915304D2*
X2989102D1*
X3169328D2*
X3243034D1*
X3423351D2*
X3497057D1*
X3677375D2*
X3751081D1*
X3931307D2*
X4005104D1*
X4185330D2*
X4259037D1*
X4439354D2*
X4513060D1*
X4693377D2*
X4767084D1*
X4947310D2*
X5021016D1*
X5201333D2*
X5275039D1*
X5455356D2*
X5529063D1*
X5709380D2*
X5783086D1*
X5963312D2*
X6037018D1*
X6217336D2*
X6291042D1*
X6471359D2*
X6545065D1*
X6725382D2*
X6799089D1*
X6979315D2*
X7053021D1*
X7233338D2*
X7307044D1*
X7487362D2*
X7561068D1*
X7741294D2*
X7815091D1*
X7995317D2*
X8069024D1*
X8249341D2*
X8323047D1*
X8503364D2*
X8577071D1*
X8757297D2*
X8831094D1*
X9011320D2*
X9085026D1*
X9265343D2*
X9339050D1*
X9519367D2*
X9659063D1*
X9839380D2*
X10263177D1*
X1104146Y3180093D2*
X1973099D1*
X2153325D2*
X2227031D1*
X2407349D2*
X2481055D1*
X2661372D2*
X2735078D1*
X2915304D2*
X2989102D1*
X3169328D2*
X3243034D1*
X3423351D2*
X3497057D1*
X3677375D2*
X3751081D1*
X3931307D2*
X4005104D1*
X4185330D2*
X4259037D1*
X4439354D2*
X4513060D1*
X4693377D2*
X4767084D1*
X4947310D2*
X5021016D1*
X5201333D2*
X5275039D1*
X5455356D2*
X5529063D1*
X5709380D2*
X5783086D1*
X5963312D2*
X6037018D1*
X6217336D2*
X6291042D1*
X6471359D2*
X6545065D1*
X6725382D2*
X6799089D1*
X6979315D2*
X7053021D1*
X7233338D2*
X7307044D1*
X7487362D2*
X7561068D1*
X7741294D2*
X7815091D1*
X7995317D2*
X8069024D1*
X8249341D2*
X8323047D1*
X8503364D2*
X8577071D1*
X8757297D2*
X8831094D1*
X9011320D2*
X9085026D1*
X9265343D2*
X9339050D1*
X9519367D2*
X9659063D1*
X9839380D2*
X10263177D1*
X1104146Y3116927D2*
X1973099D1*
X2153325D2*
X2227031D1*
X2407349D2*
X2481055D1*
X2661372D2*
X2735078D1*
X2915304D2*
X2989102D1*
X3169328D2*
X3243034D1*
X3423351D2*
X3497057D1*
X3677375D2*
X3751081D1*
X3931307D2*
X4005104D1*
X4185330D2*
X4259037D1*
X4439354D2*
X4513060D1*
X4693377D2*
X4767084D1*
X4947310D2*
X5021016D1*
X5201333D2*
X5275039D1*
X5455356D2*
X5529063D1*
X5709380D2*
X5783086D1*
X5963312D2*
X6037018D1*
X6217336D2*
X6291042D1*
X6471359D2*
X6545065D1*
X6725382D2*
X6799089D1*
X6979315D2*
X7053021D1*
X7233338D2*
X7307044D1*
X7487362D2*
X7561068D1*
X7741294D2*
X7815091D1*
X7995317D2*
X8069024D1*
X8249341D2*
X8323047D1*
X8503364D2*
X8577071D1*
X8757297D2*
X8831094D1*
X9011320D2*
X9085026D1*
X9265343D2*
X9339050D1*
X9519367D2*
X9659063D1*
X9839380D2*
X10263177D1*
X1104146Y3053760D2*
X1973099D1*
X2153325D2*
X2227031D1*
X2407349D2*
X2481055D1*
X2661372D2*
X2735078D1*
X2915304D2*
X2989102D1*
X3169328D2*
X3243034D1*
X3423351D2*
X3497057D1*
X3677375D2*
X3751081D1*
X3931307D2*
X4005104D1*
X4185330D2*
X4259037D1*
X4439354D2*
X4513060D1*
X4693377D2*
X4767084D1*
X4947310D2*
X5021016D1*
X5201333D2*
X5275039D1*
X5455356D2*
X5529063D1*
X5709380D2*
X5783086D1*
X5963312D2*
X6037018D1*
X6217336D2*
X6291042D1*
X6471359D2*
X6545065D1*
X6725382D2*
X6799089D1*
X6979315D2*
X7053021D1*
X7233338D2*
X7307044D1*
X7487362D2*
X7561068D1*
X7741294D2*
X7815091D1*
X7995317D2*
X8069024D1*
X8249341D2*
X8323047D1*
X8503364D2*
X8577071D1*
X8757297D2*
X8831094D1*
X9011320D2*
X9085026D1*
X9265343D2*
X9339050D1*
X9519367D2*
X9659063D1*
X9839380D2*
X10263177D1*
X1104146Y2990593D2*
X1973099D1*
X2153325D2*
X2227031D1*
X2407349D2*
X2481055D1*
X2661372D2*
X2735078D1*
X2915304D2*
X2989102D1*
X3169328D2*
X3243034D1*
X3423351D2*
X3497057D1*
X3677375D2*
X3751081D1*
X3931307D2*
X4005104D1*
X4185330D2*
X4259037D1*
X4439354D2*
X4513060D1*
X4693377D2*
X4767084D1*
X4947310D2*
X5021016D1*
X5201333D2*
X5275039D1*
X5455356D2*
X5529063D1*
X5709380D2*
X5783086D1*
X5963312D2*
X6037018D1*
X6217336D2*
X6291042D1*
X6471359D2*
X6545065D1*
X6725382D2*
X6799089D1*
X6979315D2*
X7053021D1*
X7233338D2*
X7307044D1*
X7487362D2*
X7561068D1*
X7741294D2*
X7815091D1*
X7995317D2*
X8069024D1*
X8249341D2*
X8323047D1*
X8503364D2*
X8577071D1*
X8757297D2*
X8831094D1*
X9011320D2*
X9085026D1*
X9265343D2*
X9339050D1*
X9519367D2*
X9659063D1*
X9839380D2*
X10263177D1*
X1104146Y2927427D2*
X1973099D1*
X2153325D2*
X2227031D1*
X2407349D2*
X2481055D1*
X2661372D2*
X2735078D1*
X2915304D2*
X2989102D1*
X3169328D2*
X3243034D1*
X3423351D2*
X3497057D1*
X3677375D2*
X3751081D1*
X3931307D2*
X4005104D1*
X4185330D2*
X4259037D1*
X4439354D2*
X4513060D1*
X4693377D2*
X4767084D1*
X4947310D2*
X5021016D1*
X5201333D2*
X5275039D1*
X5455356D2*
X5529063D1*
X5709380D2*
X5783086D1*
X5963312D2*
X6037018D1*
X6217336D2*
X6291042D1*
X6471359D2*
X6545065D1*
X6725382D2*
X6799089D1*
X6979315D2*
X7053021D1*
X7233338D2*
X7307044D1*
X7487362D2*
X7561068D1*
X7741294D2*
X7815091D1*
X7995317D2*
X8069024D1*
X8249341D2*
X8323047D1*
X8503364D2*
X8577071D1*
X8757297D2*
X8831094D1*
X9011320D2*
X9085026D1*
X9265343D2*
X9339050D1*
X9519367D2*
X9659063D1*
X9839380D2*
X10263177D1*
X1104146Y2864260D2*
X1973099D1*
X2153325D2*
X2227031D1*
X2407349D2*
X2481055D1*
X2661372D2*
X2735078D1*
X2915304D2*
X2989102D1*
X3169328D2*
X3243034D1*
X3423351D2*
X3497057D1*
X3677375D2*
X3751081D1*
X3931307D2*
X4005104D1*
X4185330D2*
X4259037D1*
X4439354D2*
X4513060D1*
X4693377D2*
X4767084D1*
X4947310D2*
X5021016D1*
X5201333D2*
X5275039D1*
X5455356D2*
X5529063D1*
X5709380D2*
X5783086D1*
X5963312D2*
X6037018D1*
X6217336D2*
X6291042D1*
X6471359D2*
X6545065D1*
X6725382D2*
X6799089D1*
X6979315D2*
X7053021D1*
X7233338D2*
X7307044D1*
X7487362D2*
X7561068D1*
X7741294D2*
X7815091D1*
X7995317D2*
X8069024D1*
X8249341D2*
X8323047D1*
X8503364D2*
X8577071D1*
X8757297D2*
X8831094D1*
X9011320D2*
X9085026D1*
X9265343D2*
X9339050D1*
X9519367D2*
X9659063D1*
X9839380D2*
X10263177D1*
X1104146Y2801093D2*
X1973099D1*
X2153325D2*
X2227031D1*
X2407349D2*
X2481055D1*
X2661372D2*
X2735078D1*
X2915304D2*
X2989102D1*
X3169328D2*
X3243034D1*
X3423351D2*
X3497057D1*
X3677375D2*
X3751081D1*
X3931307D2*
X4005104D1*
X4185330D2*
X4259037D1*
X4439354D2*
X4513060D1*
X4693377D2*
X4767084D1*
X4947310D2*
X5021016D1*
X5201333D2*
X5275039D1*
X5455356D2*
X5529063D1*
X5709380D2*
X5783086D1*
X5963312D2*
X6037018D1*
X6217336D2*
X6291042D1*
X6471359D2*
X6545065D1*
X6725382D2*
X6799089D1*
X6979315D2*
X7053021D1*
X7233338D2*
X7307044D1*
X7487362D2*
X7561068D1*
X7741294D2*
X7815091D1*
X7995317D2*
X8069024D1*
X8249341D2*
X8323047D1*
X8503364D2*
X8577071D1*
X8757297D2*
X8831094D1*
X9011320D2*
X9085026D1*
X9265343D2*
X9339050D1*
X9519367D2*
X9659063D1*
X9839380D2*
X10263177D1*
X1104146Y2737927D2*
X1973099D1*
X2153325D2*
X2227031D1*
X2407349D2*
X2481055D1*
X2661372D2*
X2735078D1*
X2915304D2*
X2989102D1*
X3169328D2*
X3243034D1*
X3423351D2*
X3497057D1*
X3677375D2*
X3751081D1*
X3931307D2*
X4005104D1*
X4185330D2*
X4259037D1*
X4439354D2*
X4513060D1*
X4693377D2*
X4767084D1*
X4947310D2*
X5021016D1*
X5201333D2*
X5275039D1*
X5455356D2*
X5529063D1*
X5709380D2*
X5783086D1*
X5963312D2*
X6037018D1*
X6217336D2*
X6291042D1*
X6471359D2*
X6545065D1*
X6725382D2*
X6799089D1*
X6979315D2*
X7053021D1*
X7233338D2*
X7307044D1*
X7487362D2*
X7561068D1*
X7741294D2*
X7815091D1*
X7995317D2*
X8069024D1*
X8249341D2*
X8323047D1*
X8503364D2*
X8577071D1*
X8757297D2*
X8831094D1*
X9011320D2*
X9085026D1*
X9265343D2*
X9339050D1*
X9519367D2*
X9659063D1*
X9839380D2*
X10263177D1*
X1104146Y2674760D2*
X1973099D1*
X2153325D2*
X2227031D1*
X2407349D2*
X2481055D1*
X2661372D2*
X2735078D1*
X2915304D2*
X2989102D1*
X3169328D2*
X3243034D1*
X3423351D2*
X3497057D1*
X3677375D2*
X3751081D1*
X3931307D2*
X4005104D1*
X4185330D2*
X4259037D1*
X4439354D2*
X4513060D1*
X4693377D2*
X4767084D1*
X4947310D2*
X5021016D1*
X5201333D2*
X5275039D1*
X5455356D2*
X5529063D1*
X5709380D2*
X5783086D1*
X5963312D2*
X6037018D1*
X6217336D2*
X6291042D1*
X6471359D2*
X6545065D1*
X6725382D2*
X6799089D1*
X6979315D2*
X7053021D1*
X7233338D2*
X7307044D1*
X7487362D2*
X7561068D1*
X7741294D2*
X7815091D1*
X7995317D2*
X8069024D1*
X8249341D2*
X8323047D1*
X8503364D2*
X8577071D1*
X8757297D2*
X8831094D1*
X9011320D2*
X9085026D1*
X9265343D2*
X9339050D1*
X9519367D2*
X9659063D1*
X9839380D2*
X10263177D1*
X1104146Y2611593D2*
X1973099D1*
X2153325D2*
X2227031D1*
X2407349D2*
X2481055D1*
X2661372D2*
X2735078D1*
X2915304D2*
X2989102D1*
X3169328D2*
X3243034D1*
X3423351D2*
X3497057D1*
X3677375D2*
X3751081D1*
X3931307D2*
X4005104D1*
X4185330D2*
X4259037D1*
X4439354D2*
X4513060D1*
X4693377D2*
X4767084D1*
X4947310D2*
X5021016D1*
X5201333D2*
X5275039D1*
X5455356D2*
X5529063D1*
X5709380D2*
X5783086D1*
X5963312D2*
X6037018D1*
X6217336D2*
X6291042D1*
X6471359D2*
X6545065D1*
X6725382D2*
X6799089D1*
X6979315D2*
X7053021D1*
X7233338D2*
X7307044D1*
X7487362D2*
X7561068D1*
X7741294D2*
X7815091D1*
X7995317D2*
X8069024D1*
X8249341D2*
X8323047D1*
X8503364D2*
X8577071D1*
X8757297D2*
X8831094D1*
X9011320D2*
X9085026D1*
X9265343D2*
X9339050D1*
X9519367D2*
X9659063D1*
X9839380D2*
X10263177D1*
X1104146Y2548427D2*
X1973099D1*
X2153325D2*
X2227031D1*
X2407349D2*
X2481055D1*
X2661372D2*
X2735078D1*
X2915304D2*
X2989102D1*
X3169328D2*
X3243034D1*
X3423351D2*
X3497057D1*
X3677375D2*
X3751081D1*
X3931307D2*
X4005104D1*
X4185330D2*
X4259037D1*
X4439354D2*
X4513060D1*
X4693377D2*
X4767084D1*
X4947310D2*
X5021016D1*
X5201333D2*
X5275039D1*
X5455356D2*
X5529063D1*
X5709380D2*
X5783086D1*
X5963312D2*
X6037018D1*
X6217336D2*
X6291042D1*
X6471359D2*
X6545065D1*
X6725382D2*
X6799089D1*
X6979315D2*
X7053021D1*
X7233338D2*
X7307044D1*
X7487362D2*
X7561068D1*
X7741294D2*
X7815091D1*
X7995317D2*
X8069024D1*
X8249341D2*
X8323047D1*
X8503364D2*
X8577071D1*
X8757297D2*
X8831094D1*
X9011320D2*
X9085026D1*
X9265343D2*
X9339050D1*
X9519367D2*
X9659063D1*
X9839380D2*
X10263177D1*
X1104146Y2485260D2*
X1973099D1*
X2153325D2*
X2227031D1*
X2407349D2*
X2481055D1*
X2661372D2*
X2735078D1*
X2915304D2*
X2989102D1*
X3169328D2*
X3243034D1*
X3423351D2*
X3497057D1*
X3677375D2*
X3751081D1*
X3931307D2*
X4005104D1*
X4185330D2*
X4259037D1*
X4439354D2*
X4513060D1*
X4693377D2*
X4767084D1*
X4947310D2*
X5021016D1*
X5201333D2*
X5275039D1*
X5455356D2*
X5529063D1*
X5709380D2*
X5783086D1*
X5963312D2*
X6037018D1*
X6217336D2*
X6291042D1*
X6471359D2*
X6545065D1*
X6725382D2*
X6799089D1*
X6979315D2*
X7053021D1*
X7233338D2*
X7307044D1*
X7487362D2*
X7561068D1*
X7741294D2*
X7815091D1*
X7995317D2*
X8069024D1*
X8249341D2*
X8323047D1*
X8503364D2*
X8577071D1*
X8757297D2*
X8831094D1*
X9011320D2*
X9085026D1*
X9265343D2*
X9339050D1*
X9519367D2*
X9659063D1*
X9839380D2*
X10263177D1*
X1104146Y2422093D2*
X1973099D1*
X2153325D2*
X2227031D1*
X2407349D2*
X2481055D1*
X2661372D2*
X2735078D1*
X2915304D2*
X2989102D1*
X3169328D2*
X3243034D1*
X3423351D2*
X3497057D1*
X3677375D2*
X3751081D1*
X3931307D2*
X4005104D1*
X4185330D2*
X4259037D1*
X4439354D2*
X4513060D1*
X4693377D2*
X4767084D1*
X4947310D2*
X5021016D1*
X5201333D2*
X5275039D1*
X5455356D2*
X5529063D1*
X5709380D2*
X5783086D1*
X5963312D2*
X6037018D1*
X6217336D2*
X6291042D1*
X6471359D2*
X6545065D1*
X6725382D2*
X6799089D1*
X6979315D2*
X7053021D1*
X7233338D2*
X7307044D1*
X7487362D2*
X7561068D1*
X7741294D2*
X7806615D1*
X7995317D2*
X8069024D1*
X8249341D2*
X8323047D1*
X8503364D2*
X8577071D1*
X8757297D2*
X8831094D1*
X9011320D2*
X9085026D1*
X9265343D2*
X9339050D1*
X9519367D2*
X9659063D1*
X9839380D2*
X10263177D1*
X1104146Y2358927D2*
X1787617D1*
X9839380D2*
X10263177D1*
X1104146Y2295760D2*
X1787617D1*
X9839380D2*
X10263177D1*
X1104146Y2232593D2*
X1787617D1*
X9839380D2*
X10263177D1*
X1104146Y2169427D2*
X1787617D1*
X7888039D2*
X7924922D1*
X9839380D2*
X10263177D1*
X1104146Y2106260D2*
X1961888D1*
X2153325D2*
X2215912D1*
X2407349D2*
X2469935D1*
X2661372D2*
X2723959D1*
X2915304D2*
X2977891D1*
X3169328D2*
X3231914D1*
X3423351D2*
X3485938D1*
X3677375D2*
X3739961D1*
X3931307D2*
X3993893D1*
X4185330D2*
X4247917D1*
X4439354D2*
X4501940D1*
X4693377D2*
X4755964D1*
X4947310D2*
X5009896D1*
X5201333D2*
X5263919D1*
X5455356D2*
X5517943D1*
X5709380D2*
X5771966D1*
X5963312D2*
X6025899D1*
X6217336D2*
X6279922D1*
X6471359D2*
X6533946D1*
X6725382D2*
X6787969D1*
X6979315D2*
X7041901D1*
X7233338D2*
X7295925D1*
X7487362D2*
X7549948D1*
X7741294D2*
X8057904D1*
X8249341D2*
X8311927D1*
X8503364D2*
X8565951D1*
X8757297D2*
X8819883D1*
X9011320D2*
X9073906D1*
X9265343D2*
X9327930D1*
X9519367D2*
X9614948D1*
X9838833D2*
X10263177D1*
X1104146Y2043093D2*
X1898724D1*
X7731359D2*
X7994740D1*
X9509432D2*
X9551784D1*
X9801463D2*
X10263177D1*
X1104146Y1979927D2*
X1850599D1*
X2085330D2*
X2104489D1*
X2339263D2*
X2358555D1*
X2593286D2*
X2612578D1*
X2847310D2*
X2866602D1*
X3101333D2*
X3120568D1*
X3355265D2*
X3374530D1*
X3609289D2*
X3628550D1*
X3863312D2*
X3882557D1*
X4117244D2*
X4136591D1*
X4371268D2*
X4390577D1*
X4625291D2*
X4644584D1*
X4879315D2*
X4898516D1*
X5133247D2*
X5152539D1*
X5387271D2*
X5406562D1*
X5641294D2*
X5660569D1*
X5895317D2*
X5914507D1*
X6149250D2*
X6168579D1*
X6403273D2*
X6422572D1*
X6657297D2*
X6676589D1*
X6911320D2*
X6930521D1*
X7165252D2*
X7184544D1*
X7419276D2*
X7438568D1*
X7673299D2*
X7946524D1*
X8181255D2*
X8200581D1*
X8435278D2*
X8454606D1*
X8689302D2*
X8708538D1*
X8943325D2*
X8962526D1*
X9197257D2*
X9216550D1*
X9451281D2*
X9488802D1*
X9738299D2*
X10263177D1*
X1104146Y1916760D2*
X1847318D1*
X2027635D2*
X2101341D1*
X2281659D2*
X2355365D1*
X2535682D2*
X2609388D1*
X2789614D2*
X2863321D1*
X3043638D2*
X3117344D1*
X3297661D2*
X3371367D1*
X3551593D2*
X3625391D1*
X3805617D2*
X3879323D1*
X4059640D2*
X4133347D1*
X4313664D2*
X4387370D1*
X4567596D2*
X4641393D1*
X4821619D2*
X4895326D1*
X5075643D2*
X5149349D1*
X5329666D2*
X5403373D1*
X5583599D2*
X5657396D1*
X5837622D2*
X5911328D1*
X6091646D2*
X6165352D1*
X6345669D2*
X6419375D1*
X6599601D2*
X6673399D1*
X6853625D2*
X6927331D1*
X7107648D2*
X7181354D1*
X7361672D2*
X7435378D1*
X7615604D2*
X7943334D1*
X8123651D2*
X8197357D1*
X8377674D2*
X8451380D1*
X8631606D2*
X8705313D1*
X8885630D2*
X8959336D1*
X9139653D2*
X9213360D1*
X9393677D2*
X9467383D1*
X9675135D2*
X10263177D1*
X1104146Y1853593D2*
X1820612D1*
X2054432D2*
X2074544D1*
X2308455D2*
X2328568D1*
X2562388D2*
X2582611D1*
X2816411D2*
X2836615D1*
X3070435D2*
X3090583D1*
X3324367D2*
X3344555D1*
X3578390D2*
X3598633D1*
X3832414D2*
X3852617D1*
X4086437D2*
X4106550D1*
X4340369D2*
X4360573D1*
X4594393D2*
X4614540D1*
X4848416D2*
X4868542D1*
X5102440D2*
X5122602D1*
X5356372D2*
X5376633D1*
X5610396D2*
X5630559D1*
X5864419D2*
X5884579D1*
X6118442D2*
X6138555D1*
X6372375D2*
X6392578D1*
X6626398D2*
X6646602D1*
X6880422D2*
X6900545D1*
X7134445D2*
X7154591D1*
X7388377D2*
X7408554D1*
X7642401D2*
X7662523D1*
X7896424D2*
X7916548D1*
X8150448D2*
X8170560D1*
X8404380D2*
X8424584D1*
X8658403D2*
X8678607D1*
X8912427D2*
X8932539D1*
X9166450D2*
X9186525D1*
X9420382D2*
X9440608D1*
X9674406D2*
X10263177D1*
X1104146Y1790427D2*
X1790443D1*
X9704484D2*
X10263177D1*
X1104146Y1727260D2*
X1791992D1*
X9703026D2*
X10263177D1*
X1104146Y1664093D2*
X1826354D1*
X2048599D2*
X2080378D1*
X2302622D2*
X2334401D1*
X2556646D2*
X2588334D1*
X2810578D2*
X2842357D1*
X3064601D2*
X3096353D1*
X3318625D2*
X3350404D1*
X3572648D2*
X3604336D1*
X3826580D2*
X3858360D1*
X4080604D2*
X4112383D1*
X4334627D2*
X4366406D1*
X4588651D2*
X4620339D1*
X4842583D2*
X4874362D1*
X5096606D2*
X5128386D1*
X5350630D2*
X5382409D1*
X5604653D2*
X5636341D1*
X5858586D2*
X5890365D1*
X6112609D2*
X6144388D1*
X6366632D2*
X6398412D1*
X6620656D2*
X6652344D1*
X6874588D2*
X6906367D1*
X7128612D2*
X7160391D1*
X7382635D2*
X7414296D1*
X7636659D2*
X7668347D1*
X7890591D2*
X7922370D1*
X8144614D2*
X8176393D1*
X8398638D2*
X8430417D1*
X8652661D2*
X8684349D1*
X8906593D2*
X8938373D1*
X9160617D2*
X9192396D1*
X9414640D2*
X9446328D1*
X9668664D2*
X10263177D1*
X1104146Y1600927D2*
X1809492D1*
X2027544D2*
X2047612D1*
X2279471D2*
X2317539D1*
X2535591D2*
X2555759D1*
X3036073D2*
X3079610D1*
X3297570D2*
X3317859D1*
X3549497D2*
X3571797D1*
X3803521D2*
X3841680D1*
X4059549D2*
X4079844D1*
X4311476D2*
X4333820D1*
X4814146D2*
X4857774D1*
X5830239D2*
X5858008D1*
X6089549D2*
X6112031D1*
X6343573D2*
X6366055D1*
X6597596D2*
X6636029D1*
X6853625D2*
X6874077D1*
X7105552D2*
X7144076D1*
X7361580D2*
X7398099D1*
X7615604D2*
X7667982D1*
X7869627D2*
X7906146D1*
X8123560D2*
X8144310D1*
X8375578D2*
X8430052D1*
X8631606D2*
X8652357D1*
X9132362D2*
X9176263D1*
X9393586D2*
X9414357D1*
X9645604D2*
X10263177D1*
X1104146Y1537760D2*
X1612435D1*
X9600942D2*
X10263177D1*
X1104146Y1474593D2*
X1557383D1*
X9537778D2*
X10263177D1*
X1104146Y1411427D2*
X1543985D1*
X9536502D2*
X10263177D1*
X1104146Y1348260D2*
X1558750D1*
X9536502D2*
X10263177D1*
X1104146Y1285093D2*
X1543893D1*
X9536502D2*
X10263177D1*
X1104146Y1221927D2*
X1543893D1*
X9506515D2*
X10263177D1*
X1104146Y1158760D2*
X1543893D1*
X9473247D2*
X10263177D1*
X1594618Y1307103D2*
X1585813Y1316487D1*
X1572135Y1335312D1*
X1561571Y1356045D1*
X1554381Y1378176D1*
X1550740Y1401159D1*
Y1424428D1*
X1554381Y1447411D1*
X1561571Y1469541D1*
X1572135Y1490275D1*
X1585813Y1509100D1*
X1602267Y1525554D1*
X1621092Y1539231D1*
X1641825Y1549795D1*
X1663956Y1556986D1*
X1686939Y1560626D1*
X1710208D1*
X1733191Y1556986D1*
X1755321Y1549795D1*
X1761972Y1546730D1*
X1853668Y1638755D1*
X1853155Y1646047D1*
X1836034Y1660671D1*
X1821411Y1677792D1*
X1809646Y1696990D1*
X1801030Y1717792D1*
X1795773Y1739687D1*
X1794007Y1762133D1*
X1795773Y1784580D1*
X1801030Y1806474D1*
X1809646Y1827276D1*
X1821411Y1846475D1*
X1836034Y1863596D1*
X1853704Y1878586D1*
X1853965Y1963557D1*
X1856022Y1976543D1*
X1860085Y1989048D1*
X1866054Y2000763D1*
X1873782Y2011400D1*
X1979370Y2117353D1*
X1964320Y2126643D1*
X1794007D1*
Y2413623D1*
X1979489D1*
X1979409Y3665615D1*
X1959943Y3684377D1*
X1937497Y3682610D1*
X1915050Y3684377D1*
X1893156Y3689633D1*
X1872354Y3698249D1*
X1853155Y3710014D1*
X1836034Y3724637D1*
X1821411Y3741759D1*
X1809646Y3760957D1*
X1801030Y3781759D1*
X1795773Y3803653D1*
X1794007Y3826100D1*
X1795773Y3848547D1*
X1801030Y3870441D1*
X1809646Y3891243D1*
X1821411Y3910441D1*
X1836034Y3927563D1*
X1853155Y3942186D1*
X1872354Y3953951D1*
X1893156Y3962567D1*
X1915050Y3967823D1*
X1937497Y3969590D1*
X1959943Y3967823D1*
X1981838Y3962567D1*
X2002640Y3953951D1*
X2021838Y3942186D1*
X2038959Y3927563D1*
X2053583Y3910441D1*
X2064466Y3892817D1*
X2075411Y3910441D1*
X2090034Y3927563D1*
X2107155Y3942186D1*
X2126354Y3953951D1*
X2147156Y3962567D1*
X2169050Y3967823D1*
X2191497Y3969590D1*
X2213943Y3967823D1*
X2235838Y3962567D1*
X2256640Y3953951D1*
X2275838Y3942186D1*
X2292959Y3927563D1*
X2307583Y3910441D1*
X2318466Y3892817D1*
X2329411Y3910441D1*
X2344034Y3927563D1*
X2361155Y3942186D1*
X2380354Y3953951D1*
X2401156Y3962567D1*
X2423050Y3967823D1*
X2445497Y3969590D1*
X2467943Y3967823D1*
X2489838Y3962567D1*
X2510640Y3953951D1*
X2529838Y3942186D1*
X2546959Y3927563D1*
X2561583Y3910441D1*
X2572466Y3892817D1*
X2583411Y3910441D1*
X2598034Y3927563D1*
X2615155Y3942186D1*
X2634354Y3953951D1*
X2655156Y3962567D1*
X2677050Y3967823D1*
X2699497Y3969590D1*
X2721943Y3967823D1*
X2743838Y3962567D1*
X2764640Y3953951D1*
X2783838Y3942186D1*
X2800959Y3927563D1*
X2815583Y3910441D1*
X2826466Y3892817D1*
X2837411Y3910441D1*
X2852034Y3927563D1*
X2869155Y3942186D1*
X2888354Y3953951D1*
X2909156Y3962567D1*
X2931050Y3967823D1*
X2953497Y3969590D1*
X2975943Y3967823D1*
X2997838Y3962567D1*
X3018640Y3953951D1*
X3037838Y3942186D1*
X3054959Y3927563D1*
X3069583Y3910441D1*
X3080466Y3892817D1*
X3091411Y3910441D1*
X3106034Y3927563D1*
X3123155Y3942186D1*
X3142354Y3953951D1*
X3163156Y3962567D1*
X3185050Y3967823D1*
X3207497Y3969590D1*
X3229943Y3967823D1*
X3251838Y3962567D1*
X3272640Y3953951D1*
X3291838Y3942186D1*
X3308959Y3927563D1*
X3323583Y3910441D1*
X3334466Y3892817D1*
X3345411Y3910441D1*
X3360034Y3927563D1*
X3377155Y3942186D1*
X3396354Y3953951D1*
X3417156Y3962567D1*
X3439050Y3967823D1*
X3461497Y3969590D1*
X3483943Y3967823D1*
X3505838Y3962567D1*
X3526640Y3953951D1*
X3545838Y3942186D1*
X3562959Y3927563D1*
X3577583Y3910441D1*
X3588466Y3892817D1*
X3599411Y3910441D1*
X3614034Y3927563D1*
X3631155Y3942186D1*
X3650354Y3953951D1*
X3671156Y3962567D1*
X3693050Y3967823D1*
X3715497Y3969590D1*
X3737943Y3967823D1*
X3759838Y3962567D1*
X3780640Y3953951D1*
X3799838Y3942186D1*
X3816959Y3927563D1*
X3831583Y3910441D1*
X3842466Y3892817D1*
X3853411Y3910441D1*
X3868034Y3927563D1*
X3885155Y3942186D1*
X3904354Y3953951D1*
X3925156Y3962567D1*
X3947050Y3967823D1*
X3969497Y3969590D1*
X3991943Y3967823D1*
X4013838Y3962567D1*
X4034640Y3953951D1*
X4053838Y3942186D1*
X4070959Y3927563D1*
X4085583Y3910441D1*
X4096466Y3892817D1*
X4107411Y3910441D1*
X4122034Y3927563D1*
X4139155Y3942186D1*
X4158354Y3953951D1*
X4179156Y3962567D1*
X4201050Y3967823D1*
X4223497Y3969590D1*
X4245943Y3967823D1*
X4267838Y3962567D1*
X4288640Y3953951D1*
X4307838Y3942186D1*
X4324959Y3927563D1*
X4339583Y3910441D1*
X4350466Y3892817D1*
X4361411Y3910441D1*
X4376034Y3927563D1*
X4393155Y3942186D1*
X4412354Y3953951D1*
X4433156Y3962567D1*
X4455050Y3967823D1*
X4477497Y3969590D1*
X4499943Y3967823D1*
X4521838Y3962567D1*
X4542640Y3953951D1*
X4561838Y3942186D1*
X4578959Y3927563D1*
X4593583Y3910441D1*
X4604466Y3892817D1*
X4615411Y3910441D1*
X4630034Y3927563D1*
X4647155Y3942186D1*
X4666354Y3953951D1*
X4687156Y3962567D1*
X4709050Y3967823D1*
X4731497Y3969590D1*
X4753943Y3967823D1*
X4775838Y3962567D1*
X4796640Y3953951D1*
X4815838Y3942186D1*
X4832959Y3927563D1*
X4847583Y3910441D1*
X4858466Y3892817D1*
X4869411Y3910441D1*
X4884034Y3927563D1*
X4901155Y3942186D1*
X4920354Y3953951D1*
X4941156Y3962567D1*
X4963050Y3967823D1*
X4985497Y3969590D1*
X5007943Y3967823D1*
X5029838Y3962567D1*
X5050640Y3953951D1*
X5069838Y3942186D1*
X5086959Y3927563D1*
X5101583Y3910441D1*
X5112466Y3892817D1*
X5123411Y3910441D1*
X5138034Y3927563D1*
X5155155Y3942186D1*
X5174354Y3953951D1*
X5195156Y3962567D1*
X5217050Y3967823D1*
X5239497Y3969590D1*
X5261943Y3967823D1*
X5283838Y3962567D1*
X5304640Y3953951D1*
X5323838Y3942186D1*
X5340959Y3927563D1*
X5355583Y3910441D1*
X5366466Y3892817D1*
X5377411Y3910441D1*
X5392034Y3927563D1*
X5409155Y3942186D1*
X5428354Y3953951D1*
X5449156Y3962567D1*
X5471050Y3967823D1*
X5493497Y3969590D1*
X5515943Y3967823D1*
X5537838Y3962567D1*
X5558640Y3953951D1*
X5577838Y3942186D1*
X5594959Y3927563D1*
X5609583Y3910441D1*
X5620466Y3892817D1*
X5631411Y3910441D1*
X5646034Y3927563D1*
X5663155Y3942186D1*
X5682354Y3953951D1*
X5703156Y3962567D1*
X5725050Y3967823D1*
X5747497Y3969590D1*
X5769943Y3967823D1*
X5791838Y3962567D1*
X5812640Y3953951D1*
X5831838Y3942186D1*
X5848959Y3927563D1*
X5863583Y3910441D1*
X5874466Y3892817D1*
X5885411Y3910441D1*
X5900034Y3927563D1*
X5917155Y3942186D1*
X5936354Y3953951D1*
X5957156Y3962567D1*
X5979050Y3967823D1*
X6001497Y3969590D1*
X6023943Y3967823D1*
X6045838Y3962567D1*
X6066640Y3953951D1*
X6085838Y3942186D1*
X6102959Y3927563D1*
X6117583Y3910441D1*
X6128466Y3892817D1*
X6139411Y3910441D1*
X6154034Y3927563D1*
X6171155Y3942186D1*
X6190354Y3953951D1*
X6211156Y3962567D1*
X6233050Y3967823D1*
X6255497Y3969590D1*
X6277943Y3967823D1*
X6299838Y3962567D1*
X6320640Y3953951D1*
X6339838Y3942186D1*
X6356959Y3927563D1*
X6371583Y3910441D1*
X6382466Y3892817D1*
X6393411Y3910441D1*
X6408034Y3927563D1*
X6425155Y3942186D1*
X6444354Y3953951D1*
X6465156Y3962567D1*
X6487050Y3967823D1*
X6509497Y3969590D1*
X6531943Y3967823D1*
X6553838Y3962567D1*
X6574640Y3953951D1*
X6593838Y3942186D1*
X6610959Y3927563D1*
X6625583Y3910441D1*
X6636466Y3892817D1*
X6647411Y3910441D1*
X6662034Y3927563D1*
X6679155Y3942186D1*
X6698354Y3953951D1*
X6719156Y3962567D1*
X6741050Y3967823D1*
X6763497Y3969590D1*
X6785943Y3967823D1*
X6807838Y3962567D1*
X6828640Y3953951D1*
X6847838Y3942186D1*
X6864959Y3927563D1*
X6879583Y3910441D1*
X6890466Y3892817D1*
X6901411Y3910441D1*
X6916034Y3927563D1*
X6933155Y3942186D1*
X6952354Y3953951D1*
X6973156Y3962567D1*
X6995050Y3967823D1*
X7017497Y3969590D1*
X7039943Y3967823D1*
X7061838Y3962567D1*
X7082640Y3953951D1*
X7101838Y3942186D1*
X7118959Y3927563D1*
X7133583Y3910441D1*
X7144466Y3892817D1*
X7155411Y3910441D1*
X7170034Y3927563D1*
X7187155Y3942186D1*
X7206354Y3953951D1*
X7227156Y3962567D1*
X7249050Y3967823D1*
X7271497Y3969590D1*
X7293943Y3967823D1*
X7315838Y3962567D1*
X7336640Y3953951D1*
X7355838Y3942186D1*
X7372959Y3927563D1*
X7387583Y3910441D1*
X7398466Y3892817D1*
X7409411Y3910441D1*
X7424034Y3927563D1*
X7441155Y3942186D1*
X7460354Y3953951D1*
X7481156Y3962567D1*
X7503050Y3967823D1*
X7525497Y3969590D1*
X7547943Y3967823D1*
X7569838Y3962567D1*
X7590640Y3953951D1*
X7609838Y3942186D1*
X7626959Y3927563D1*
X7641583Y3910441D1*
X7652466Y3892817D1*
X7663411Y3910441D1*
X7678034Y3927563D1*
X7695155Y3942186D1*
X7714354Y3953951D1*
X7735156Y3962567D1*
X7757050Y3967823D1*
X7779497Y3969590D1*
X7801943Y3967823D1*
X7821423Y3963248D1*
X7821409Y4173635D1*
X7801943Y4192377D1*
X7779497Y4190610D1*
X7757050Y4192377D1*
X7735156Y4197633D1*
X7714354Y4206249D1*
X7695155Y4218014D1*
X7678034Y4232637D1*
X7663411Y4249759D1*
X7652528Y4267383D1*
X7641583Y4249759D1*
X7626959Y4232637D1*
X7609838Y4218014D1*
X7590640Y4206249D1*
X7569838Y4197633D1*
X7547943Y4192377D1*
X7525497Y4190610D1*
X7503050Y4192377D1*
X7481156Y4197633D1*
X7460354Y4206249D1*
X7441155Y4218014D1*
X7424034Y4232637D1*
X7409411Y4249759D1*
X7398528Y4267383D1*
X7387583Y4249759D1*
X7372959Y4232637D1*
X7355838Y4218014D1*
X7336640Y4206249D1*
X7315838Y4197633D1*
X7293943Y4192377D1*
X7271497Y4190610D1*
X7249050Y4192377D1*
X7227156Y4197633D1*
X7206354Y4206249D1*
X7187155Y4218014D1*
X7170034Y4232637D1*
X7155411Y4249759D1*
X7144528Y4267383D1*
X7133583Y4249759D1*
X7118959Y4232637D1*
X7101838Y4218014D1*
X7082640Y4206249D1*
X7061838Y4197633D1*
X7039943Y4192377D1*
X7017497Y4190610D1*
X6995050Y4192377D1*
X6973156Y4197633D1*
X6952354Y4206249D1*
X6933155Y4218014D1*
X6916034Y4232637D1*
X6901411Y4249759D1*
X6890528Y4267383D1*
X6879583Y4249759D1*
X6864959Y4232637D1*
X6847838Y4218014D1*
X6828640Y4206249D1*
X6807838Y4197633D1*
X6785943Y4192377D1*
X6763497Y4190610D1*
X6741050Y4192377D1*
X6719156Y4197633D1*
X6698354Y4206249D1*
X6679155Y4218014D1*
X6662034Y4232637D1*
X6647411Y4249759D1*
X6636528Y4267383D1*
X6625583Y4249759D1*
X6610959Y4232637D1*
X6593838Y4218014D1*
X6574640Y4206249D1*
X6553838Y4197633D1*
X6531943Y4192377D1*
X6509497Y4190610D1*
X6487050Y4192377D1*
X6465156Y4197633D1*
X6444354Y4206249D1*
X6425155Y4218014D1*
X6408034Y4232637D1*
X6393411Y4249759D1*
X6382528Y4267383D1*
X6371583Y4249759D1*
X6356959Y4232637D1*
X6339838Y4218014D1*
X6320640Y4206249D1*
X6299838Y4197633D1*
X6277943Y4192377D1*
X6255497Y4190610D1*
X6233050Y4192377D1*
X6211156Y4197633D1*
X6190354Y4206249D1*
X6171155Y4218014D1*
X6154034Y4232637D1*
X6139411Y4249759D1*
X6128528Y4267383D1*
X6117583Y4249759D1*
X6102959Y4232637D1*
X6085838Y4218014D1*
X6066640Y4206249D1*
X6045838Y4197633D1*
X6023943Y4192377D1*
X6001497Y4190610D1*
X5979050Y4192377D1*
X5957156Y4197633D1*
X5936354Y4206249D1*
X5917155Y4218014D1*
X5900034Y4232637D1*
X5885411Y4249759D1*
X5874528Y4267383D1*
X5863583Y4249759D1*
X5848959Y4232637D1*
X5831838Y4218014D1*
X5812640Y4206249D1*
X5791838Y4197633D1*
X5769943Y4192377D1*
X5747497Y4190610D1*
X5725050Y4192377D1*
X5703156Y4197633D1*
X5682354Y4206249D1*
X5663155Y4218014D1*
X5646034Y4232637D1*
X5631411Y4249759D1*
X5620528Y4267383D1*
X5609583Y4249759D1*
X5594959Y4232637D1*
X5577838Y4218014D1*
X5558640Y4206249D1*
X5537838Y4197633D1*
X5515943Y4192377D1*
X5493497Y4190610D1*
X5471050Y4192377D1*
X5449156Y4197633D1*
X5428354Y4206249D1*
X5409155Y4218014D1*
X5392034Y4232637D1*
X5377411Y4249759D1*
X5366528Y4267383D1*
X5355583Y4249759D1*
X5340959Y4232637D1*
X5323838Y4218014D1*
X5304640Y4206249D1*
X5283838Y4197633D1*
X5261943Y4192377D1*
X5239497Y4190610D1*
X5217050Y4192377D1*
X5195156Y4197633D1*
X5174354Y4206249D1*
X5155155Y4218014D1*
X5138034Y4232637D1*
X5123411Y4249759D1*
X5112528Y4267383D1*
X5101583Y4249759D1*
X5086959Y4232637D1*
X5069838Y4218014D1*
X5050640Y4206249D1*
X5029838Y4197633D1*
X5007943Y4192377D1*
X4985497Y4190610D1*
X4963050Y4192377D1*
X4941156Y4197633D1*
X4920354Y4206249D1*
X4901155Y4218014D1*
X4884034Y4232637D1*
X4869411Y4249759D1*
X4858528Y4267383D1*
X4847583Y4249759D1*
X4832959Y4232637D1*
X4815838Y4218014D1*
X4796640Y4206249D1*
X4775838Y4197633D1*
X4753943Y4192377D1*
X4731497Y4190610D1*
X4709050Y4192377D1*
X4687156Y4197633D1*
X4666354Y4206249D1*
X4647155Y4218014D1*
X4630034Y4232637D1*
X4615411Y4249759D1*
X4604528Y4267383D1*
X4593583Y4249759D1*
X4578959Y4232637D1*
X4561838Y4218014D1*
X4542640Y4206249D1*
X4521838Y4197633D1*
X4499943Y4192377D1*
X4477497Y4190610D1*
X4455050Y4192377D1*
X4433156Y4197633D1*
X4412354Y4206249D1*
X4393155Y4218014D1*
X4376034Y4232637D1*
X4361411Y4249759D1*
X4350528Y4267383D1*
X4339583Y4249759D1*
X4324959Y4232637D1*
X4307838Y4218014D1*
X4288640Y4206249D1*
X4267838Y4197633D1*
X4245943Y4192377D1*
X4223497Y4190610D1*
X4201050Y4192377D1*
X4179156Y4197633D1*
X4158354Y4206249D1*
X4139155Y4218014D1*
X4122034Y4232637D1*
X4107411Y4249759D1*
X4096528Y4267383D1*
X4085583Y4249759D1*
X4070959Y4232637D1*
X4053838Y4218014D1*
X4034640Y4206249D1*
X4013838Y4197633D1*
X3991943Y4192377D1*
X3969497Y4190610D1*
X3947050Y4192377D1*
X3925156Y4197633D1*
X3904354Y4206249D1*
X3885155Y4218014D1*
X3868034Y4232637D1*
X3853411Y4249759D1*
X3842528Y4267383D1*
X3831583Y4249759D1*
X3816959Y4232637D1*
X3799838Y4218014D1*
X3780640Y4206249D1*
X3759838Y4197633D1*
X3737943Y4192377D1*
X3715497Y4190610D1*
X3693050Y4192377D1*
X3671156Y4197633D1*
X3650354Y4206249D1*
X3631155Y4218014D1*
X3614034Y4232637D1*
X3599411Y4249759D1*
X3588528Y4267383D1*
X3577583Y4249759D1*
X3562959Y4232637D1*
X3545838Y4218014D1*
X3526640Y4206249D1*
X3505838Y4197633D1*
X3483943Y4192377D1*
X3461497Y4190610D1*
X3439050Y4192377D1*
X3417156Y4197633D1*
X3396354Y4206249D1*
X3377155Y4218014D1*
X3360034Y4232637D1*
X3345411Y4249759D1*
X3334528Y4267383D1*
X3323583Y4249759D1*
X3308959Y4232637D1*
X3291838Y4218014D1*
X3272640Y4206249D1*
X3251838Y4197633D1*
X3229943Y4192377D1*
X3207497Y4190610D1*
X3185050Y4192377D1*
X3163156Y4197633D1*
X3142354Y4206249D1*
X3123155Y4218014D1*
X3106034Y4232637D1*
X3091411Y4249759D1*
X3080528Y4267383D1*
X3069583Y4249759D1*
X3054959Y4232637D1*
X3037838Y4218014D1*
X3018640Y4206249D1*
X2997838Y4197633D1*
X2975943Y4192377D1*
X2953497Y4190610D1*
X2931050Y4192377D1*
X2909156Y4197633D1*
X2888354Y4206249D1*
X2869155Y4218014D1*
X2852034Y4232637D1*
X2837411Y4249759D1*
X2826528Y4267383D1*
X2815583Y4249759D1*
X2800959Y4232637D1*
X2783838Y4218014D1*
X2764640Y4206249D1*
X2743838Y4197633D1*
X2721943Y4192377D1*
X2699497Y4190610D1*
X2677050Y4192377D1*
X2655156Y4197633D1*
X2634354Y4206249D1*
X2615155Y4218014D1*
X2598034Y4232637D1*
X2583411Y4249759D1*
X2572528Y4267383D1*
X2561583Y4249759D1*
X2546959Y4232637D1*
X2529838Y4218014D1*
X2510640Y4206249D1*
X2489838Y4197633D1*
X2467943Y4192377D1*
X2445497Y4190610D1*
X2423050Y4192377D1*
X2401156Y4197633D1*
X2380354Y4206249D1*
X2361155Y4218014D1*
X2344034Y4232637D1*
X2329411Y4249759D1*
X2318528Y4267383D1*
X2307583Y4249759D1*
X2292959Y4232637D1*
X2275838Y4218014D1*
X2256640Y4206249D1*
X2235838Y4197633D1*
X2213943Y4192377D1*
X2191497Y4190610D1*
X2169050Y4192377D1*
X2147156Y4197633D1*
X2126354Y4206249D1*
X2107155Y4218014D1*
X2090034Y4232637D1*
X2080996Y4242673D1*
X2080987Y4190610D1*
X1794007D1*
Y4477590D1*
X2080987D1*
Y4425546D1*
X2090034Y4435563D1*
X2107155Y4450186D1*
X2126354Y4461951D1*
X2147156Y4470567D1*
X2169050Y4475823D1*
X2191497Y4477590D1*
X2213943Y4475823D1*
X2235838Y4470567D1*
X2256640Y4461951D1*
X2275838Y4450186D1*
X2292959Y4435563D1*
X2307583Y4418441D1*
X2318466Y4400817D1*
X2329411Y4418441D1*
X2344034Y4435563D1*
X2361155Y4450186D1*
X2380354Y4461951D1*
X2401156Y4470567D1*
X2423050Y4475823D1*
X2445497Y4477590D1*
X2467943Y4475823D1*
X2489838Y4470567D1*
X2510640Y4461951D1*
X2529838Y4450186D1*
X2546959Y4435563D1*
X2561583Y4418441D1*
X2572466Y4400817D1*
X2583411Y4418441D1*
X2598034Y4435563D1*
X2615155Y4450186D1*
X2634354Y4461951D1*
X2655156Y4470567D1*
X2677050Y4475823D1*
X2699497Y4477590D1*
X2721943Y4475823D1*
X2743838Y4470567D1*
X2764640Y4461951D1*
X2783838Y4450186D1*
X2800959Y4435563D1*
X2815583Y4418441D1*
X2826466Y4400817D1*
X2837411Y4418441D1*
X2852034Y4435563D1*
X2869155Y4450186D1*
X2888354Y4461951D1*
X2909156Y4470567D1*
X2931050Y4475823D1*
X2953497Y4477590D1*
X2975943Y4475823D1*
X2997838Y4470567D1*
X3018640Y4461951D1*
X3037838Y4450186D1*
X3054959Y4435563D1*
X3069583Y4418441D1*
X3080466Y4400817D1*
X3091411Y4418441D1*
X3106034Y4435563D1*
X3123155Y4450186D1*
X3142354Y4461951D1*
X3163156Y4470567D1*
X3185050Y4475823D1*
X3207497Y4477590D1*
X3229943Y4475823D1*
X3251838Y4470567D1*
X3272640Y4461951D1*
X3291838Y4450186D1*
X3308959Y4435563D1*
X3323583Y4418441D1*
X3334466Y4400817D1*
X3345411Y4418441D1*
X3360034Y4435563D1*
X3377155Y4450186D1*
X3396354Y4461951D1*
X3417156Y4470567D1*
X3439050Y4475823D1*
X3461497Y4477590D1*
X3483943Y4475823D1*
X3505838Y4470567D1*
X3526640Y4461951D1*
X3545838Y4450186D1*
X3562959Y4435563D1*
X3577583Y4418441D1*
X3588466Y4400817D1*
X3599411Y4418441D1*
X3614034Y4435563D1*
X3631155Y4450186D1*
X3650354Y4461951D1*
X3671156Y4470567D1*
X3693050Y4475823D1*
X3715497Y4477590D1*
X3737943Y4475823D1*
X3759838Y4470567D1*
X3780640Y4461951D1*
X3799838Y4450186D1*
X3816959Y4435563D1*
X3831583Y4418441D1*
X3842466Y4400817D1*
X3853411Y4418441D1*
X3868034Y4435563D1*
X3885155Y4450186D1*
X3904354Y4461951D1*
X3925156Y4470567D1*
X3947050Y4475823D1*
X3969497Y4477590D1*
X3991943Y4475823D1*
X4013838Y4470567D1*
X4034640Y4461951D1*
X4053838Y4450186D1*
X4070959Y4435563D1*
X4085583Y4418441D1*
X4096466Y4400817D1*
X4107411Y4418441D1*
X4122034Y4435563D1*
X4139155Y4450186D1*
X4158354Y4461951D1*
X4179156Y4470567D1*
X4201050Y4475823D1*
X4223497Y4477590D1*
X4245943Y4475823D1*
X4267838Y4470567D1*
X4288640Y4461951D1*
X4307838Y4450186D1*
X4324959Y4435563D1*
X4339583Y4418441D1*
X4350466Y4400817D1*
X4361411Y4418441D1*
X4376034Y4435563D1*
X4393155Y4450186D1*
X4412354Y4461951D1*
X4433156Y4470567D1*
X4455050Y4475823D1*
X4477497Y4477590D1*
X4499943Y4475823D1*
X4521838Y4470567D1*
X4542640Y4461951D1*
X4561838Y4450186D1*
X4578959Y4435563D1*
X4593583Y4418441D1*
X4604466Y4400817D1*
X4615411Y4418441D1*
X4630034Y4435563D1*
X4647155Y4450186D1*
X4666354Y4461951D1*
X4687156Y4470567D1*
X4709050Y4475823D1*
X4731497Y4477590D1*
X4753943Y4475823D1*
X4775838Y4470567D1*
X4796640Y4461951D1*
X4815838Y4450186D1*
X4832959Y4435563D1*
X4847583Y4418441D1*
X4858466Y4400817D1*
X4869411Y4418441D1*
X4884034Y4435563D1*
X4901155Y4450186D1*
X4920354Y4461951D1*
X4941156Y4470567D1*
X4963050Y4475823D1*
X4985497Y4477590D1*
X5007943Y4475823D1*
X5029838Y4470567D1*
X5050640Y4461951D1*
X5069838Y4450186D1*
X5086959Y4435563D1*
X5101583Y4418441D1*
X5112466Y4400817D1*
X5123411Y4418441D1*
X5138034Y4435563D1*
X5155155Y4450186D1*
X5174354Y4461951D1*
X5195156Y4470567D1*
X5217050Y4475823D1*
X5239497Y4477590D1*
X5261943Y4475823D1*
X5283838Y4470567D1*
X5304640Y4461951D1*
X5323838Y4450186D1*
X5340959Y4435563D1*
X5355583Y4418441D1*
X5366466Y4400817D1*
X5377411Y4418441D1*
X5392034Y4435563D1*
X5409155Y4450186D1*
X5428354Y4461951D1*
X5449156Y4470567D1*
X5471050Y4475823D1*
X5493497Y4477590D1*
X5515943Y4475823D1*
X5537838Y4470567D1*
X5558640Y4461951D1*
X5577838Y4450186D1*
X5594959Y4435563D1*
X5609583Y4418441D1*
X5620466Y4400817D1*
X5631411Y4418441D1*
X5646034Y4435563D1*
X5663155Y4450186D1*
X5682354Y4461951D1*
X5703156Y4470567D1*
X5725050Y4475823D1*
X5747497Y4477590D1*
X5769943Y4475823D1*
X5791838Y4470567D1*
X5812640Y4461951D1*
X5831838Y4450186D1*
X5848959Y4435563D1*
X5863583Y4418441D1*
X5874466Y4400817D1*
X5885411Y4418441D1*
X5900034Y4435563D1*
X5917155Y4450186D1*
X5936354Y4461951D1*
X5957156Y4470567D1*
X5979050Y4475823D1*
X6001497Y4477590D1*
X6023943Y4475823D1*
X6045838Y4470567D1*
X6066640Y4461951D1*
X6085838Y4450186D1*
X6102959Y4435563D1*
X6117583Y4418441D1*
X6128466Y4400817D1*
X6139411Y4418441D1*
X6154034Y4435563D1*
X6171155Y4450186D1*
X6190354Y4461951D1*
X6211156Y4470567D1*
X6233050Y4475823D1*
X6255497Y4477590D1*
X6277943Y4475823D1*
X6299838Y4470567D1*
X6320640Y4461951D1*
X6339838Y4450186D1*
X6356959Y4435563D1*
X6371583Y4418441D1*
X6382466Y4400817D1*
X6393411Y4418441D1*
X6408034Y4435563D1*
X6425155Y4450186D1*
X6444354Y4461951D1*
X6465156Y4470567D1*
X6487050Y4475823D1*
X6509497Y4477590D1*
X6531943Y4475823D1*
X6553838Y4470567D1*
X6574640Y4461951D1*
X6593838Y4450186D1*
X6610959Y4435563D1*
X6625583Y4418441D1*
X6636466Y4400817D1*
X6647411Y4418441D1*
X6662034Y4435563D1*
X6679155Y4450186D1*
X6698354Y4461951D1*
X6719156Y4470567D1*
X6741050Y4475823D1*
X6763497Y4477590D1*
X6785943Y4475823D1*
X6807838Y4470567D1*
X6828640Y4461951D1*
X6847838Y4450186D1*
X6864959Y4435563D1*
X6879583Y4418441D1*
X6890466Y4400817D1*
X6901411Y4418441D1*
X6916034Y4435563D1*
X6933155Y4450186D1*
X6952354Y4461951D1*
X6973156Y4470567D1*
X6995050Y4475823D1*
X7017497Y4477590D1*
X7039943Y4475823D1*
X7061838Y4470567D1*
X7082640Y4461951D1*
X7101838Y4450186D1*
X7118959Y4435563D1*
X7133583Y4418441D1*
X7144466Y4400817D1*
X7155411Y4418441D1*
X7170034Y4435563D1*
X7187155Y4450186D1*
X7206354Y4461951D1*
X7227156Y4470567D1*
X7249050Y4475823D1*
X7271497Y4477590D1*
X7293943Y4475823D1*
X7315838Y4470567D1*
X7336640Y4461951D1*
X7355838Y4450186D1*
X7372959Y4435563D1*
X7387583Y4418441D1*
X7398466Y4400817D1*
X7409411Y4418441D1*
X7424034Y4435563D1*
X7441155Y4450186D1*
X7460354Y4461951D1*
X7481156Y4470567D1*
X7503050Y4475823D1*
X7525497Y4477590D1*
X7547943Y4475823D1*
X7569838Y4470567D1*
X7590640Y4461951D1*
X7609838Y4450186D1*
X7626959Y4435563D1*
X7641583Y4418441D1*
X7652466Y4400817D1*
X7663411Y4418441D1*
X7678034Y4435563D1*
X7695155Y4450186D1*
X7714354Y4461951D1*
X7735156Y4470567D1*
X7757050Y4475823D1*
X7779497Y4477590D1*
X7801943Y4475823D1*
X7823838Y4470567D1*
X7844640Y4461951D1*
X7863838Y4450186D1*
X7880959Y4435563D1*
X7895583Y4418441D1*
X7906466Y4400817D1*
X7917411Y4418441D1*
X7932034Y4435563D1*
X7949155Y4450186D1*
X7968354Y4461951D1*
X7989156Y4470567D1*
X8011050Y4475823D1*
X8033497Y4477590D1*
X8055943Y4475823D1*
X8077838Y4470567D1*
X8098640Y4461951D1*
X8117838Y4450186D1*
X8134959Y4435563D1*
X8149583Y4418441D1*
X8160466Y4400817D1*
X8171411Y4418441D1*
X8186034Y4435563D1*
X8203155Y4450186D1*
X8222354Y4461951D1*
X8243156Y4470567D1*
X8265050Y4475823D1*
X8287497Y4477590D1*
X8309943Y4475823D1*
X8331838Y4470567D1*
X8352640Y4461951D1*
X8371838Y4450186D1*
X8388959Y4435563D1*
X8403583Y4418441D1*
X8414466Y4400817D1*
X8425411Y4418441D1*
X8440034Y4435563D1*
X8457155Y4450186D1*
X8476354Y4461951D1*
X8497156Y4470567D1*
X8519050Y4475823D1*
X8541497Y4477590D1*
X8563943Y4475823D1*
X8585838Y4470567D1*
X8606640Y4461951D1*
X8625838Y4450186D1*
X8642959Y4435563D1*
X8657583Y4418441D1*
X8668466Y4400817D1*
X8679411Y4418441D1*
X8694034Y4435563D1*
X8711155Y4450186D1*
X8730354Y4461951D1*
X8751156Y4470567D1*
X8773050Y4475823D1*
X8795497Y4477590D1*
X8817943Y4475823D1*
X8839838Y4470567D1*
X8860640Y4461951D1*
X8879838Y4450186D1*
X8896959Y4435563D1*
X8911583Y4418441D1*
X8922466Y4400817D1*
X8933411Y4418441D1*
X8948034Y4435563D1*
X8965155Y4450186D1*
X8984354Y4461951D1*
X9005156Y4470567D1*
X9027050Y4475823D1*
X9049497Y4477590D1*
X9071943Y4475823D1*
X9093838Y4470567D1*
X9114640Y4461951D1*
X9133838Y4450186D1*
X9150959Y4435563D1*
X9165583Y4418441D1*
X9176466Y4400817D1*
X9187411Y4418441D1*
X9202034Y4435563D1*
X9219155Y4450186D1*
X9238354Y4461951D1*
X9259156Y4470567D1*
X9281050Y4475823D1*
X9303497Y4477590D1*
X9325943Y4475823D1*
X9347838Y4470567D1*
X9368640Y4461951D1*
X9387838Y4450186D1*
X9404959Y4435563D1*
X9419583Y4418441D1*
X9430466Y4400817D1*
X9441411Y4418441D1*
X9456034Y4435563D1*
X9473155Y4450186D1*
X9492354Y4461951D1*
X9513156Y4470567D1*
X9535050Y4475823D1*
X9557497Y4477590D1*
X9579943Y4475823D1*
X9601838Y4470567D1*
X9622640Y4461951D1*
X9641838Y4450186D1*
X9658959Y4435563D1*
X9673583Y4418441D1*
X9685347Y4399243D1*
X9693964Y4378441D1*
X9699220Y4356547D1*
X9700987Y4334100D1*
X9699220Y4311653D1*
X9693964Y4289759D1*
X9685347Y4268957D1*
X9673583Y4249759D1*
X9658959Y4232637D1*
X9641838Y4218014D1*
X9622640Y4206249D1*
X9601838Y4197633D1*
X9579943Y4192377D1*
X9557497Y4190610D1*
X9535050Y4192377D1*
X9513156Y4197633D1*
X9492354Y4206249D1*
X9473155Y4218014D1*
X9456034Y4232637D1*
X9441411Y4249759D1*
X9430528Y4267383D1*
X9419583Y4249759D1*
X9404959Y4232637D1*
X9387838Y4218014D1*
X9368640Y4206249D1*
X9347838Y4197633D1*
X9325943Y4192377D1*
X9303497Y4190610D1*
X9281050Y4192377D1*
X9259156Y4197633D1*
X9238354Y4206249D1*
X9219155Y4218014D1*
X9202034Y4232637D1*
X9187411Y4249759D1*
X9176528Y4267383D1*
X9165583Y4249759D1*
X9150959Y4232637D1*
X9133838Y4218014D1*
X9114640Y4206249D1*
X9093838Y4197633D1*
X9071943Y4192377D1*
X9049497Y4190610D1*
X9027050Y4192377D1*
X9005156Y4197633D1*
X8984354Y4206249D1*
X8965155Y4218014D1*
X8948034Y4232637D1*
X8933411Y4249759D1*
X8922528Y4267383D1*
X8911583Y4249759D1*
X8896959Y4232637D1*
X8879838Y4218014D1*
X8860640Y4206249D1*
X8839838Y4197633D1*
X8817943Y4192377D1*
X8795497Y4190610D1*
X8773050Y4192377D1*
X8751156Y4197633D1*
X8730354Y4206249D1*
X8711155Y4218014D1*
X8694034Y4232637D1*
X8679411Y4249759D1*
X8668528Y4267383D1*
X8657583Y4249759D1*
X8642959Y4232637D1*
X8625838Y4218014D1*
X8606640Y4206249D1*
X8585838Y4197633D1*
X8563943Y4192377D1*
X8541497Y4190610D1*
X8519050Y4192377D1*
X8497156Y4197633D1*
X8476354Y4206249D1*
X8457155Y4218014D1*
X8440034Y4232637D1*
X8425411Y4249759D1*
X8414528Y4267383D1*
X8403583Y4249759D1*
X8388959Y4232637D1*
X8371838Y4218014D1*
X8352640Y4206249D1*
X8331838Y4197633D1*
X8309943Y4192377D1*
X8287497Y4190610D1*
X8265050Y4192377D1*
X8243156Y4197633D1*
X8222354Y4206249D1*
X8203155Y4218014D1*
X8186034Y4232637D1*
X8171411Y4249759D1*
X8160528Y4267383D1*
X8149583Y4249759D1*
X8134959Y4232637D1*
X8117838Y4218014D1*
X8098640Y4206249D1*
X8077838Y4197633D1*
X8055943Y4192377D1*
X8033497Y4190610D1*
X8011050Y4192377D1*
X7988949Y4197709D1*
X7989156Y3962567D1*
X8011050Y3967823D1*
X8033497Y3969590D1*
X8055943Y3967823D1*
X8077838Y3962567D1*
X8098640Y3953951D1*
X8117838Y3942186D1*
X8134959Y3927563D1*
X8149583Y3910441D1*
X8160466Y3892817D1*
X8171411Y3910441D1*
X8186034Y3927563D1*
X8203155Y3942186D1*
X8222354Y3953951D1*
X8243156Y3962567D1*
X8265050Y3967823D1*
X8287497Y3969590D1*
X8309943Y3967823D1*
X8331838Y3962567D1*
X8352640Y3953951D1*
X8371838Y3942186D1*
X8388959Y3927563D1*
X8403583Y3910441D1*
X8414466Y3892817D1*
X8425411Y3910441D1*
X8440034Y3927563D1*
X8457155Y3942186D1*
X8476354Y3953951D1*
X8497156Y3962567D1*
X8519050Y3967823D1*
X8541497Y3969590D1*
X8563943Y3967823D1*
X8585838Y3962567D1*
X8606640Y3953951D1*
X8625838Y3942186D1*
X8642959Y3927563D1*
X8657583Y3910441D1*
X8668466Y3892817D1*
X8679411Y3910441D1*
X8694034Y3927563D1*
X8711155Y3942186D1*
X8730354Y3953951D1*
X8751156Y3962567D1*
X8773050Y3967823D1*
X8795497Y3969590D1*
X8817943Y3967823D1*
X8839838Y3962567D1*
X8860640Y3953951D1*
X8879838Y3942186D1*
X8896959Y3927563D1*
X8911583Y3910441D1*
X8922466Y3892817D1*
X8933411Y3910441D1*
X8948034Y3927563D1*
X8965155Y3942186D1*
X8984354Y3953951D1*
X9005156Y3962567D1*
X9027050Y3967823D1*
X9049497Y3969590D1*
X9071943Y3967823D1*
X9093838Y3962567D1*
X9114640Y3953951D1*
X9133838Y3942186D1*
X9150959Y3927563D1*
X9165583Y3910441D1*
X9176466Y3892817D1*
X9187411Y3910441D1*
X9202034Y3927563D1*
X9219155Y3942186D1*
X9238354Y3953951D1*
X9259156Y3962567D1*
X9281050Y3967823D1*
X9303497Y3969590D1*
X9325943Y3967823D1*
X9347838Y3962567D1*
X9368640Y3953951D1*
X9387838Y3942186D1*
X9404959Y3927563D1*
X9419583Y3910441D1*
X9430466Y3892817D1*
X9441411Y3910441D1*
X9456034Y3927563D1*
X9473155Y3942186D1*
X9492354Y3953951D1*
X9513156Y3962567D1*
X9535050Y3967823D1*
X9557497Y3969590D1*
X9579943Y3967823D1*
X9601838Y3962567D1*
X9622640Y3953951D1*
X9641838Y3942186D1*
X9658959Y3927563D1*
X9673583Y3910441D1*
X9685347Y3891243D1*
X9693964Y3870441D1*
X9699220Y3848547D1*
X9700987Y3826100D1*
X9699091Y3803006D1*
X9812916Y3688813D1*
X9820644Y3678176D1*
X9826613Y3666461D1*
X9830676Y3653956D1*
X9832733Y3640970D1*
X9832991Y3471062D1*
X9832733Y2109111D1*
X9830676Y2096124D1*
X9826613Y2083620D1*
X9820644Y2071905D1*
X9812916Y2061268D1*
X9692956Y1940942D1*
X9641331Y1889318D1*
X9641838Y1878219D1*
X9658959Y1863596D1*
X9673583Y1846475D1*
X9685347Y1827276D1*
X9693964Y1806474D1*
X9699220Y1784580D1*
X9700987Y1762133D1*
X9699220Y1739687D1*
X9693964Y1717792D1*
X9685347Y1696990D1*
X9673583Y1677792D1*
X9658959Y1660671D1*
X9641289Y1645681D1*
X9641029Y1612589D1*
X9638972Y1599603D1*
X9634909Y1587098D1*
X9628940Y1575383D1*
X9621211Y1564746D1*
X9530189Y1473359D1*
X9529919Y1280033D1*
X9527862Y1267046D1*
X9523799Y1254542D1*
X9517830Y1242826D1*
X9510101Y1232189D1*
X9464323Y1186046D1*
X9466406Y1170428D1*
Y1147159D1*
X9462766Y1124176D1*
X9455575Y1102045D1*
X9453614Y1097791D1*
X10269450Y1097750D1*
X10269483Y4569737D1*
X1097783Y4569760D1*
X1097750Y1097773D1*
X1550258Y1097750D1*
X1550283Y1307083D1*
X1594489D1*
X2245787Y1555690D2*
X2263321Y1549795D1*
X2270054Y1546692D1*
X2361721Y1638755D1*
X2361155Y1646047D1*
X2344034Y1660671D1*
X2329411Y1677792D1*
X2318528Y1695416D1*
X2307583Y1677792D1*
X2292959Y1660671D1*
X2275289Y1645681D1*
X2275029Y1613363D1*
X2272972Y1600376D1*
X2268909Y1587871D1*
X2262940Y1576156D1*
X2255211Y1565519D1*
X2245783Y1555725D1*
X2753787Y1555690D2*
X2763086Y1552834D1*
X2770250Y1567710D1*
X2777979Y1578348D1*
X2856111Y1656845D1*
X2844386Y1668944D1*
X2831151Y1687160D1*
X2826528Y1695416D1*
X2815583Y1677792D1*
X2800959Y1660671D1*
X2783289Y1645681D1*
X2783029Y1613309D1*
X2780972Y1600323D1*
X2776909Y1587818D1*
X2770940Y1576103D1*
X2763211Y1565466D1*
X2753912Y1555801D1*
X2994938Y1558628D2*
X3014397Y1553826D1*
X3032054Y1546692D1*
X3123672Y1638626D1*
X3123155Y1646047D1*
X3106034Y1660671D1*
X3091411Y1677792D1*
X3080528Y1695416D1*
X3069583Y1677792D1*
X3054959Y1660671D1*
X3037289Y1645681D1*
X3037029Y1629159D1*
X3034972Y1616173D1*
X3030909Y1603668D1*
X3024940Y1591953D1*
X3017211Y1581316D1*
X2995022Y1558761D1*
X3515875Y1555665D2*
X3531487Y1550472D1*
X3540059Y1562471D1*
X3626698Y1649475D1*
X3614034Y1660671D1*
X3599411Y1677792D1*
X3588528Y1695416D1*
X3577583Y1677792D1*
X3562959Y1660671D1*
X3545289Y1645681D1*
X3545029Y1613229D1*
X3542972Y1600243D1*
X3538909Y1587738D1*
X3532940Y1576023D1*
X3525211Y1565386D1*
X3515912Y1555721D1*
X3769875Y1555665D2*
X3787321Y1549795D1*
X3794137Y1546654D1*
X3885752Y1638626D1*
X3885155Y1646047D1*
X3868034Y1660671D1*
X3853411Y1677792D1*
X3842528Y1695416D1*
X3831583Y1677792D1*
X3816959Y1660671D1*
X3799289Y1645681D1*
X3799028Y1613203D1*
X3796972Y1600216D1*
X3792909Y1587712D1*
X3786939Y1575997D1*
X3779211Y1565359D1*
X3769911Y1555694D1*
X4277962Y1555640D2*
X4293572Y1550441D1*
X4302139Y1562471D1*
X4388649Y1649347D1*
X4376034Y1660671D1*
X4361411Y1677792D1*
X4350528Y1695416D1*
X4339583Y1677792D1*
X4324959Y1660671D1*
X4307289Y1645681D1*
X4307029Y1613149D1*
X4304972Y1600163D1*
X4300909Y1587658D1*
X4294940Y1575943D1*
X4287211Y1565306D1*
X4278041Y1555770D1*
X4531962Y1555640D2*
X4541256Y1552771D1*
X4548437Y1567710D1*
X4556165Y1578347D1*
X4634169Y1656716D1*
X4622386Y1668944D1*
X4609151Y1687160D1*
X4604528Y1695416D1*
X4593583Y1677792D1*
X4578959Y1660671D1*
X4561289Y1645681D1*
X4561028Y1613123D1*
X4558972Y1600136D1*
X4554909Y1587632D1*
X4548939Y1575916D1*
X4541211Y1565279D1*
X4532040Y1555743D1*
X4773027Y1558610D2*
X4792397Y1553826D1*
X4810219Y1546615D1*
X4901730Y1638497D1*
X4901155Y1646047D1*
X4884034Y1660671D1*
X4869411Y1677792D1*
X4858528Y1695416D1*
X4847583Y1677792D1*
X4832959Y1660671D1*
X4815289Y1645681D1*
X4815029Y1628973D1*
X4812972Y1615986D1*
X4808909Y1603482D1*
X4802940Y1591766D1*
X4795211Y1581129D1*
X4773151Y1558703D1*
X5281117Y1558592D2*
X5300397Y1553826D1*
X5303256Y1552771D1*
X5310517Y1567710D1*
X5318245Y1578347D1*
X5396249Y1656716D1*
X5384386Y1668944D1*
X5371151Y1687160D1*
X5366528Y1695416D1*
X5355583Y1677792D1*
X5340959Y1660671D1*
X5323289Y1645681D1*
X5323029Y1628919D1*
X5320972Y1615933D1*
X5316909Y1603428D1*
X5310940Y1591713D1*
X5303211Y1581076D1*
X5281150Y1558650D1*
X5535117Y1558592D2*
X5554397Y1553826D1*
X5557342Y1552739D1*
X5564544Y1567710D1*
X5572272Y1578347D1*
X5650275Y1656716D1*
X5638386Y1668944D1*
X5625151Y1687160D1*
X5620528Y1695416D1*
X5609583Y1677792D1*
X5594959Y1660671D1*
X5577289Y1645681D1*
X5577029Y1628893D1*
X5574972Y1615906D1*
X5570909Y1603402D1*
X5564940Y1591686D1*
X5557211Y1581049D1*
X5535151Y1558623D1*
X5789117Y1558592D2*
X5808397Y1553826D1*
X5817743Y1550378D1*
X5826299Y1562471D1*
X5912809Y1649347D1*
X5900034Y1660671D1*
X5885411Y1677792D1*
X5874528Y1695416D1*
X5863583Y1677792D1*
X5848959Y1660671D1*
X5831289Y1645681D1*
X5831028Y1628866D1*
X5828972Y1615880D1*
X5824909Y1603375D1*
X5818939Y1591660D1*
X5811211Y1581023D1*
X5789279Y1558726D1*
X6056050Y1555616D2*
X6071743Y1550378D1*
X6080325Y1562471D1*
X6166836Y1649347D1*
X6154034Y1660671D1*
X6139411Y1677792D1*
X6128528Y1695416D1*
X6117583Y1677792D1*
X6102959Y1660671D1*
X6085289Y1645681D1*
X6085029Y1612963D1*
X6082972Y1599976D1*
X6078909Y1587472D1*
X6072940Y1575756D1*
X6065211Y1565119D1*
X6056169Y1555712D1*
X6310050Y1555616D2*
X6325743Y1550378D1*
X6334352Y1562471D1*
X6420863Y1649347D1*
X6408034Y1660671D1*
X6393411Y1677792D1*
X6382528Y1695416D1*
X6371583Y1677792D1*
X6356959Y1660671D1*
X6339289Y1645681D1*
X6339029Y1612936D1*
X6336972Y1599950D1*
X6332909Y1587445D1*
X6326940Y1575730D1*
X6319211Y1565093D1*
X6310169Y1555685D1*
X6564138Y1555591D2*
X6581321Y1549795D1*
X6588385Y1546539D1*
X6658841Y1617422D1*
X6679659Y1638239D1*
X6679155Y1646047D1*
X6662034Y1660671D1*
X6647411Y1677792D1*
X6636528Y1695416D1*
X6625583Y1677792D1*
X6610959Y1660671D1*
X6593289Y1645681D1*
X6593028Y1612909D1*
X6590972Y1599923D1*
X6586909Y1587418D1*
X6580939Y1575703D1*
X6573211Y1565066D1*
X6564169Y1555659D1*
X7072138Y1555591D2*
X7089321Y1549795D1*
X7096385Y1546539D1*
X7187712Y1638239D1*
X7187155Y1646047D1*
X7170034Y1660671D1*
X7155411Y1677792D1*
X7144528Y1695416D1*
X7133583Y1677792D1*
X7118959Y1660671D1*
X7101289Y1645681D1*
X7101029Y1612856D1*
X7098972Y1599870D1*
X7094909Y1587365D1*
X7088940Y1575650D1*
X7081211Y1565012D1*
X7076727Y1560164D1*
X7337561Y1551921D2*
X7350385Y1546539D1*
X7441739Y1638239D1*
X7441155Y1646047D1*
X7424034Y1660671D1*
X7409411Y1677792D1*
X7398528Y1695416D1*
X7387583Y1677792D1*
X7372959Y1660671D1*
X7355289Y1645681D1*
X7355029Y1596953D1*
X7352972Y1583966D1*
X7348909Y1571462D1*
X7342940Y1559746D1*
X7339268Y1554256D1*
X7591561Y1551921D2*
X7607896Y1544921D1*
X7614602Y1541165D1*
X7695765Y1622362D1*
X7695155Y1646047D1*
X7678034Y1660671D1*
X7663411Y1677792D1*
X7652528Y1695416D1*
X7641583Y1677792D1*
X7626959Y1660671D1*
X7609289Y1645681D1*
X7609029Y1596926D1*
X7606972Y1583940D1*
X7602909Y1571435D1*
X7596940Y1559720D1*
X7593269Y1554229D1*
X8342225Y1555566D2*
X8359321Y1549795D1*
X8376602Y1541165D1*
X8457717Y1622234D1*
X8457155Y1646047D1*
X8440034Y1660671D1*
X8425411Y1677792D1*
X8414528Y1695416D1*
X8403583Y1677792D1*
X8388959Y1660671D1*
X8371289Y1645681D1*
X8371029Y1612723D1*
X8368972Y1599736D1*
X8364909Y1587232D1*
X8358940Y1575516D1*
X8351211Y1564879D1*
X8342298Y1555601D1*
X8850313Y1555542D2*
X8859598Y1552645D1*
X8866890Y1567710D1*
X8874619Y1578347D1*
X8952364Y1656458D1*
X8940386Y1668944D1*
X8927151Y1687160D1*
X8922528Y1695416D1*
X8911583Y1677792D1*
X8896959Y1660671D1*
X8879289Y1645681D1*
X8879029Y1612669D1*
X8876972Y1599683D1*
X8872909Y1587178D1*
X8866940Y1575463D1*
X8859211Y1564826D1*
X8850427Y1555677D1*
X9091474Y1558521D2*
X9110397Y1553826D1*
X9128645Y1546594D1*
X9219668Y1637981D1*
X9219155Y1646047D1*
X9202034Y1660671D1*
X9187411Y1677792D1*
X9176528Y1695416D1*
X9165583Y1677792D1*
X9150959Y1660671D1*
X9133289Y1645681D1*
X9133029Y1628519D1*
X9130972Y1615533D1*
X9126909Y1603028D1*
X9120940Y1591313D1*
X9113211Y1580676D1*
X9091537Y1558636D1*
X9345423Y2132985D2*
X9325943Y2128410D1*
X9303497Y2126643D1*
X9281050Y2128410D1*
X9258949Y2133742D1*
X9258731Y2076111D1*
X9256674Y2063125D1*
X9252611Y2050620D1*
X9246642Y2038905D1*
X9238914Y2028268D1*
X9133326Y1922315D1*
X9133838Y1878219D1*
X9150959Y1863596D1*
X9165583Y1846475D1*
X9176466Y1828851D1*
X9187411Y1846475D1*
X9202034Y1863596D1*
X9219704Y1878586D1*
X9219965Y1963557D1*
X9222022Y1976543D1*
X9226085Y1989048D1*
X9232054Y2000763D1*
X9239782Y2011400D1*
X9345370Y2117353D1*
X9345409Y2132907D1*
X9258949Y2406524D2*
X9281050Y2411857D1*
X9303497Y2413623D1*
X9325943Y2411857D1*
X9345423Y2407281D1*
X9345409Y3665615D1*
X9325943Y3684377D1*
X9303497Y3682610D1*
X9281050Y3684377D1*
X9258949Y3689709D1*
X9258989Y2406582D1*
X9430466Y1695416D2*
X9419583Y1677792D1*
X9404959Y1660671D1*
X9387289Y1645681D1*
X9387028Y1596739D1*
X9384972Y1583753D1*
X9380909Y1571248D1*
X9374939Y1559533D1*
X9371268Y1554043D1*
X9374944Y1551834D1*
X9382672Y1562471D1*
X9469054Y1649218D1*
X9456034Y1660671D1*
X9441411Y1677792D1*
X9430528Y1695416D1*
X9387289Y1878586D2*
X9404959Y1863596D1*
X9419583Y1846475D1*
X9430466Y1828851D1*
X9441411Y1846475D1*
X9456034Y1863596D1*
X9473704Y1878586D1*
X9473965Y1930554D1*
X9476022Y1943541D1*
X9480085Y1956045D1*
X9486054Y1967761D1*
X9493782Y1978398D1*
X9613742Y2098723D1*
X9665366Y2150347D1*
X9665411Y2175568D1*
X9650686Y2161023D1*
X9632470Y2147788D1*
X9612408Y2137566D1*
X9590994Y2130608D1*
X9568755Y2127086D1*
X9546239D1*
X9524000Y2130608D1*
X9512949Y2133742D1*
X9512731Y2076111D1*
X9510674Y2063125D1*
X9506611Y2050620D1*
X9500642Y2038905D1*
X9492914Y2028268D1*
X9387326Y1922315D1*
X9387287Y1878688D1*
X9091423Y2132985D2*
X9071943Y2128410D1*
X9049497Y2126643D1*
X9027050Y2128410D1*
X9004949Y2133742D1*
X9004731Y2076111D1*
X9002674Y2063125D1*
X8998611Y2050620D1*
X8992642Y2038905D1*
X8984914Y2028268D1*
X8879326Y1922315D1*
X8879838Y1878219D1*
X8896959Y1863596D1*
X8911583Y1846475D1*
X8922466Y1828851D1*
X8933411Y1846475D1*
X8948034Y1863596D1*
X8965704Y1878586D1*
X8965965Y1963557D1*
X8968022Y1976543D1*
X8972085Y1989048D1*
X8978054Y2000763D1*
X8985782Y2011400D1*
X9091370Y2117353D1*
X9091409Y2132907D1*
X9004949Y2406524D2*
X9027050Y2411857D1*
X9049497Y2413623D1*
X9071943Y2411857D1*
X9091423Y2407281D1*
X9091409Y3665615D1*
X9071943Y3684377D1*
X9049497Y3682610D1*
X9027050Y3684377D1*
X9004949Y3689709D1*
X9004989Y2406582D1*
X8075423Y2132985D2*
X8055943Y2128410D1*
X8033497Y2126643D1*
X8011050Y2128410D1*
X7989156Y2133666D1*
X7968354Y2142283D1*
X7949155Y2154047D1*
X7932034Y2168671D1*
X7917411Y2185792D1*
X7906528Y2203416D1*
X7895583Y2185792D1*
X7880959Y2168671D1*
X7863838Y2154047D1*
X7844640Y2142283D1*
X7823838Y2133666D1*
X7801943Y2128410D1*
X7779497Y2126643D1*
X7757050Y2128410D1*
X7734949Y2133742D1*
X7734731Y2076111D1*
X7732674Y2063125D1*
X7728611Y2050620D1*
X7722642Y2038905D1*
X7714914Y2028268D1*
X7609326Y1922315D1*
X7609838Y1878219D1*
X7626959Y1863596D1*
X7641583Y1846475D1*
X7652466Y1828851D1*
X7663411Y1846475D1*
X7678034Y1863596D1*
X7695155Y1878219D1*
X7714354Y1889984D1*
X7735156Y1898600D1*
X7757050Y1903857D1*
X7779497Y1905623D1*
X7801943Y1903857D1*
X7823838Y1898600D1*
X7844640Y1889984D1*
X7863838Y1878219D1*
X7880959Y1863596D1*
X7895583Y1846475D1*
X7906466Y1828851D1*
X7917411Y1846475D1*
X7932034Y1863596D1*
X7949704Y1878586D1*
X7949965Y1963557D1*
X7952022Y1976543D1*
X7956085Y1989048D1*
X7962054Y2000763D1*
X7969782Y2011400D1*
X8075370Y2117353D1*
X8075409Y2132907D1*
X7988949Y2406524D2*
X8011050Y2411857D1*
X8033497Y2413623D1*
X8055943Y2411857D1*
X8075423Y2407281D1*
X8075409Y3665615D1*
X8055943Y3684377D1*
X8033497Y3682610D1*
X8011050Y3684377D1*
X7988949Y3689709D1*
X7988989Y2406577D1*
X8160466Y1695416D2*
X8149583Y1677792D1*
X8134959Y1660671D1*
X8117289Y1645681D1*
X8117029Y1596873D1*
X8114972Y1583886D1*
X8110909Y1571382D1*
X8104940Y1559666D1*
X8101268Y1554176D1*
X8104810Y1551834D1*
X8112539Y1562471D1*
X8198920Y1649218D1*
X8186034Y1660671D1*
X8171411Y1677792D1*
X8160528Y1695416D1*
X7949704Y1645681D2*
X7932034Y1660671D1*
X7917411Y1677792D1*
X7906528Y1695416D1*
X7895583Y1677792D1*
X7880959Y1660671D1*
X7863289Y1645681D1*
X7863028Y1581023D1*
X7860972Y1568036D1*
X7856909Y1555532D1*
X7854142Y1549534D1*
X7858512Y1546594D1*
X7949663Y1638110D1*
X8117289Y1878586D2*
X8134959Y1863596D1*
X8149583Y1846475D1*
X8160466Y1828851D1*
X8171411Y1846475D1*
X8186034Y1863596D1*
X8203704Y1878586D1*
X8203965Y1963557D1*
X8206022Y1976543D1*
X8210085Y1989048D1*
X8216054Y2000763D1*
X8223782Y2011400D1*
X8329370Y2117353D1*
X8329409Y2132907D1*
X8309943Y2128410D1*
X8287497Y2126643D1*
X8265050Y2128410D1*
X8242949Y2133742D1*
X8242731Y2076111D1*
X8240674Y2063125D1*
X8236611Y2050620D1*
X8230642Y2038905D1*
X8222914Y2028268D1*
X8117326Y1922315D1*
X8117287Y1878688D1*
X7734949Y2406524D2*
X7757050Y2411857D1*
X7779497Y2413623D1*
X7802591Y2411728D1*
X7821370Y2430504D1*
X7821409Y3688922D1*
X7801943Y3684377D1*
X7779497Y3682610D1*
X7757050Y3684377D1*
X7734949Y3689709D1*
X7734989Y2406582D1*
X7567423Y2132985D2*
X7547943Y2128410D1*
X7525497Y2126643D1*
X7503050Y2128410D1*
X7480949Y2133742D1*
X7480731Y2076111D1*
X7478674Y2063125D1*
X7474611Y2050620D1*
X7468642Y2038905D1*
X7460914Y2028268D1*
X7355326Y1922315D1*
X7355838Y1878219D1*
X7372959Y1863596D1*
X7387583Y1846475D1*
X7398466Y1828851D1*
X7409411Y1846475D1*
X7424034Y1863596D1*
X7441704Y1878586D1*
X7441965Y1963557D1*
X7444022Y1976543D1*
X7448085Y1989048D1*
X7454054Y2000763D1*
X7461782Y2011400D1*
X7567370Y2117353D1*
X7567409Y2132907D1*
X7480949Y2406524D2*
X7503050Y2411857D1*
X7525497Y2413623D1*
X7547943Y2411857D1*
X7567423Y2407281D1*
X7567409Y3665615D1*
X7547943Y3684377D1*
X7525497Y3682610D1*
X7503050Y3684377D1*
X7480949Y3689709D1*
X7480989Y2406582D1*
X6890466Y1695416D2*
X6879583Y1677792D1*
X6864959Y1660671D1*
X6847289Y1645681D1*
X6847029Y1597006D1*
X6844972Y1584020D1*
X6840909Y1571515D1*
X6834940Y1559800D1*
X6831269Y1554309D1*
X6834677Y1551833D1*
X6842406Y1562471D1*
X6928916Y1649346D1*
X6916034Y1660671D1*
X6901411Y1677792D1*
X6890528Y1695416D1*
X6636528Y1828851D2*
X6647411Y1846475D1*
X6662034Y1863596D1*
X6679704Y1878586D1*
X6679965Y1963557D1*
X6682022Y1976543D1*
X6686085Y1989048D1*
X6692054Y2000763D1*
X6699782Y2011400D1*
X6805370Y2117353D1*
X6805409Y2132907D1*
X6785943Y2128410D1*
X6763497Y2126643D1*
X6741050Y2128410D1*
X6718949Y2133742D1*
X6718731Y2076111D1*
X6716674Y2063125D1*
X6712611Y2050620D1*
X6706642Y2038905D1*
X6698914Y2028268D1*
X6593326Y1922315D1*
X6593838Y1878219D1*
X6610959Y1863596D1*
X6625583Y1846475D1*
X6636466Y1828851D1*
X6847289Y1878586D2*
X6864959Y1863596D1*
X6879583Y1846475D1*
X6890466Y1828851D1*
X6901411Y1846475D1*
X6916034Y1863596D1*
X6933704Y1878586D1*
X6933965Y1963557D1*
X6936022Y1976543D1*
X6940085Y1989048D1*
X6946054Y2000763D1*
X6953782Y2011400D1*
X7059370Y2117353D1*
X7059409Y2132907D1*
X7039943Y2128410D1*
X7017497Y2126643D1*
X6995050Y2128410D1*
X6972949Y2133742D1*
X6972731Y2076111D1*
X6970674Y2063125D1*
X6966611Y2050620D1*
X6960642Y2038905D1*
X6952914Y2028268D1*
X6847326Y1922315D1*
X6847287Y1878688D1*
X6718949Y2406524D2*
X6741050Y2411857D1*
X6763497Y2413623D1*
X6785943Y2411857D1*
X6805423Y2407281D1*
X6805409Y3665615D1*
X6785943Y3684377D1*
X6763497Y3682610D1*
X6741050Y3684377D1*
X6718949Y3689709D1*
X6718989Y2406582D1*
X6551423Y2132985D2*
X6531943Y2128410D1*
X6509497Y2126643D1*
X6487050Y2128410D1*
X6464949Y2133742D1*
X6464731Y2076111D1*
X6462674Y2063125D1*
X6458611Y2050620D1*
X6452642Y2038905D1*
X6444914Y2028268D1*
X6339326Y1922315D1*
X6339838Y1878219D1*
X6356959Y1863596D1*
X6371583Y1846475D1*
X6382466Y1828851D1*
X6393411Y1846475D1*
X6408034Y1863596D1*
X6425704Y1878586D1*
X6425965Y1963557D1*
X6428022Y1976543D1*
X6432085Y1989048D1*
X6438054Y2000763D1*
X6445782Y2011400D1*
X6551370Y2117353D1*
X6551409Y2132907D1*
X6464949Y2406524D2*
X6487050Y2411857D1*
X6509497Y2413623D1*
X6531943Y2411857D1*
X6551423Y2407281D1*
X6551409Y3665615D1*
X6531943Y3684377D1*
X6509497Y3682610D1*
X6487050Y3684377D1*
X6464949Y3689709D1*
X6464989Y2406582D1*
X5366528Y1828851D2*
X5377411Y1846475D1*
X5392034Y1863596D1*
X5409704Y1878586D1*
X5409965Y1963557D1*
X5412022Y1976543D1*
X5416085Y1989048D1*
X5422054Y2000763D1*
X5429782Y2011400D1*
X5535370Y2117353D1*
X5535409Y2132907D1*
X5515943Y2128410D1*
X5493497Y2126643D1*
X5471050Y2128410D1*
X5448949Y2133742D1*
X5448731Y2076111D1*
X5446674Y2063125D1*
X5442611Y2050620D1*
X5436642Y2038905D1*
X5428914Y2028268D1*
X5323326Y1922315D1*
X5323838Y1878219D1*
X5340959Y1863596D1*
X5355583Y1846475D1*
X5366466Y1828851D1*
X5577289Y1878586D2*
X5594959Y1863596D1*
X5609583Y1846475D1*
X5620466Y1828851D1*
X5631411Y1846475D1*
X5646034Y1863596D1*
X5663704Y1878586D1*
X5663965Y1963557D1*
X5666022Y1976543D1*
X5670085Y1989048D1*
X5676054Y2000763D1*
X5683782Y2011400D1*
X5789370Y2117353D1*
X5789409Y2132907D1*
X5769943Y2128410D1*
X5747497Y2126643D1*
X5725050Y2128410D1*
X5702949Y2133742D1*
X5702731Y2076111D1*
X5700674Y2063125D1*
X5696611Y2050620D1*
X5690642Y2038905D1*
X5682914Y2028268D1*
X5577326Y1922315D1*
X5577287Y1878688D1*
X5142268Y1656757D2*
X5130386Y1668944D1*
X5117151Y1687160D1*
X5112528Y1695416D1*
X5101583Y1677792D1*
X5086959Y1660671D1*
X5069289Y1645681D1*
X5069029Y1597193D1*
X5066965Y1584181D1*
X5068704Y1583196D1*
X5142222Y1656716D1*
X5112528Y1828851D2*
X5123411Y1846475D1*
X5138034Y1863596D1*
X5155704Y1878586D1*
X5155965Y1963557D1*
X5158022Y1976543D1*
X5162085Y1989048D1*
X5168054Y2000763D1*
X5175782Y2011400D1*
X5281370Y2117353D1*
X5281409Y2132907D1*
X5261943Y2128410D1*
X5239497Y2126643D1*
X5217050Y2128410D1*
X5194949Y2133742D1*
X5194731Y2076111D1*
X5192674Y2063125D1*
X5188611Y2050620D1*
X5182642Y2038905D1*
X5174914Y2028268D1*
X5069326Y1922315D1*
X5069838Y1878219D1*
X5086959Y1863596D1*
X5101583Y1846475D1*
X5112466Y1828851D1*
X4858528D2*
X4869411Y1846475D1*
X4884034Y1863596D1*
X4901704Y1878586D1*
X4901965Y1963557D1*
X4904022Y1976543D1*
X4908085Y1989048D1*
X4914054Y2000763D1*
X4921782Y2011400D1*
X5027370Y2117353D1*
X5027409Y2132907D1*
X5007943Y2128410D1*
X4985497Y2126643D1*
X4963050Y2128410D1*
X4940949Y2133742D1*
X4940731Y2076111D1*
X4938674Y2063125D1*
X4934611Y2050620D1*
X4928642Y2038905D1*
X4920914Y2028268D1*
X4815326Y1922315D1*
X4815838Y1878219D1*
X4832959Y1863596D1*
X4847583Y1846475D1*
X4858466Y1828851D1*
X4604528D2*
X4615411Y1846475D1*
X4630034Y1863596D1*
X4647704Y1878586D1*
X4647965Y1963557D1*
X4650022Y1976543D1*
X4654085Y1989048D1*
X4660054Y2000763D1*
X4667782Y2011400D1*
X4773370Y2117353D1*
X4773409Y2132907D1*
X4753943Y2128410D1*
X4731497Y2126643D1*
X4709050Y2128410D1*
X4686949Y2133742D1*
X4686731Y2076111D1*
X4684674Y2063125D1*
X4680611Y2050620D1*
X4674642Y2038905D1*
X4666914Y2028268D1*
X4561326Y1922315D1*
X4561838Y1878219D1*
X4578959Y1863596D1*
X4593583Y1846475D1*
X4604466Y1828851D1*
X4350528D2*
X4361411Y1846475D1*
X4376034Y1863596D1*
X4393704Y1878586D1*
X4393965Y1963557D1*
X4396022Y1976543D1*
X4400085Y1989048D1*
X4406054Y2000763D1*
X4413782Y2011400D1*
X4519370Y2117353D1*
X4519409Y2132907D1*
X4499943Y2128410D1*
X4477497Y2126643D1*
X4455050Y2128410D1*
X4432949Y2133742D1*
X4432731Y2076111D1*
X4430674Y2063125D1*
X4426611Y2050620D1*
X4420642Y2038905D1*
X4412914Y2028268D1*
X4307326Y1922315D1*
X4307838Y1878219D1*
X4324959Y1863596D1*
X4339583Y1846475D1*
X4350466Y1828851D1*
X2064466Y1695416D2*
X2053583Y1677792D1*
X2038959Y1660671D1*
X2021289Y1645681D1*
X2021029Y1597513D1*
X2018972Y1584526D1*
X2014909Y1572022D1*
X2008940Y1560306D1*
X2005268Y1554816D1*
X2008170Y1551834D1*
X2015899Y1562471D1*
X2102538Y1649476D1*
X2090034Y1660671D1*
X2075411Y1677792D1*
X2064528Y1695416D1*
X2021289Y1878586D2*
X2038959Y1863596D1*
X2053583Y1846475D1*
X2064466Y1828851D1*
X2075411Y1846475D1*
X2090034Y1863596D1*
X2107704Y1878586D1*
X2107965Y1963557D1*
X2110022Y1976543D1*
X2114085Y1989048D1*
X2120054Y2000763D1*
X2127782Y2011400D1*
X2233370Y2117353D1*
X2233409Y2132907D1*
X2213943Y2128410D1*
X2191497Y2126643D1*
X2169050Y2128410D1*
X2146949Y2133742D1*
X2146731Y2076111D1*
X2144674Y2063125D1*
X2140611Y2050620D1*
X2134642Y2038905D1*
X2126914Y2028268D1*
X2021326Y1922315D1*
X2021287Y1878688D1*
X2275289Y1878586D2*
X2292959Y1863596D1*
X2307583Y1846475D1*
X2318466Y1828851D1*
X2329411Y1846475D1*
X2344034Y1863596D1*
X2361704Y1878586D1*
X2361965Y1963557D1*
X2364022Y1976543D1*
X2368085Y1989048D1*
X2374054Y2000763D1*
X2381782Y2011400D1*
X2487370Y2117353D1*
X2487409Y2132907D1*
X2467943Y2128410D1*
X2445497Y2126643D1*
X2423050Y2128410D1*
X2400949Y2133742D1*
X2400731Y2076111D1*
X2398674Y2063125D1*
X2394611Y2050620D1*
X2388642Y2038905D1*
X2380914Y2028268D1*
X2275326Y1922315D1*
X2275287Y1878688D1*
X2572466Y1695416D2*
X2561583Y1677792D1*
X2546959Y1660671D1*
X2529289Y1645681D1*
X2529028Y1597459D1*
X2526972Y1584473D1*
X2522909Y1571968D1*
X2516939Y1560253D1*
X2513268Y1554763D1*
X2516224Y1551834D1*
X2523952Y1562471D1*
X2610592Y1649476D1*
X2598034Y1660671D1*
X2583411Y1677792D1*
X2572528Y1695416D1*
X2529289Y1878586D2*
X2546959Y1863596D1*
X2561583Y1846475D1*
X2572466Y1828851D1*
X2583411Y1846475D1*
X2598034Y1863596D1*
X2615704Y1878586D1*
X2615965Y1963557D1*
X2618022Y1976543D1*
X2622085Y1989048D1*
X2628054Y2000763D1*
X2635782Y2011400D1*
X2741370Y2117353D1*
X2741409Y2132907D1*
X2721943Y2128410D1*
X2699497Y2126643D1*
X2677050Y2128410D1*
X2654949Y2133742D1*
X2654731Y2076111D1*
X2652674Y2063125D1*
X2648611Y2050620D1*
X2642642Y2038905D1*
X2634914Y2028268D1*
X2529326Y1922315D1*
X2529287Y1878688D1*
X2783289Y1878586D2*
X2800959Y1863596D1*
X2815583Y1846475D1*
X2826466Y1828851D1*
X2837411Y1846475D1*
X2852034Y1863596D1*
X2869704Y1878586D1*
X2869965Y1963557D1*
X2872022Y1976543D1*
X2876085Y1989048D1*
X2882054Y2000763D1*
X2889782Y2011400D1*
X2995370Y2117353D1*
X2995409Y2132907D1*
X2975943Y2128410D1*
X2953497Y2126643D1*
X2931050Y2128410D1*
X2908949Y2133742D1*
X2908731Y2076111D1*
X2906674Y2063125D1*
X2902611Y2050620D1*
X2896642Y2038905D1*
X2888914Y2028268D1*
X2783326Y1922315D1*
X2783287Y1878688D1*
X3037289Y1878586D2*
X3054959Y1863596D1*
X3069583Y1846475D1*
X3080466Y1828851D1*
X3091411Y1846475D1*
X3106034Y1863596D1*
X3123704Y1878586D1*
X3123965Y1963557D1*
X3126022Y1976543D1*
X3130085Y1989048D1*
X3136054Y2000763D1*
X3143782Y2011400D1*
X3249370Y2117353D1*
X3249409Y2132907D1*
X3229943Y2128410D1*
X3207497Y2126643D1*
X3185050Y2128410D1*
X3162949Y2133742D1*
X3162731Y2076111D1*
X3160674Y2063125D1*
X3156611Y2050620D1*
X3150642Y2038905D1*
X3142914Y2028268D1*
X3037326Y1922315D1*
X3037287Y1878688D1*
X3334466Y1695416D2*
X3323583Y1677792D1*
X3308959Y1660671D1*
X3291289Y1645681D1*
X3291028Y1597379D1*
X3288972Y1584393D1*
X3284909Y1571888D1*
X3278939Y1560173D1*
X3275268Y1554683D1*
X3278304Y1551834D1*
X3286032Y1562471D1*
X3372672Y1649476D1*
X3360034Y1660671D1*
X3345411Y1677792D1*
X3334528Y1695416D1*
X3291289Y1878586D2*
X3308959Y1863596D1*
X3323583Y1846475D1*
X3334466Y1828851D1*
X3345411Y1846475D1*
X3360034Y1863596D1*
X3377704Y1878586D1*
X3377965Y1963557D1*
X3380022Y1976543D1*
X3384085Y1989048D1*
X3390054Y2000763D1*
X3397782Y2011400D1*
X3503370Y2117353D1*
X3503409Y2132907D1*
X3483943Y2128410D1*
X3461497Y2126643D1*
X3439050Y2128410D1*
X3416949Y2133742D1*
X3416731Y2076111D1*
X3414674Y2063125D1*
X3410611Y2050620D1*
X3404642Y2038905D1*
X3396914Y2028268D1*
X3291326Y1922315D1*
X3291287Y1878688D1*
X3545289Y1878586D2*
X3562959Y1863596D1*
X3577583Y1846475D1*
X3588466Y1828851D1*
X3599411Y1846475D1*
X3614034Y1863596D1*
X3631704Y1878586D1*
X3631965Y1963557D1*
X3634022Y1976543D1*
X3638085Y1989048D1*
X3644054Y2000763D1*
X3651782Y2011400D1*
X3757370Y2117353D1*
X3757409Y2132907D1*
X3737943Y2128410D1*
X3715497Y2126643D1*
X3693050Y2128410D1*
X3670949Y2133742D1*
X3670731Y2076111D1*
X3668674Y2063125D1*
X3664611Y2050620D1*
X3658642Y2038905D1*
X3650914Y2028268D1*
X3545326Y1922315D1*
X3545287Y1878688D1*
X3799289Y1878586D2*
X3816959Y1863596D1*
X3831583Y1846475D1*
X3842466Y1828851D1*
X3853411Y1846475D1*
X3868034Y1863596D1*
X3885704Y1878586D1*
X3885965Y1963557D1*
X3888022Y1976543D1*
X3892085Y1989048D1*
X3898054Y2000763D1*
X3905782Y2011400D1*
X4011370Y2117353D1*
X4011409Y2132907D1*
X3991943Y2128410D1*
X3969497Y2126643D1*
X3947050Y2128410D1*
X3924949Y2133742D1*
X3924731Y2076111D1*
X3922674Y2063125D1*
X3918611Y2050620D1*
X3912642Y2038905D1*
X3904914Y2028268D1*
X3799326Y1922315D1*
X3799287Y1878688D1*
X4096466Y1695416D2*
X4085583Y1677792D1*
X4070959Y1660671D1*
X4053289Y1645681D1*
X4053029Y1597299D1*
X4050972Y1584313D1*
X4046909Y1571808D1*
X4040940Y1560093D1*
X4037268Y1554603D1*
X4040384Y1551834D1*
X4048112Y1562471D1*
X4134751Y1649476D1*
X4122034Y1660671D1*
X4107411Y1677792D1*
X4096528Y1695416D1*
X4053289Y1878586D2*
X4070959Y1863596D1*
X4085583Y1846475D1*
X4096466Y1828851D1*
X4107411Y1846475D1*
X4122034Y1863596D1*
X4139704Y1878586D1*
X4139965Y1963557D1*
X4142022Y1976543D1*
X4146085Y1989048D1*
X4152054Y2000763D1*
X4159782Y2011400D1*
X4265370Y2117353D1*
X4265409Y2132907D1*
X4245943Y2128410D1*
X4223497Y2126643D1*
X4201050Y2128410D1*
X4178949Y2133742D1*
X4178731Y2076111D1*
X4176674Y2063125D1*
X4172611Y2050620D1*
X4166642Y2038905D1*
X4158914Y2028268D1*
X4053326Y1922315D1*
X4053287Y1878688D1*
X5448949Y2406524D2*
X5471050Y2411857D1*
X5493497Y2413623D1*
X5515943Y2411857D1*
X5535423Y2407281D1*
X5535409Y3665615D1*
X5515943Y3684377D1*
X5493497Y3682610D1*
X5471050Y3684377D1*
X5448949Y3689709D1*
X5448989Y2406582D1*
X5194949Y2406524D2*
X5217050Y2411857D1*
X5239497Y2413623D1*
X5261943Y2411857D1*
X5281423Y2407281D1*
X5281409Y3665615D1*
X5261943Y3684377D1*
X5239497Y3682610D1*
X5217050Y3684377D1*
X5194949Y3689709D1*
X5194989Y2406582D1*
X4940949Y2406524D2*
X4963050Y2411857D1*
X4985497Y2413623D1*
X5007943Y2411857D1*
X5027423Y2407281D1*
X5027409Y3665615D1*
X5007943Y3684377D1*
X4985497Y3682610D1*
X4963050Y3684377D1*
X4940949Y3689709D1*
X4940989Y2406582D1*
X4686949Y2406524D2*
X4709050Y2411857D1*
X4731497Y2413623D1*
X4753943Y2411857D1*
X4773423Y2407281D1*
X4773409Y3665615D1*
X4753943Y3684377D1*
X4731497Y3682610D1*
X4709050Y3684377D1*
X4686949Y3689709D1*
X4686989Y2406582D1*
X4432949Y2406524D2*
X4455050Y2411857D1*
X4477497Y2413623D1*
X4499943Y2411857D1*
X4519423Y2407281D1*
X4519409Y3665615D1*
X4499943Y3684377D1*
X4477497Y3682610D1*
X4455050Y3684377D1*
X4432949Y3689709D1*
X4432989Y2406582D1*
X4178949Y2406524D2*
X4201050Y2411857D1*
X4223497Y2413623D1*
X4245943Y2411857D1*
X4265423Y2407281D1*
X4265409Y3665615D1*
X4245943Y3684377D1*
X4223497Y3682610D1*
X4201050Y3684377D1*
X4178949Y3689709D1*
X4178989Y2406582D1*
X3924949Y2406524D2*
X3947050Y2411857D1*
X3969497Y2413623D1*
X3991943Y2411857D1*
X4011423Y2407281D1*
X4011409Y3665615D1*
X3991943Y3684377D1*
X3969497Y3682610D1*
X3947050Y3684377D1*
X3924949Y3689709D1*
X3924989Y2406582D1*
X3670949Y2406524D2*
X3693050Y2411857D1*
X3715497Y2413623D1*
X3737943Y2411857D1*
X3757423Y2407281D1*
X3757409Y3665615D1*
X3737943Y3684377D1*
X3715497Y3682610D1*
X3693050Y3684377D1*
X3670949Y3689709D1*
X3670990Y2406582D1*
X3416949Y2406524D2*
X3439050Y2411857D1*
X3461497Y2413623D1*
X3483943Y2411857D1*
X3503423Y2407281D1*
X3503409Y3665615D1*
X3483943Y3684377D1*
X3461497Y3682610D1*
X3439050Y3684377D1*
X3416949Y3689709D1*
X3416989Y2406582D1*
X3162949Y2406524D2*
X3185050Y2411857D1*
X3207497Y2413623D1*
X3229943Y2411857D1*
X3249423Y2407281D1*
X3249409Y3665615D1*
X3229943Y3684377D1*
X3207497Y3682610D1*
X3185050Y3684377D1*
X3162949Y3689709D1*
X3162989Y2406582D1*
X2908949Y2406524D2*
X2931050Y2411857D1*
X2953497Y2413623D1*
X2975943Y2411857D1*
X2995423Y2407281D1*
X2995409Y3665615D1*
X2975943Y3684377D1*
X2953497Y3682610D1*
X2931050Y3684377D1*
X2908949Y3689709D1*
X2908989Y2406582D1*
X2654949Y2406524D2*
X2677050Y2411857D1*
X2699497Y2413623D1*
X2721943Y2411857D1*
X2741423Y2407281D1*
X2741409Y3665615D1*
X2721943Y3684377D1*
X2699497Y3682610D1*
X2677050Y3684377D1*
X2654949Y3689709D1*
X2654989Y2406582D1*
X2400949Y2406524D2*
X2423050Y2411857D1*
X2445497Y2413623D1*
X2467943Y2411857D1*
X2487423Y2407281D1*
X2487409Y3665615D1*
X2467943Y3684377D1*
X2445497Y3682610D1*
X2423050Y3684377D1*
X2400949Y3689709D1*
X2400989Y2406582D1*
X2146949Y2406524D2*
X2169050Y2411857D1*
X2191497Y2413623D1*
X2213943Y2411857D1*
X2233423Y2407281D1*
X2233409Y3665615D1*
X2213943Y3684377D1*
X2191497Y3682610D1*
X2169050Y3684377D1*
X2146949Y3689709D1*
X2146989Y2406582D1*
X5831289Y1878586D2*
X5848959Y1863596D1*
X5863583Y1846475D1*
X5874466Y1828851D1*
X5885411Y1846475D1*
X5900034Y1863596D1*
X5917704Y1878586D1*
X5917965Y1963557D1*
X5920022Y1976543D1*
X5924085Y1989048D1*
X5930054Y2000763D1*
X5937782Y2011400D1*
X6043370Y2117353D1*
X6043409Y2132907D1*
X6023943Y2128410D1*
X6001497Y2126643D1*
X5979050Y2128410D1*
X5956949Y2133742D1*
X5956731Y2076111D1*
X5954674Y2063125D1*
X5950611Y2050620D1*
X5944642Y2038905D1*
X5936914Y2028268D1*
X5831326Y1922315D1*
X5831287Y1878688D1*
X5702949Y2406524D2*
X5725050Y2411857D1*
X5747497Y2413623D1*
X5769943Y2411857D1*
X5789423Y2407281D1*
X5789409Y3665615D1*
X5769943Y3684377D1*
X5747497Y3682610D1*
X5725050Y3684377D1*
X5702949Y3689709D1*
X5702990Y2406582D1*
X5956949Y2406524D2*
X5979050Y2411857D1*
X6001497Y2413623D1*
X6023943Y2411857D1*
X6043423Y2407281D1*
X6043409Y3665615D1*
X6023943Y3684377D1*
X6001497Y3682610D1*
X5979050Y3684377D1*
X5956949Y3689709D1*
X5956989Y2406582D1*
X6085289Y1878586D2*
X6102959Y1863596D1*
X6117583Y1846475D1*
X6128466Y1828851D1*
X6139411Y1846475D1*
X6154034Y1863596D1*
X6171704Y1878586D1*
X6171965Y1963557D1*
X6174022Y1976543D1*
X6178085Y1989048D1*
X6184054Y2000763D1*
X6191782Y2011400D1*
X6297370Y2117353D1*
X6297409Y2132907D1*
X6277943Y2128410D1*
X6255497Y2126643D1*
X6233050Y2128410D1*
X6210949Y2133742D1*
X6210731Y2076111D1*
X6208674Y2063125D1*
X6204611Y2050620D1*
X6198642Y2038905D1*
X6190914Y2028268D1*
X6085326Y1922315D1*
X6085287Y1878688D1*
X6210949Y2406524D2*
X6233050Y2411857D1*
X6255497Y2413623D1*
X6277943Y2411857D1*
X6297423Y2407281D1*
X6297409Y3665615D1*
X6277943Y3684377D1*
X6255497Y3682610D1*
X6233050Y3684377D1*
X6210949Y3689709D1*
X6210989Y2406582D1*
X7101289Y1878586D2*
X7118959Y1863596D1*
X7133583Y1846475D1*
X7144466Y1828851D1*
X7155411Y1846475D1*
X7170034Y1863596D1*
X7187704Y1878586D1*
X7187965Y1963557D1*
X7190022Y1976543D1*
X7194085Y1989048D1*
X7200054Y2000763D1*
X7207782Y2011400D1*
X7313370Y2117353D1*
X7313409Y2132907D1*
X7293943Y2128410D1*
X7271497Y2126643D1*
X7249050Y2128410D1*
X7226949Y2133742D1*
X7226731Y2076111D1*
X7224674Y2063125D1*
X7220611Y2050620D1*
X7214642Y2038905D1*
X7206914Y2028268D1*
X7101326Y1922315D1*
X7101287Y1878688D1*
X6972949Y2406524D2*
X6995050Y2411857D1*
X7017497Y2413623D1*
X7039943Y2411857D1*
X7059423Y2407281D1*
X7059409Y3665615D1*
X7039943Y3684377D1*
X7017497Y3682610D1*
X6995050Y3684377D1*
X6972949Y3689709D1*
X6972990Y2406582D1*
X7226949Y2406524D2*
X7249050Y2411857D1*
X7271497Y2413623D1*
X7293943Y2411857D1*
X7313423Y2407281D1*
X7313409Y3665615D1*
X7293943Y3684377D1*
X7271497Y3682610D1*
X7249050Y3684377D1*
X7226949Y3689709D1*
X7226989Y2406582D1*
X8371289Y1878586D2*
X8388959Y1863596D1*
X8403583Y1846475D1*
X8414466Y1828851D1*
X8425411Y1846475D1*
X8440034Y1863596D1*
X8457704Y1878586D1*
X8457965Y1963557D1*
X8460022Y1976543D1*
X8464085Y1989048D1*
X8470054Y2000763D1*
X8477782Y2011400D1*
X8583370Y2117353D1*
X8583409Y2132907D1*
X8563943Y2128410D1*
X8541497Y2126643D1*
X8519050Y2128410D1*
X8496949Y2133742D1*
X8496731Y2076111D1*
X8494674Y2063125D1*
X8490611Y2050620D1*
X8484642Y2038905D1*
X8476914Y2028268D1*
X8371326Y1922315D1*
X8371287Y1878688D1*
X8242949Y2406524D2*
X8265050Y2411857D1*
X8287497Y2413623D1*
X8309943Y2411857D1*
X8329423Y2407281D1*
X8329409Y3665615D1*
X8309943Y3684377D1*
X8287497Y3682610D1*
X8265050Y3684377D1*
X8242949Y3689709D1*
X8242989Y2406582D1*
X8668466Y1695416D2*
X8657583Y1677792D1*
X8642959Y1660671D1*
X8625289Y1645681D1*
X8625028Y1580943D1*
X8622965Y1567932D1*
X8625077Y1567319D1*
X8706974Y1649218D1*
X8694034Y1660671D1*
X8679411Y1677792D1*
X8668528Y1695416D1*
X8625289Y1878586D2*
X8642959Y1863596D1*
X8657583Y1846475D1*
X8668466Y1828851D1*
X8679411Y1846475D1*
X8694034Y1863596D1*
X8711704Y1878586D1*
X8711965Y1963557D1*
X8714022Y1976543D1*
X8718085Y1989048D1*
X8724054Y2000763D1*
X8731782Y2011400D1*
X8837370Y2117353D1*
X8837409Y2132907D1*
X8817943Y2128410D1*
X8795497Y2126643D1*
X8773050Y2128410D1*
X8750949Y2133742D1*
X8750731Y2076111D1*
X8748674Y2063125D1*
X8744611Y2050620D1*
X8738642Y2038905D1*
X8730914Y2028268D1*
X8625326Y1922315D1*
X8625287Y1878688D1*
X8496949Y2406524D2*
X8519050Y2411857D1*
X8541497Y2413623D1*
X8563943Y2411857D1*
X8583423Y2407281D1*
X8583409Y3665615D1*
X8563943Y3684377D1*
X8541497Y3682610D1*
X8519050Y3684377D1*
X8496949Y3689709D1*
X8496990Y2406582D1*
X8750949Y2406524D2*
X8773050Y2411857D1*
X8795497Y2413623D1*
X8817943Y2411857D1*
X8837423Y2407281D1*
X8837409Y3665615D1*
X8817943Y3684377D1*
X8795497Y3682610D1*
X8773050Y3684377D1*
X8750949Y3689709D1*
X8750989Y2406582D1*
X9512949Y2406524D2*
X9535050Y2411857D1*
X9557497Y2413623D1*
X9579943Y2411857D1*
X9601838Y2406600D1*
X9622640Y2397984D1*
X9641838Y2386219D1*
X9658959Y2371596D1*
X9665382Y2364648D1*
X9665411Y3599630D1*
X9580581Y3684518D1*
X9557497Y3682610D1*
X9535050Y3684377D1*
X9512949Y3689709D1*
X9512989Y2406582D1*
D16*
X1698573Y1412793D3*
X1952573D3*
X2206573D3*
X2460573D3*
X2714573D3*
X2968573D3*
X3222573D3*
X3476573D3*
X3730573D3*
X3984573D3*
X4238573D3*
X4492573D3*
X4746573D3*
X5000573D3*
X5254573D3*
X5508573D3*
X5762573D3*
X6016573D3*
X6270573D3*
X6524573D3*
X6778573D3*
X7032573D3*
X7286573D3*
X7540573D3*
X7794573D3*
X8048573D3*
X8302573D3*
X8556573D3*
X8810573D3*
X9064573D3*
X9318573D3*
Y1158793D3*
X9064573D3*
X8810573D3*
X8556573D3*
X8302573D3*
X8048573D3*
X7794573D3*
X7540573D3*
X7286573D3*
X7032573D3*
X6778573D3*
X6524573D3*
X6270573D3*
X6016573D3*
X5762573D3*
X5508573D3*
X5254573D3*
X5000573D3*
X4746573D3*
X4492573D3*
X4238573D3*
X3984573D3*
X3730573D3*
X3476573D3*
X3222573D3*
X2968573D3*
X2714573D3*
X2460573D3*
X2206573D3*
X1952573D3*
D17*
X1698573D3*
D18*
X9303497Y2270133D3*
Y1762133D3*
X9049497Y2270133D3*
Y1762133D3*
X8033497Y2270133D3*
Y1762133D3*
X7779497Y2270133D3*
Y1762133D3*
X7525497Y2270133D3*
Y1762133D3*
X6763497D3*
Y2270133D3*
X6509497D3*
Y1762133D3*
X5493497D3*
X5239497D3*
X4985497D3*
X4731497D3*
X4477497D3*
X1937497D3*
X2191497D3*
X2445497D3*
X2699497D3*
X2953497D3*
X3207497D3*
X3461497D3*
X3715497D3*
X3969497D3*
X4223497D3*
X5493497Y2270133D3*
X5239497D3*
X4985497D3*
X4731497D3*
X4477497D3*
X4223497D3*
X3969497D3*
X3715497D3*
X3461497D3*
X3207497D3*
X2953497D3*
X2699497D3*
X2445497D3*
X2191497D3*
D19*
X1937497D3*
D18*
X5747497Y1762133D3*
Y2270133D3*
X6001497D3*
Y1762133D3*
X6255497Y2270133D3*
Y1762133D3*
X7017497D3*
Y2270133D3*
X7271497D3*
Y1762133D3*
X8287497D3*
Y2270133D3*
X8541497Y1762133D3*
Y2270133D3*
X8795497Y1762133D3*
Y2270133D3*
X9557497Y1762133D3*
Y2270133D3*
X9303497Y4334100D3*
Y3826100D3*
X9049497Y4334100D3*
Y3826100D3*
X8033497Y4334100D3*
Y3826100D3*
X7779497Y4334100D3*
Y3826100D3*
X7525497Y4334100D3*
Y3826100D3*
X6763497D3*
Y4334100D3*
X6509497D3*
Y3826100D3*
X5493497D3*
X5239497D3*
X4985497D3*
X4731497D3*
X4477497D3*
X1937497D3*
X2191497D3*
X2445497D3*
X2699497D3*
X2953497D3*
X3207497D3*
X3461497D3*
X3715497D3*
X3969497D3*
X4223497D3*
X5493497Y4334100D3*
X5239497D3*
X4985497D3*
X4731497D3*
X4477497D3*
X4223497D3*
X3969497D3*
X3715497D3*
X3461497D3*
X3207497D3*
X2953497D3*
X2699497D3*
X2445497D3*
X2191497D3*
D19*
X1937497D3*
D18*
X5747497Y3826100D3*
Y4334100D3*
X6001497D3*
Y3826100D3*
X6255497Y4334100D3*
Y3826100D3*
X7017497D3*
Y4334100D3*
X7271497D3*
Y3826100D3*
X8287497D3*
Y4334100D3*
X8541497Y3826100D3*
Y4334100D3*
X8795497Y3826100D3*
Y4334100D3*
X9557497Y3826100D3*
Y4334100D3*
M02*
