G04 DipTrace 3.2.0.1*
G04 TopSilk.gbr*
%MOMM*%
G04 #@! TF.FileFunction,Legend,Top*
G04 #@! TF.Part,Single*
%ADD10C,0.25*%
%ADD32C,0.15686*%
%FSLAX35Y35*%
G04*
G71*
G90*
G75*
G01*
G04 TopSilk*
%LPD*%
X1546573Y148793D2*
D10*
X9470573D1*
Y998833D1*
X1546573D1*
Y148793D1*
X10011046Y2486002D2*
Y1546265D1*
X9810507Y2143006D2*
Y1889260D1*
X1484260Y2486002D2*
Y1546265D1*
X1684800Y2143006D2*
Y1889260D1*
X10017873Y1539883D2*
X1492794D1*
X10017873Y2492383D2*
X1492794D1*
X9810507Y1889260D2*
X1684800D1*
X9810507Y2143006D2*
X1684800D1*
X10011046Y4549968D2*
Y3610232D1*
X9810507Y4206973D2*
Y3953227D1*
X1484260Y4549968D2*
Y3610232D1*
X1684800Y4206973D2*
Y3953227D1*
X10017873Y3603850D2*
X1492794D1*
X10017873Y4556350D2*
X1492794D1*
X9810507Y3953227D2*
X1684800D1*
X9810507Y4206973D2*
X1684800D1*
X10251093Y4027104D2*
D32*
X10149005D1*
X10251093Y4061133D2*
Y3993075D1*
X10217064Y3903415D2*
X10149006D1*
X10202464D2*
X10212235Y3913073D1*
X10217064Y3922844D1*
Y3937332D1*
X10212235Y3947102D1*
X10202464Y3956761D1*
X10187864Y3961702D1*
X10178205D1*
X10163605Y3956761D1*
X10153947Y3947102D1*
X10149005Y3937332D1*
Y3922844D1*
X10153947Y3913073D1*
X10163605Y3903415D1*
X10217064Y3872042D2*
X10149006D1*
X10197635D2*
X10212235Y3857442D1*
X10217064Y3847671D1*
Y3833184D1*
X10212235Y3823413D1*
X10197635Y3818584D1*
X10149006D1*
X10251093Y3728924D2*
X10149006D1*
X10202464D2*
X10212235Y3738582D1*
X10217064Y3748353D1*
Y3762953D1*
X10212235Y3772611D1*
X10202464Y3782382D1*
X10187864Y3787211D1*
X10178206D1*
X10163606Y3782382D1*
X10153947Y3772611D1*
X10149006Y3762953D1*
Y3748353D1*
X10153947Y3738582D1*
X10163606Y3728924D1*
X10217064Y3692609D2*
X10149006Y3663522D1*
X10129576Y3673180D1*
X10119806Y3682951D1*
X10114976Y3692609D1*
Y3697551D1*
X10217064Y3634322D2*
X10149006Y3663522D1*
X10197635Y3504192D2*
Y3460392D1*
X10202464Y3445904D1*
X10207406Y3440963D1*
X10217064Y3436134D1*
X10231664D1*
X10241322Y3440963D1*
X10246264Y3445904D1*
X10251093Y3460392D1*
Y3504192D1*
X10149006D1*
X10251093Y3404761D2*
X10149006D1*
Y3346473D1*
X10251093Y3315101D2*
X10178206D1*
X10163606Y3310272D1*
X10153947Y3300501D1*
X10149006Y3285901D1*
Y3276242D1*
X10153947Y3261642D1*
X10163606Y3251872D1*
X10178206Y3247042D1*
X10251093D1*
X10236493Y3147611D2*
X10246264Y3157270D1*
X10251093Y3171870D1*
Y3191299D1*
X10246264Y3205899D1*
X10236493Y3215670D1*
X10226835D1*
X10217064Y3210728D1*
X10212235Y3205899D1*
X10207406Y3196241D1*
X10197635Y3167041D1*
X10192806Y3157270D1*
X10187864Y3152441D1*
X10178206Y3147611D1*
X10163606D1*
X10153947Y3157270D1*
X10149006Y3171870D1*
Y3191299D1*
X10153947Y3205899D1*
X10163606Y3215670D1*
X10199993Y3116239D2*
Y3060085D1*
X10251093Y3028712D2*
X10149006D1*
X10236493Y2929281D2*
X10246264Y2938940D1*
X10251093Y2953540D1*
Y2972969D1*
X10246264Y2987569D1*
X10236493Y2997340D1*
X10226835D1*
X10217064Y2992398D1*
X10212235Y2987569D1*
X10207406Y2977911D1*
X10197635Y2948711D1*
X10192806Y2938940D1*
X10187864Y2934111D1*
X10178206Y2929281D1*
X10163606D1*
X10153947Y2938940D1*
X10149006Y2953540D1*
Y2972969D1*
X10153947Y2987569D1*
X10163606Y2997340D1*
X10149006Y2820080D2*
X10251093Y2859050D1*
X10149006Y2897909D1*
X10183035Y2883309D2*
Y2834680D1*
X10202464Y2689950D2*
Y2646262D1*
X10207406Y2631662D1*
X10212235Y2626721D1*
X10221893Y2621891D1*
X10231664D1*
X10241322Y2626721D1*
X10246264Y2631662D1*
X10251093Y2646262D1*
Y2689950D1*
X10149006D1*
X10202464Y2655921D2*
X10149006Y2621891D1*
X10251093Y2590519D2*
X10246264Y2585690D1*
X10251093Y2580748D1*
X10256035Y2585690D1*
X10251093Y2590519D1*
X10217064Y2585690D2*
X10149006D1*
X10202464Y2495917D2*
X10212235Y2500746D1*
X10217064Y2515346D1*
Y2529946D1*
X10212235Y2544546D1*
X10202464Y2549376D1*
X10192806Y2544546D1*
X10187864Y2534776D1*
X10183035Y2510517D1*
X10178206Y2500746D1*
X10168435Y2495917D1*
X10163606D1*
X10153947Y2500746D1*
X10149006Y2515346D1*
Y2529946D1*
X10153947Y2544546D1*
X10163606Y2549376D1*
X10187864Y2464545D2*
Y2406257D1*
X10197635D1*
X10207406Y2411086D1*
X10212235Y2415915D1*
X10217064Y2425686D1*
Y2440286D1*
X10212235Y2449945D1*
X10202464Y2459715D1*
X10187864Y2464545D1*
X10178206D1*
X10163606Y2459715D1*
X10153947Y2449945D1*
X10149006Y2440286D1*
Y2425686D1*
X10153947Y2415915D1*
X10163606Y2406257D1*
X10217064Y2374884D2*
X10149006D1*
X10187864D2*
X10202464Y2369943D1*
X10212235Y2360284D1*
X10217064Y2350514D1*
Y2335914D1*
Y2205784D2*
X10149006Y2176584D1*
X10217064Y2147496D1*
X10231552Y2116124D2*
X10236493Y2106353D1*
X10250981Y2091753D1*
X10149006D1*
X10158776Y2055551D2*
X10153835Y2060380D1*
X10149006Y2055551D1*
X10153835Y2050610D1*
X10158776Y2055551D1*
X10250981Y1990037D2*
X10246152Y2004637D1*
X10231552Y2014408D1*
X10207293Y2019237D1*
X10192693D1*
X10168435Y2014408D1*
X10153835Y2004637D1*
X10149006Y1990037D1*
Y1980379D1*
X10153835Y1965779D1*
X10168435Y1956120D1*
X10192693Y1951179D1*
X10207293D1*
X10231552Y1956120D1*
X10246152Y1965779D1*
X10250981Y1980379D1*
Y1990037D1*
X10231552Y1956120D2*
X10168435Y2014408D1*
X10251093Y1821049D2*
X10149006D1*
X10202464D2*
X10212235Y1811278D1*
X10217064Y1801620D1*
Y1787020D1*
X10212235Y1777361D1*
X10202464Y1767590D1*
X10187864Y1762761D1*
X10178206D1*
X10163606Y1767590D1*
X10153947Y1777361D1*
X10149006Y1787020D1*
Y1801620D1*
X10153947Y1811278D1*
X10163606Y1821049D1*
X10217064Y1726447D2*
X10149006Y1697359D1*
X10129576Y1707018D1*
X10119806Y1716789D1*
X10114976Y1726447D1*
Y1731389D1*
X10217064Y1668159D2*
X10149006Y1697359D1*
X10251093Y1479742D2*
X10149006D1*
X10202464D2*
X10212235Y1489400D1*
X10217064Y1499171D1*
Y1513771D1*
X10212235Y1523430D1*
X10202464Y1533200D1*
X10187864Y1538030D1*
X10178206D1*
X10163606Y1533200D1*
X10153947Y1523430D1*
X10149006Y1513771D1*
Y1499171D1*
X10153947Y1489400D1*
X10163606Y1479742D1*
X10251093Y1399740D2*
X10173376D1*
X10158776Y1404569D1*
X10153947Y1409511D1*
X10149006Y1419169D1*
Y1428940D1*
X10153947Y1438599D1*
X10158776Y1443428D1*
X10173376Y1448369D1*
X10183035D1*
X10251093Y1339168D2*
X10246264Y1348938D1*
X10236493Y1358597D1*
X10226835Y1363538D1*
X10212235Y1368368D1*
X10187864D1*
X10173376Y1363538D1*
X10163606Y1358597D1*
X10153947Y1348938D1*
X10149006Y1339168D1*
Y1319738D1*
X10153947Y1310080D1*
X10163606Y1300309D1*
X10173376Y1295480D1*
X10187864Y1290651D1*
X10212235D1*
X10226835Y1295480D1*
X10236493Y1300309D1*
X10246264Y1310080D1*
X10251093Y1319738D1*
Y1339168D1*
X10236493Y1191220D2*
X10246264Y1200878D1*
X10251093Y1215478D1*
Y1234907D1*
X10246264Y1249507D1*
X10236493Y1259278D1*
X10226835D1*
X10217064Y1254337D1*
X10212235Y1249507D1*
X10207406Y1239849D1*
X10197635Y1210649D1*
X10192806Y1200878D1*
X10187864Y1196049D1*
X10178206Y1191220D1*
X10163606D1*
X10153947Y1200878D1*
X10149006Y1215478D1*
Y1234907D1*
X10153947Y1249507D1*
X10163606Y1259278D1*
M02*
